<?xml version="1.0" encoding="utf-8"?>
<!-- Generator: Adobe Illustrator 28.0.0, SVG Export Plug-In . SVG Version: 6.00 Build 0)  -->
<svg version="1.1" xmlns="http://www.w3.org/2000/svg" xmlns:xlink="http://www.w3.org/1999/xlink" x="0px" y="0px"
	 viewBox="0 0 410.39 424.05" style="enable-background:new 0 0 410.39 424.05;" xml:space="preserve">
<style type="text/css">
	.st0{display:none;}
	.st1{display:inline;fill:#29ABE2;}
	.st2{display:inline;fill:#0071BC;}
	.st3{fill:none;stroke:#000000;stroke-width:2;stroke-linecap:round;stroke-linejoin:round;stroke-miterlimit:10;}
</style>
<g id="background" class="st0">
	<rect x="-568.42" y="-35.84" class="st1" width="500" height="500"/>
	<path class="st2" d="M-91.8-7.15c-0.45,0.14-0.85,0.32-1.27,0.52c-0.85,0.41-1.67,0.46-2.59,0.44c-1.54-0.03-3.05-0.04-4.56-0.38
		c-2.57-0.59-4.72-2.46-4.79-5.22c-0.01-0.23-0.33-0.28-0.4-0.05c-0.47,1.59-1.52,3.08-2.86,4.06c-1.19,0.87-2.85,0.7-4.23,0.56
		c-1.42-0.14-2.81-0.17-4.08-0.89c-1.34-0.76-2.29-2.64-2.85-4.02c-0.06-0.14-0.29-0.23-0.37-0.05c-1.38,3.22-8.17,6.57-10.18,2.28
		c-0.08-0.17-0.29-0.11-0.35,0.03c0,0,0,0-0.01-0.01c-0.22-0.14-0.42,0.21-0.21,0.35c0.37,0.24,0.59,0.95,0.85,1.31
		c0.33,0.46,0.79,0.82,1.24,1.16c0.85,0.63,2.09,0.72,3.1,0.73c1.02,0.01,2.24-0.13,3.17-0.54c0.58-0.25,1.4-0.5,1.84-0.98
		c0.16-0.17,0.32-0.35,0.49-0.52c0.39-0.4,0.64,0.08,0.84,0.32c0.18,0.22,0.37,0.63,0.61,0.8c0.56,0.41,1.12,0.76,1.75,1.04
		c1.19,0.52,2.48,0.93,3.77,1.09c1.42,0.17,2.7,0.01,4.05-0.44c1.3-0.43,2.01-1.43,3.1-2.15c1.33,1.7,3.66,2.62,5.71,2.99
		c2.91,0.52,5.95-0.48,8.38-2.05C-91.46-6.9-91.57-7.22-91.8-7.15z"/>
	<path class="st2" d="M-509.81,17.61c-0.45,0.14-0.85,0.32-1.27,0.52c-0.85,0.41-1.67,0.46-2.59,0.44
		c-1.54-0.03-3.05-0.04-4.56-0.38c-2.57-0.59-4.72-2.46-4.79-5.22c-0.01-0.23-0.33-0.28-0.4-0.05c-0.47,1.59-1.52,3.08-2.86,4.06
		c-1.19,0.87-2.85,0.7-4.23,0.56c-1.41-0.14-2.81-0.17-4.08-0.89c-1.34-0.76-2.29-2.64-2.85-4.02c-0.06-0.14-0.29-0.23-0.37-0.05
		c-1.38,3.22-8.17,6.57-10.18,2.28c-0.08-0.17-0.29-0.11-0.35,0.03c0,0,0,0-0.01-0.01c-0.22-0.14-0.42,0.21-0.21,0.35
		c0.37,0.24,0.59,0.95,0.85,1.31c0.33,0.46,0.79,0.82,1.24,1.16c0.85,0.63,2.09,0.72,3.1,0.73c1.02,0.01,2.24-0.13,3.17-0.54
		c0.58-0.25,1.4-0.5,1.84-0.98c0.16-0.17,0.32-0.35,0.49-0.52c0.39-0.4,0.64,0.08,0.84,0.32c0.18,0.22,0.37,0.63,0.61,0.8
		c0.56,0.41,1.12,0.76,1.75,1.04c1.19,0.52,2.48,0.93,3.77,1.09c1.42,0.17,2.7,0.01,4.05-0.44c1.3-0.43,2.01-1.43,3.1-2.15
		c1.33,1.7,3.66,2.62,5.71,2.99c2.91,0.52,5.95-0.48,8.38-2.05C-509.47,17.86-509.58,17.54-509.81,17.61z"/>
	<path class="st2" d="M-72.25,132.73c-0.45,0.14-0.85,0.32-1.27,0.52c-0.85,0.41-1.67,0.46-2.59,0.44
		c-1.54-0.03-3.05-0.04-4.56-0.38c-2.57-0.59-4.72-2.46-4.79-5.22c-0.01-0.23-0.33-0.28-0.4-0.05c-0.47,1.59-1.52,3.08-2.86,4.06
		c-1.19,0.87-2.85,0.7-4.23,0.56c-1.42-0.14-2.81-0.17-4.08-0.89c-1.34-0.76-2.29-2.64-2.85-4.02c-0.06-0.14-0.29-0.23-0.37-0.05
		c-1.38,3.22-8.17,6.57-10.18,2.28c-0.08-0.17-0.29-0.11-0.35,0.03c0,0,0,0-0.01-0.01c-0.22-0.14-0.42,0.21-0.21,0.35
		c0.37,0.24,0.59,0.95,0.85,1.31c0.33,0.46,0.79,0.82,1.24,1.16c0.85,0.63,2.09,0.72,3.1,0.73c1.02,0.01,2.24-0.13,3.17-0.54
		c0.58-0.25,1.4-0.5,1.84-0.98c0.16-0.17,0.32-0.35,0.49-0.52c0.39-0.4,0.64,0.08,0.84,0.32c0.18,0.22,0.37,0.63,0.61,0.8
		c0.56,0.41,1.12,0.76,1.75,1.04c1.19,0.52,2.48,0.93,3.77,1.09c1.42,0.17,2.7,0.01,4.05-0.44c1.3-0.43,2.01-1.43,3.1-2.15
		c1.33,1.7,3.66,2.62,5.71,2.99c2.91,0.52,5.95-0.48,8.38-2.05C-71.91,132.97-72.03,132.66-72.25,132.73z"/>
	<path class="st2" d="M-108.26,309.56c-0.45,0.14-0.85,0.32-1.27,0.52c-0.85,0.41-1.67,0.46-2.59,0.44
		c-1.54-0.03-3.05-0.04-4.56-0.38c-2.57-0.59-4.72-2.46-4.79-5.22c-0.01-0.23-0.33-0.28-0.4-0.05c-0.47,1.59-1.52,3.08-2.86,4.06
		c-1.19,0.87-2.85,0.7-4.23,0.56c-1.41-0.14-2.81-0.17-4.08-0.89c-1.34-0.76-2.29-2.64-2.85-4.02c-0.06-0.14-0.29-0.23-0.37-0.05
		c-1.38,3.22-8.17,6.57-10.18,2.28c-0.08-0.17-0.29-0.11-0.35,0.03c0,0,0,0-0.01-0.01c-0.22-0.14-0.42,0.21-0.21,0.35
		c0.37,0.24,0.59,0.95,0.85,1.31c0.33,0.46,0.79,0.82,1.24,1.16c0.85,0.63,2.09,0.72,3.1,0.73c1.02,0.01,2.24-0.13,3.17-0.54
		c0.58-0.25,1.4-0.5,1.84-0.98c0.16-0.17,0.32-0.35,0.49-0.52c0.39-0.4,0.64,0.08,0.84,0.32c0.18,0.22,0.37,0.63,0.61,0.8
		c0.56,0.41,1.12,0.76,1.75,1.04c1.19,0.52,2.48,0.93,3.77,1.09c1.42,0.17,2.7,0.01,4.05-0.44c1.3-0.43,2.01-1.43,3.1-2.15
		c1.33,1.7,3.66,2.62,5.71,2.99c2.91,0.53,5.95-0.47,8.38-2.05C-107.92,309.81-108.03,309.5-108.26,309.56z"/>
	<path class="st2" d="M-486.76,438.86c-0.45,0.14-0.85,0.32-1.27,0.52c-0.85,0.41-1.67,0.46-2.59,0.44
		c-1.54-0.03-3.05-0.04-4.56-0.38c-2.57-0.59-4.72-2.46-4.79-5.22c-0.01-0.23-0.33-0.28-0.4-0.05c-0.47,1.59-1.52,3.08-2.86,4.06
		c-1.19,0.87-2.85,0.7-4.23,0.56c-1.42-0.14-2.81-0.17-4.08-0.89c-1.34-0.76-2.29-2.64-2.85-4.02c-0.06-0.14-0.29-0.23-0.37-0.05
		c-1.38,3.22-8.17,6.57-10.18,2.28c-0.08-0.17-0.29-0.11-0.35,0.03c0,0,0,0-0.01-0.01c-0.22-0.14-0.42,0.21-0.21,0.35
		c0.37,0.24,0.59,0.95,0.85,1.31c0.33,0.46,0.79,0.82,1.24,1.16c0.85,0.63,2.09,0.72,3.1,0.73c1.02,0.01,2.24-0.13,3.17-0.54
		c0.58-0.25,1.4-0.5,1.84-0.98c0.16-0.17,0.32-0.35,0.49-0.52c0.39-0.4,0.64,0.08,0.84,0.32c0.18,0.22,0.37,0.63,0.61,0.8
		c0.56,0.41,1.12,0.76,1.75,1.04c1.19,0.52,2.48,0.93,3.77,1.09c1.42,0.17,2.7,0.01,4.05-0.44c1.3-0.43,2.01-1.43,3.1-2.15
		c1.33,1.7,3.66,2.62,5.71,2.99c2.91,0.53,5.95-0.47,8.38-2.05C-486.41,439.11-486.53,438.79-486.76,438.86z"/>
	<path class="st2" d="M-127.9,10.58c-1.42,1.29-2.62,2.74-4.51,3.35c-1.45,0.47-3.09,0.36-4.54-0.01c-1.81-0.45-5.45-1.66-5.21-4.05
		c0.02-0.25-0.32-0.25-0.4-0.05c-0.58,1.48-1.14,2.8-2.57,3.63c-1.83,1.06-4.11,0.85-6.12,0.68c-2.48-0.21-6.61-1.02-6.85-4.16
		c-0.02-0.22-0.34-0.29-0.4-0.05c-0.62,2.4-2.96,3.53-5.22,3.91c-1.44,0.25-2.85,0.07-4.15-0.62c-0.79-0.43-1.03-1.4-1.71-1.87
		c0-0.01,0-0.03-0.01-0.04c-0.01-0.09-0.06-0.17-0.15-0.2c-0.03-0.01-0.06-0.02-0.09-0.02c-0.06-0.02-0.15,0-0.2,0.05
		c-0.03,0.04-0.06,0.08-0.09,0.12c-0.14,0.17,0.04,0.39,0.2,0.35c0.02,0.01,0.03,0.02,0.05,0.03c-0.22,0.44,0.17,1.33,0.45,1.75
		c0.5,0.77,1.33,1.36,2.14,1.78c1.74,0.89,4.16,0.47,5.9-0.16c0.83-0.3,1.57-0.73,2.2-1.34c0.71-0.68,1.32-0.02,1.74,0.49
		c0.31,0.38,0.88,0.56,1.31,0.77c2.15,1.07,4.35,1.23,6.72,1.39c2.15,0.15,4.36-0.51,6.11-1.76c0.34-0.25,0.65-0.53,0.95-0.83
		c0.44-0.43,0.61-0.01,1.04,0.29c0.85,0.6,1.85,1.11,2.82,1.49c2.04,0.81,4.85,0.52,6.89-0.16c2.27-0.75,2.65-2.77,4-4.46
		C-127.45,10.67-127.7,10.4-127.9,10.58z"/>
	<path class="st2" d="M-452-14.7c-1.42,1.29-2.62,2.74-4.51,3.35c-1.45,0.47-3.08,0.36-4.54-0.01c-1.81-0.45-5.45-1.66-5.21-4.05
		c0.02-0.25-0.32-0.25-0.4-0.05c-0.58,1.48-1.14,2.8-2.57,3.63c-1.83,1.06-4.11,0.85-6.12,0.68c-2.48-0.21-6.61-1.02-6.85-4.16
		c-0.02-0.22-0.34-0.29-0.4-0.05c-0.62,2.4-2.96,3.53-5.22,3.91c-1.44,0.25-2.85,0.07-4.15-0.62c-0.79-0.43-1.03-1.4-1.71-1.87
		c0-0.01,0-0.03-0.01-0.04c-0.01-0.09-0.06-0.17-0.15-0.2c-0.03-0.01-0.06-0.02-0.09-0.02c-0.06-0.02-0.15,0-0.2,0.05
		c-0.03,0.04-0.06,0.08-0.09,0.12c-0.14,0.17,0.04,0.39,0.2,0.35c0.02,0.01,0.03,0.02,0.05,0.03c-0.22,0.44,0.17,1.33,0.45,1.75
		c0.5,0.77,1.33,1.36,2.14,1.78c1.74,0.89,4.16,0.47,5.9-0.16c0.83-0.3,1.57-0.73,2.2-1.34c0.71-0.68,1.32-0.02,1.74,0.49
		c0.31,0.38,0.88,0.56,1.31,0.77c2.15,1.07,4.35,1.23,6.72,1.39c2.15,0.15,4.36-0.51,6.11-1.76c0.34-0.25,0.65-0.53,0.95-0.83
		c0.44-0.43,0.61-0.01,1.04,0.29c0.85,0.6,1.85,1.11,2.82,1.49c2.04,0.81,4.85,0.52,6.89-0.16c2.27-0.75,2.65-2.77,4-4.46
		C-451.56-14.61-451.8-14.88-452-14.7z"/>
	<path class="st2" d="M-506.39,194.53c-1.42,1.29-2.62,2.74-4.51,3.35c-1.45,0.47-3.08,0.36-4.54-0.01
		c-1.81-0.45-5.45-1.66-5.21-4.05c0.02-0.25-0.32-0.25-0.4-0.05c-0.58,1.48-1.14,2.8-2.57,3.63c-1.83,1.06-4.11,0.85-6.12,0.68
		c-2.48-0.21-6.61-1.02-6.85-4.16c-0.02-0.22-0.34-0.29-0.4-0.05c-0.62,2.4-2.96,3.53-5.22,3.91c-1.44,0.25-2.85,0.07-4.15-0.62
		c-0.79-0.43-1.03-1.4-1.71-1.87c0-0.01,0-0.03-0.01-0.04c-0.01-0.09-0.06-0.17-0.15-0.2c-0.03-0.01-0.06-0.02-0.09-0.02
		c-0.06-0.02-0.15,0-0.2,0.05c-0.03,0.04-0.06,0.08-0.09,0.12c-0.14,0.17,0.04,0.39,0.2,0.35c0.02,0.01,0.03,0.02,0.05,0.03
		c-0.22,0.44,0.17,1.33,0.45,1.75c0.5,0.77,1.33,1.36,2.14,1.78c1.74,0.89,4.16,0.47,5.9-0.16c0.83-0.3,1.57-0.73,2.2-1.34
		c0.71-0.68,1.32-0.02,1.74,0.49c0.31,0.38,0.88,0.56,1.31,0.77c2.15,1.07,4.35,1.23,6.72,1.39c2.15,0.15,4.36-0.51,6.11-1.76
		c0.34-0.25,0.65-0.53,0.95-0.83c0.44-0.43,0.61-0.01,1.04,0.29c0.85,0.6,1.85,1.11,2.82,1.49c2.04,0.81,4.85,0.52,6.89-0.16
		c2.27-0.75,2.65-2.77,4-4.46C-505.95,194.62-506.19,194.35-506.39,194.53z"/>
	<path class="st2" d="M-506.39,366.39c-1.42,1.29-2.62,2.74-4.51,3.35c-1.45,0.47-3.08,0.36-4.54-0.01
		c-1.81-0.45-5.45-1.66-5.21-4.05c0.02-0.25-0.32-0.25-0.4-0.05c-0.58,1.48-1.14,2.8-2.57,3.63c-1.83,1.06-4.11,0.85-6.12,0.68
		c-2.48-0.21-6.61-1.02-6.85-4.16c-0.02-0.22-0.34-0.29-0.4-0.05c-0.62,2.4-2.96,3.53-5.22,3.91c-1.44,0.25-2.85,0.07-4.15-0.62
		c-0.79-0.43-1.03-1.4-1.71-1.87c0-0.01,0-0.03-0.01-0.04c-0.01-0.09-0.06-0.17-0.15-0.2c-0.03-0.01-0.06-0.02-0.09-0.02
		c-0.06-0.02-0.15,0-0.2,0.05c-0.03,0.04-0.06,0.08-0.09,0.12c-0.14,0.17,0.04,0.39,0.2,0.35c0.02,0.01,0.03,0.02,0.05,0.03
		c-0.22,0.44,0.17,1.33,0.45,1.75c0.5,0.77,1.33,1.36,2.14,1.78c1.74,0.89,4.16,0.47,5.9-0.17c0.83-0.3,1.57-0.73,2.2-1.34
		c0.71-0.68,1.32-0.02,1.74,0.49c0.31,0.38,0.88,0.56,1.31,0.77c2.15,1.07,4.35,1.23,6.72,1.39c2.15,0.15,4.36-0.51,6.11-1.76
		c0.34-0.25,0.65-0.54,0.95-0.83c0.44-0.43,0.61-0.02,1.04,0.29c0.85,0.6,1.85,1.11,2.82,1.49c2.04,0.8,4.85,0.52,6.89-0.16
		c2.27-0.75,2.65-2.77,4-4.46C-505.95,366.47-506.19,366.2-506.39,366.39z"/>
	<path class="st2" d="M-90.14,160.35c-1.42,1.29-2.62,2.74-4.51,3.35c-1.45,0.47-3.08,0.36-4.54-0.01
		c-1.81-0.45-5.45-1.66-5.21-4.05c0.02-0.25-0.32-0.25-0.4-0.05c-0.58,1.48-1.14,2.8-2.57,3.63c-1.83,1.06-4.11,0.85-6.12,0.68
		c-2.48-0.21-6.61-1.02-6.85-4.16c-0.02-0.22-0.34-0.29-0.4-0.05c-0.62,2.4-2.96,3.53-5.22,3.91c-1.44,0.25-2.85,0.07-4.15-0.62
		c-0.79-0.43-1.03-1.4-1.71-1.87c0-0.01,0-0.03-0.01-0.04c-0.01-0.09-0.06-0.17-0.15-0.2c-0.03-0.01-0.06-0.02-0.09-0.02
		c-0.06-0.02-0.15,0-0.2,0.05c-0.03,0.04-0.06,0.08-0.09,0.12c-0.14,0.17,0.04,0.39,0.2,0.35c0.02,0.01,0.03,0.02,0.05,0.03
		c-0.22,0.44,0.17,1.33,0.45,1.75c0.5,0.77,1.33,1.36,2.14,1.78c1.74,0.89,4.16,0.47,5.9-0.16c0.83-0.3,1.57-0.73,2.2-1.34
		c0.71-0.68,1.32-0.02,1.74,0.49c0.31,0.38,0.88,0.56,1.31,0.77c2.15,1.07,4.35,1.23,6.72,1.39c2.15,0.15,4.36-0.51,6.11-1.76
		c0.34-0.25,0.65-0.53,0.95-0.83c0.44-0.43,0.61-0.01,1.04,0.29c0.85,0.6,1.85,1.11,2.82,1.49c2.04,0.81,4.85,0.52,6.89-0.16
		c2.27-0.75,2.65-2.77,4-4.46C-89.69,160.43-89.94,160.17-90.14,160.35z"/>
	<path class="st2" d="M-78.47,227.3c-1.42,1.29-2.62,2.74-4.51,3.35c-1.45,0.47-3.08,0.36-4.54-0.01c-1.81-0.45-5.45-1.66-5.21-4.05
		c0.02-0.25-0.32-0.25-0.4-0.05c-0.58,1.48-1.14,2.8-2.57,3.63c-1.83,1.06-4.11,0.85-6.12,0.68c-2.48-0.21-6.61-1.02-6.85-4.16
		c-0.02-0.22-0.34-0.29-0.4-0.05c-0.62,2.4-2.96,3.53-5.22,3.91c-1.44,0.25-2.85,0.08-4.15-0.62c-0.79-0.43-1.03-1.4-1.71-1.87
		c0-0.01,0-0.03-0.01-0.04c-0.01-0.09-0.06-0.17-0.15-0.2c-0.03-0.01-0.06-0.02-0.09-0.02c-0.06-0.02-0.15,0-0.2,0.05
		c-0.03,0.04-0.06,0.08-0.09,0.12c-0.14,0.17,0.04,0.39,0.2,0.35c0.02,0.01,0.03,0.02,0.05,0.03c-0.22,0.44,0.17,1.33,0.45,1.75
		c0.5,0.77,1.33,1.36,2.14,1.78c1.74,0.89,4.16,0.47,5.9-0.16c0.83-0.3,1.57-0.73,2.2-1.34c0.71-0.68,1.32-0.02,1.74,0.49
		c0.31,0.38,0.88,0.56,1.31,0.77c2.15,1.07,4.35,1.23,6.72,1.39c2.15,0.15,4.36-0.51,6.11-1.76c0.34-0.25,0.65-0.54,0.95-0.83
		c0.44-0.43,0.61-0.01,1.04,0.29c0.85,0.6,1.85,1.11,2.82,1.49c2.04,0.81,4.85,0.52,6.89-0.16c2.27-0.75,2.65-2.77,4-4.46
		C-78.02,227.38-78.27,227.12-78.47,227.3z"/>
	<path class="st2" d="M-268.47-24.17c-1.42,1.29-2.62,2.74-4.51,3.35c-1.45,0.47-3.08,0.36-4.54-0.01
		c-1.81-0.45-5.45-1.66-5.21-4.05c0.02-0.25-0.32-0.25-0.4-0.05c-0.58,1.48-1.14,2.8-2.57,3.63c-1.83,1.06-4.11,0.85-6.12,0.68
		c-2.48-0.21-6.61-1.02-6.85-4.16c-0.02-0.22-0.34-0.29-0.4-0.05c-0.62,2.4-2.96,3.53-5.22,3.91c-1.44,0.25-2.85,0.08-4.15-0.62
		c-0.79-0.43-1.03-1.4-1.71-1.87c0-0.01,0-0.03-0.01-0.04c-0.01-0.09-0.06-0.17-0.15-0.2c-0.03-0.01-0.06-0.02-0.09-0.02
		c-0.06-0.02-0.15,0-0.2,0.05c-0.03,0.04-0.06,0.08-0.09,0.12c-0.14,0.17,0.04,0.39,0.2,0.35c0.02,0.01,0.03,0.02,0.05,0.03
		c-0.22,0.44,0.17,1.33,0.45,1.75c0.5,0.77,1.33,1.36,2.14,1.78c1.74,0.89,4.16,0.47,5.9-0.16c0.83-0.3,1.57-0.73,2.2-1.34
		c0.71-0.68,1.32-0.02,1.74,0.49c0.31,0.38,0.88,0.56,1.31,0.77c2.15,1.07,4.35,1.23,6.72,1.39c2.15,0.15,4.36-0.51,6.11-1.76
		c0.34-0.25,0.65-0.54,0.95-0.83c0.44-0.43,0.61-0.01,1.04,0.29c0.85,0.6,1.85,1.11,2.82,1.49c2.04,0.81,4.85,0.52,6.89-0.16
		c2.27-0.75,2.65-2.77,4-4.46C-268.02-24.08-268.27-24.35-268.47-24.17z"/>
	<path class="st2" d="M-78.47,392.67c-1.42,1.29-2.62,2.74-4.51,3.35c-1.45,0.47-3.08,0.36-4.54-0.01
		c-1.81-0.45-5.45-1.66-5.21-4.05c0.02-0.25-0.32-0.25-0.4-0.05c-0.58,1.48-1.14,2.8-2.57,3.63c-1.83,1.06-4.11,0.85-6.12,0.68
		c-2.48-0.21-6.61-1.02-6.85-4.16c-0.02-0.22-0.34-0.29-0.4-0.05c-0.62,2.4-2.96,3.53-5.22,3.91c-1.44,0.25-2.85,0.08-4.15-0.62
		c-0.79-0.43-1.03-1.4-1.71-1.87c0-0.01,0-0.03-0.01-0.04c-0.01-0.09-0.06-0.17-0.15-0.2c-0.03-0.01-0.06-0.02-0.09-0.02
		c-0.06-0.02-0.15,0-0.2,0.05c-0.03,0.04-0.06,0.08-0.09,0.12c-0.14,0.17,0.04,0.39,0.2,0.35c0.02,0.01,0.03,0.02,0.05,0.03
		c-0.22,0.44,0.17,1.33,0.45,1.75c0.5,0.77,1.33,1.36,2.14,1.78c1.74,0.89,4.16,0.47,5.9-0.16c0.83-0.3,1.57-0.73,2.2-1.34
		c0.71-0.68,1.32-0.02,1.74,0.49c0.31,0.38,0.88,0.56,1.31,0.77c2.15,1.07,4.35,1.23,6.72,1.39c2.15,0.15,4.36-0.51,6.11-1.76
		c0.34-0.25,0.65-0.54,0.95-0.83c0.44-0.43,0.61-0.01,1.04,0.29c0.85,0.6,1.85,1.11,2.82,1.49c2.04,0.81,4.85,0.52,6.89-0.16
		c2.27-0.75,2.65-2.77,4-4.46C-78.02,392.75-78.27,392.48-78.47,392.67z"/>
	<path class="st2" d="M-436.81,392.67c-1.42,1.29-2.62,2.74-4.51,3.35c-1.45,0.47-3.09,0.36-4.54-0.01
		c-1.81-0.45-5.45-1.66-5.21-4.05c0.02-0.25-0.32-0.25-0.4-0.05c-0.58,1.48-1.14,2.8-2.57,3.63c-1.83,1.06-4.11,0.85-6.12,0.68
		c-2.48-0.21-6.61-1.02-6.85-4.16c-0.02-0.22-0.34-0.29-0.4-0.05c-0.62,2.4-2.96,3.53-5.22,3.91c-1.44,0.25-2.85,0.08-4.15-0.62
		c-0.79-0.43-1.03-1.4-1.71-1.87c0-0.01,0-0.03-0.01-0.04c-0.01-0.09-0.06-0.17-0.15-0.2c-0.03-0.01-0.06-0.02-0.09-0.02
		c-0.06-0.02-0.15,0-0.2,0.05c-0.03,0.04-0.06,0.08-0.09,0.12c-0.14,0.17,0.04,0.39,0.2,0.35c0.02,0.01,0.03,0.02,0.05,0.03
		c-0.22,0.44,0.17,1.33,0.45,1.75c0.5,0.77,1.33,1.36,2.14,1.78c1.74,0.89,4.16,0.47,5.9-0.16c0.83-0.3,1.57-0.73,2.2-1.34
		c0.71-0.68,1.32-0.02,1.74,0.49c0.31,0.38,0.88,0.56,1.31,0.77c2.15,1.07,4.35,1.23,6.72,1.39c2.15,0.15,4.36-0.51,6.11-1.76
		c0.34-0.25,0.65-0.54,0.95-0.83c0.44-0.43,0.61-0.01,1.04,0.29c0.85,0.6,1.85,1.11,2.82,1.49c2.04,0.81,4.85,0.52,6.89-0.16
		c2.27-0.75,2.65-2.77,4-4.46C-436.37,392.75-436.62,392.48-436.81,392.67z"/>
	<path class="st2" d="M-225.32,431.83c-1.42,1.29-2.62,2.74-4.51,3.35c-1.45,0.47-3.08,0.36-4.54-0.01
		c-1.81-0.45-5.45-1.66-5.21-4.05c0.02-0.25-0.32-0.25-0.4-0.05c-0.58,1.48-1.14,2.8-2.57,3.63c-1.83,1.06-4.11,0.85-6.12,0.68
		c-2.48-0.21-6.61-1.02-6.85-4.16c-0.02-0.22-0.34-0.29-0.4-0.05c-0.62,2.4-2.96,3.53-5.22,3.91c-1.44,0.25-2.85,0.08-4.15-0.62
		c-0.79-0.43-1.03-1.4-1.71-1.87c0-0.01,0-0.03-0.01-0.04c-0.01-0.09-0.06-0.17-0.15-0.2c-0.03-0.01-0.06-0.02-0.09-0.02
		c-0.06-0.02-0.15,0-0.2,0.05c-0.03,0.04-0.06,0.08-0.09,0.12c-0.14,0.17,0.04,0.39,0.2,0.35c0.02,0.01,0.03,0.02,0.05,0.03
		c-0.22,0.44,0.17,1.33,0.45,1.75c0.5,0.77,1.33,1.36,2.14,1.78c1.74,0.89,4.16,0.47,5.9-0.16c0.83-0.3,1.57-0.73,2.2-1.34
		c0.71-0.68,1.32-0.02,1.74,0.49c0.31,0.38,0.88,0.56,1.31,0.77c2.15,1.07,4.35,1.23,6.72,1.39c2.15,0.15,4.36-0.51,6.11-1.76
		c0.34-0.25,0.65-0.54,0.95-0.83c0.44-0.43,0.61-0.01,1.04,0.29c0.85,0.6,1.85,1.11,2.82,1.49c2.04,0.81,4.85,0.52,6.89-0.16
		c2.27-0.75,2.65-2.77,4-4.46C-224.88,431.92-225.13,431.65-225.32,431.83z"/>
</g>
<g id="objects">
	<g>
		<g>
			<path class="st3" d="M272.62,4.07c1.23,0,2.46,0.01,3.68,0.04C275.07,4.08,273.84,4.07,272.62,4.07z"/>
			<path class="st3" d="M188.89,2.35c1.88,0.1,3.77,0.18,5.65,0.26C192.65,2.53,190.77,2.44,188.89,2.35z"/>
			<path class="st3" d="M371.92,30.87c0.72,0.36,1.44,0.72,2.15,1.1C373.36,31.59,372.64,31.23,371.92,30.87z"/>
			<path class="st3" d="M371.38,30.6c-0.17-0.08-0.34-0.17-0.52-0.25c0.01,0,0.02,0.01,0.02,0.01
				C371.05,30.45,371.22,30.52,371.38,30.6z"/>
			<path class="st3" d="M210.25,3.05c1.61,0.03,3.23,0.05,4.84,0.07C213.48,3.1,211.87,3.08,210.25,3.05z"/>
			<path class="st3" d="M195.45,2.65c4.41,0.17,8.83,0.3,13.24,0.38C204.28,2.95,199.87,2.82,195.45,2.65z"/>
			<path class="st3" d="M328.36,13.15c-0.04,0-0.07,0-0.11,0c0.06,0,0.12,0,0.17,0C328.4,13.16,328.38,13.15,328.36,13.15z"/>
			<path class="st3" d="M277.12,4.12c1.54,0.04,3.08,0.09,4.63,0.16C280.2,4.21,278.66,4.16,277.12,4.12z"/>
			<path class="st3" d="M173.42,1.32c-0.2-0.02-0.4-0.03-0.6-0.05c0.02,0,0.03,0,0.05,0C173.05,1.29,173.24,1.3,173.42,1.32z"/>
			<path class="st3" d="M370.59,30.22c-0.04-0.02-0.08-0.04-0.11-0.06c0.02,0.01,0.05,0.02,0.07,0.03
				C370.56,30.21,370.57,30.21,370.59,30.22z"/>
			<path class="st3" d="M31.58,96.2c-2.4-2.74-4.89-5.4-7.55-7.89c-2.84-2.66-5.86-4.96-8.92-7.35c-2.79-2.18-5.34-4.61-7.99-6.95
				c-2.21-1.95-5.82-5.01-6.08-8.33c-0.03,0.74,0,1.52,0.04,2.21c0,3.41-0.19,6.89,0,10.3c0,0.85-0.05,1.72,0,2.57
				c0,3.14,2.61,5.67,4.77,7.63c3.04,2.76,6.08,5.59,9.32,8.12c3.45,2.7,6.91,5.37,10.05,8.42c1.49,1.45,2.93,2.95,4.34,4.49
				c0.7,0.77,1.39,1.54,2.08,2.33c0.13,0.15,0.16,0.35,0.14,0.58c0.89-1.81,1.63-3.66,2.17-5.55C35.17,102.5,34.52,99.55,31.58,96.2
				z"/>
			<path class="st3" d="M47.15,33.38c-4.48,2.26-9.01,4.54-13.34,7.11c3.49-2.03,7.07-3.83,10.72-5.74
				C45.4,34.3,46.27,33.84,47.15,33.38z"/>
			<path class="st3" d="M15.14,53.58c-1.75,1.06-3.54,2.02-5.34,2.99c0.66-0.33,1.31-0.66,1.92-0.98
				C12.89,54.97,14.02,54.29,15.14,53.58z"/>
			<path class="st3" d="M175.7,407.48c-0.89,0.04-1.77-0.04-2.62-0.34c-1.27-0.46-2.28-1.98-3.01-3.04
				c-2.68-3.88-5.12-8.24-7.18-12.48c-3.26-6.69-6.25-13.18-11.99-18.15c-9.99-8.65-22.97-10.13-34.57-15.59
				c-6.56-3.09-12.73-6.92-19.19-10.21c-6.75-3.44-13.98-6.08-21.36-7.83c-7.66-1.82-15.35-2.53-23.21-2.14
				c-7.79,0.4-15.55,1.41-23.36,1.46c-0.22,0-0.42-0.15-0.48-0.37c-0.5-1.85-0.4-3.65-0.62-5.53c-0.24-2.09-0.5-4.17-0.79-6.25
				c-0.52-3.71-1.09-7.4-1.76-11.08c-1.42-7.75-3.58-15.13-5.81-22.67c-0.99-3.32-1.51-6.87-2.57-10.16
				c-0.14-0.01-0.27-0.08-0.34-0.25c-0.76-1.71-1.39-3.6-2.32-5.22c-0.82-1.41-1.79-2.72-2.63-4.12c-0.71-1.19-1.27-2.23-1.45-3.38
				v12.54c0,1.28-0.13,2.66,0.27,3.88c0.58,1.81,1.8,3.4,2.84,4.97c1.17,1.77,2.01,3.61,2.8,5.57c0.3,0.73,0.85,1.39,1.05,2.06
				c0.3,1,0.56,2.01,0.8,3.03c0.52,2.21,0.96,4.45,1.61,6.63c1.26,4.25,2.51,8.5,3.62,12.79c2.21,8.59,3.58,17.37,4.62,26.17
				c0.24,2.01,0.19,4.09,0.62,6.07c0.26,1.2,1.21,0.87,2.24,0.85c1.27-0.03,2.54-0.08,3.81-0.15c4.53-0.24,9.05-0.68,13.57-1.01
				c8.93-0.66,17.75-0.34,26.51,1.62c8.48,1.9,16.61,5,24.29,9.05c7.53,3.98,14.78,8.51,22.77,11.52c7.04,2.65,14.4,4.53,21.11,7.98
				c7,3.6,12.23,8.85,16.04,15.7c3.94,7.08,6.95,14.61,11.77,21.19c0.99,1.35,2.07,2.18,3.65,2.39c-0.18-0.03-0.36-0.06-0.53-0.1
				C174.56,417.75,175.12,412.61,175.7,407.48z"/>
			<path class="st3" d="M395.25,177.64c0.19,1.84,0.28,3.67,0.3,5.52c0.01,0.66-0.86,1.41-1.47,2c-1.42,2.58-2.16,5.52-3.38,8.19
				c-1.92,4.19-4.25,8.1-6.53,12.1c-4.48,7.85-6.8,15.81-7.62,24.79c-0.39,4.28-0.63,8.73,0.19,12.98
				c0.89,4.63,3.19,8.54,5.25,12.73c0.8,1.63,1.68,3.28,2.52,4.95c0.02,0,0.04,0,0.06-0.01c-1.87-3.74-3.9-7.42-5.61-11.23
				c-0.82-1.82-1.52-3.69-1.97-5.64c-0.42-1.83,0.47-4.47,0.86-6.29c0.84-3.92,2.07-7.76,3.71-11.43c1.74-3.91,4.02-7.54,6.09-11.28
				c2.1-3.78,3.68-7.63,5.28-11.64c0.36-0.91,0.76-1.81,1.23-2.67c0.51-0.49,1.2-1.02,1.42-1.71c0.09-0.27,0.05-0.62,0.05-0.91
				v-5.15c0-5.08,0.21-10.23-0.3-15.3c-0.41-4.01-1.37-7.85-2.76-11.52c0.09,0.27,0.2,0.52,0.29,0.79
				C393.98,170.4,394.87,173.98,395.25,177.64z"/>
			<path class="st3" d="M3.91,60.21c-0.9,0.77-1.68,1.65-2.19,2.64C2.28,61.84,3.03,60.98,3.91,60.21z"/>
			<path class="st3" d="M295.1,5.72c1.01,0.29,2.04,0.61,2.97,1.12c1,0.55,1.8,0.65,2.86,0.92c0.26,0.07,0.5,0.15,0.74,0.24
				c-0.5-0.17-1.02-0.32-1.54-0.44c-1.02-0.24-1.87-0.7-2.82-1.11c-3.97-1.68-8.45-1.78-12.68-2.02c-0.89-0.05-1.77-0.09-2.66-0.13
				c1.6,0.07,3.2,0.16,4.81,0.27C289.54,4.74,292.41,4.94,295.1,5.72z"/>
			<path class="st3" d="M311.52,16.46c0.97,0.6,1.93,0.89,2.88,0.97c-0.61-0.06-1.22-0.2-1.85-0.47c-2.83-1.19-4.64-3.98-6.72-6.1
				c-1.01-1.03-2.12-1.98-3.44-2.59c-0.17-0.08-0.35-0.13-0.53-0.2C305.92,9.67,307.87,14.21,311.52,16.46z"/>
			<path class="st3" d="M339.24,16.88c3.05,1.01,6.14,1.92,9.19,2.91c2.41,0.78,4.79,1.62,7.12,2.59c0.09-0.04,0.18-0.06,0.29-0.04
				c3.06,0.54,5.32,2.66,7.86,4.29c0.1,0.07,0.21,0.13,0.31,0.2c1.71,1.06,3.51,1.93,5.31,2.79c0,0,0,0,0,0
				c-2.17-1.05-4.33-2.13-6.32-3.49c-1.48-1.02-2.91-2.14-4.54-2.93c-0.81-0.4-1.68-0.7-2.57-0.86c-1.11-0.2-2.22-0.73-3.31-1.14
				c-4.21-1.54-8.53-2.76-12.78-4.15c-3.44-1.13-7.05-3.4-10.72-3.82c0.18,0.03,0.35,0.06,0.53,0.11
				C332.92,14.15,336.01,15.81,339.24,16.88z"/>
			<path class="st3" d="M128.93,6.99c2.46,1.7,5.17,4.02,8.13,4.75c0.71,0.17,1.41,0.23,2.11,0.2c-3.62,0.08-6.65-2.43-9.47-4.45
				c-2.9-2.08-6.14-4.12-9.72-4.72c0.28,0.05,0.57,0.1,0.85,0.17C123.83,3.69,126.4,5.24,128.93,6.99z"/>
			<path class="st3" d="M266.9,4.16c1.52-0.05,3.04-0.08,4.56-0.09c-0.21,0-0.42,0-0.63,0c-9.17,0.1-18.31,0.81-27.48,0.32
				c-0.42-0.02-0.84-0.05-1.26-0.07c0.4,0.02,0.8,0.05,1.2,0.07C251.18,4.81,259.01,4.44,266.9,4.16z"/>
			<path class="st3" d="M92.28,12.19c-3.69,1.84-7.37,3.69-11.05,5.55c0.63-0.31,1.26-0.63,1.89-0.94
				C86.2,15.33,89.24,13.75,92.28,12.19z"/>
			<path class="st3" d="M182.19,1.96c1.77,0.11,3.55,0.22,5.32,0.31C185.74,2.18,183.96,2.07,182.19,1.96z"/>
			<path class="st3" d="M99.59,8.57c0.96-0.46,1.92-0.93,2.89-1.37C101.51,7.65,100.55,8.1,99.59,8.57z"/>
			<path class="st3" d="M112.02,3.43c0.06-0.02,0.11-0.03,0.17-0.05C112.13,3.4,112.07,3.42,112.02,3.43z"/>
			<path class="st3" d="M59.38,28.26c0.22-0.05,0.44-0.1,0.67-0.15C59.83,28.16,59.6,28.21,59.38,28.26z"/>
			<path class="st3" d="M113.15,3.14c0.18-0.04,0.36-0.09,0.54-0.12C113.51,3.06,113.33,3.1,113.15,3.14z"/>
			<path class="st3" d="M15.56,53.32c0.14-0.09,0.27-0.18,0.41-0.27C15.83,53.14,15.69,53.24,15.56,53.32z"/>
			<path class="st3" d="M32.63,41.19c0.14-0.08,0.28-0.17,0.42-0.25C32.91,41.03,32.77,41.11,32.63,41.19z"/>
			<path class="st3" d="M57.9,28.66c0.06-0.02,0.13-0.04,0.19-0.06C58.03,28.62,57.96,28.64,57.9,28.66z"/>
			<path class="st3" d="M175.14,1.45c1.9,0.15,3.81,0.29,5.71,0.42C178.95,1.74,177.05,1.6,175.14,1.45z"/>
			<path class="st3" d="M119.17,2.64c-0.12-0.01-0.24-0.01-0.36-0.02c0.23,0.02,0.47,0.04,0.7,0.07
				C119.39,2.68,119.28,2.65,119.17,2.64z"/>
			<path class="st3" d="M117.53,2.57c0.21,0,0.41,0.01,0.62,0.01C117.94,2.58,117.73,2.57,117.53,2.57z"/>
			<path class="st3" d="M139.42,11.92c0.1-0.01,0.19-0.01,0.29-0.02C139.62,11.9,139.52,11.91,139.42,11.92z"/>
			<path class="st3" d="M115.54,2.71c0.43-0.05,0.86-0.09,1.29-0.11C116.39,2.62,115.96,2.66,115.54,2.71z"/>
			<path class="st3" d="M140.17,11.83c0.26-0.04,0.51-0.09,0.76-0.15C140.68,11.74,140.43,11.8,140.17,11.83z"/>
			<path class="st3" d="M372.45,133.46c3,6.03,6.85,11.39,10.83,16.79c2.18,2.95,4.32,5.98,6.15,9.17c-0.97-1.76-2.04-3.48-3.2-5.15
				c-4.82-6.98-10.19-13.55-13.92-21.22c-0.1-0.2-0.19-0.41-0.29-0.61c-0.02,0-0.03,0-0.05,0.01
				C372.12,132.77,372.28,133.12,372.45,133.46z"/>
			<path class="st3" d="M114.33,2.9c0.24-0.04,0.47-0.09,0.71-0.13C114.8,2.81,114.56,2.85,114.33,2.9z"/>
			<path class="st3" d="M228.8,397.54c-2.13,3.4-7.81,3.3-11.28,3.35c-7.6,0.1-15.13,0.31-22.62,1.75
				c-5.49,1.06-10.62,3.3-16.08,4.39c-1.01,0.2-2.07,0.4-3.13,0.45c-0.57,5.13-1.14,10.27-1.78,15.4c0.17,0.04,0.34,0.08,0.53,0.1
				c0.19,0.03,0.38,0.05,0.59,0.06c2.13,0.09,4.34-0.51,6.39-1.04c4.2-1.09,8.27-2.66,12.52-3.59c8.39-1.84,17-1.79,25.54-1.99
				c2.78-0.07,6.07-0.24,8.31-2.1c1.25-1.04,1.74-2.48,1.88-4.07c0.19-2.18,0.17-4.38,0.24-6.57c0.16-5.1,0.73-10.14,1.43-15.17
				c-0.49-0.82-0.95-1.66-1.41-2.5c-0.1,2.33-0.14,4.66-0.23,7C229.63,394.48,229.61,396.25,228.8,397.54z"/>
			<path class="st3" d="M409.09,62.88c-0.21-0.7-0.61-1.15-1.1-1.48c2.71,1.98,0.2,7.62-0.53,10.01c-1.05,3.42-1.5,7.02-2.55,10.46
				c-0.96,3.13-2.07,6.21-3.37,9.21c-2.38,5.5-5.37,11.63-11.34,13.87c-5.93,2.23-12.32,4.56-17.03,9.02
				c-2.47,2.33-4.87,5.78-4.87,9.35c0,1.9,1.15,3.61,1.91,5.31c0.57,1.27,1.14,2.54,1.74,3.8c0.02,0,0.03,0,0.05-0.01l0,0
				c-0.1-0.21-0.2-0.43-0.3-0.64c-0.29-0.62,0.05-0.73,0.48-1.2c0.64-0.71,1.34-1.37,2.08-1.99c1.53-1.29,3.21-2.39,4.96-3.36
				c3.38-1.86,7.01-3.22,10.61-4.58c6.7-2.51,9.81-9.25,12.36-15.46c1.98-4.82,3.29-9.71,4.42-14.78c0.81-3.64,2.78-7.32,2.66-11.1
				V69.03C409.24,67.09,409.66,64.74,409.09,62.88z"/>
			<path class="st3" d="M405.96,60.64c-0.16-0.04-0.37-0.08-0.6-0.13c0.42,0.11,0.85,0.2,1.23,0.29
				C406.38,60.74,406.17,60.69,405.96,60.64z"/>
			<path class="st3" d="M370.55,30.2c-0.02-0.01-0.05-0.02-0.07-0.03c-0.38-0.18-0.76-0.37-1.14-0.55c0,0,0,0,0,0c0,0,0,0,0,0
				C369.74,29.81,370.14,30.01,370.55,30.2z"/>
			<path class="st3" d="M373.12,31.49c6.61,3.52,13.3,7.57,20.59,9.52c2.46,0.66,5.09,1.2,7.2,2.71c1.36,0.97,1.78,3.06,2.04,4.58
				c0.37,2.14,0.58,4.31,0.59,6.47c0.01,1.23-0.63,2.46-0.56,3.65c0.04,0.73,0.43,1.2,0.97,1.53c-0.21-0.16-0.36-0.36-0.36-0.61
				c0-0.42,0-0.85,0-1.27V55.5c0-2.23-0.15-4.45-0.5-6.66c-0.23-1.48-0.48-3.11-1.38-4.36c-1.06-1.47-3.22-2.14-4.87-2.64
				c-3.96-1.19-7.8-2.25-11.57-4.01c-3.83-1.78-7.5-3.87-11.21-5.87c-0.71-0.38-1.43-0.74-2.15-1.1c-0.18-0.09-0.36-0.18-0.54-0.27
				c-0.16-0.08-0.33-0.16-0.49-0.24C371.64,30.73,372.39,31.1,373.12,31.49z"/>
			<path class="st3" d="M55.46,186.14c-0.12-2.81-0.68-5.54-1.12-8.3c-0.58-3.63-0.93-7.56-2.51-10.93
				c-1.26-2.68-2.83-3.89-5.91-3.94c-2.42-0.04-4.87,0.05-7.29,0.13c-2.73,0.08-5.46,0.19-8.18,0.3c-1.13,0.04-2.4,0-3.06-1.1
				c-2.58-4.35-6.1-7.98-8.12-12.67c-2.07-4.82-4.89-9.37-7.25-14.06c-0.04,0.39-0.02,0.85,0.01,1.23c-0.23,1.59-0.09,3.54,0,5.15
				c-0.24,1.59-0.09,3.55,0,5.15c-0.12,0.79-0.04,1.77,0,2.58c-0.05,0.34-0.1,1.14,0.05,1.44c1.03,2.04,2.14,4.05,3.23,6.06
				c2.03,3.72,3.57,7.76,5.78,11.36c0.98,1.6,2.09,3.12,3.19,4.64c1.15,1.59,2.12,3.5,3.39,4.98c1.03,1.2,3.11,0.79,4.48,0.73
				c2.36-0.09,4.71-0.18,7.07-0.25c2.08-0.06,4.17-0.13,6.25-0.12c1.56,0.01,3.14,0.18,4.41,1.17c2.76,2.17,3.44,6.6,3.95,9.84
				c0.25,1.57,0.63,3.11,0.47,4.66C54.91,191.56,55.58,188.81,55.46,186.14z"/>
			<path class="st3" d="M12.71,134.72c-0.08,0.02-0.15,0.05-0.22,0.08c0.03,0,0.05,0,0.08,0C12.61,134.77,12.66,134.74,12.71,134.72
				z"/>
			<path class="st3" d="M372.45,133.46c-0.17-0.34-0.32-0.68-0.49-1.02c-0.6-1.26-1.17-2.53-1.74-3.8c-0.76-1.7-1.91-3.41-1.91-5.31
				c0-3.57,2.4-7.02,4.87-9.35c4.71-4.46,11.1-6.79,17.03-9.02c5.97-2.24,8.95-8.38,11.34-13.87c1.3-3,2.41-6.08,3.37-9.21
				c1.05-3.44,1.5-7.04,2.55-10.46c0.73-2.38,3.24-8.03,0.53-10.01c-0.23-0.17-0.48-0.32-0.79-0.43c-0.18-0.07-0.39-0.12-0.62-0.18
				c-0.38-0.09-0.8-0.18-1.23-0.29c-0.5-0.13-0.99-0.3-1.4-0.55c-0.54-0.33-0.93-0.8-0.97-1.53c-0.07-1.19,0.56-2.42,0.56-3.65
				c-0.01-2.17-0.23-4.34-0.59-6.47c-0.26-1.53-0.68-3.61-2.04-4.58c-2.11-1.51-4.74-2.05-7.2-2.71c-7.29-1.94-13.98-6-20.59-9.52
				c-0.74-0.39-1.49-0.76-2.24-1.13c-0.01,0-0.02-0.01-0.02-0.01c-0.09-0.04-0.18-0.09-0.27-0.13c-0.01-0.01-0.03-0.01-0.04-0.02
				c-0.4-0.2-0.81-0.39-1.22-0.58c-1.8-0.86-3.6-1.73-5.31-2.79c-0.1-0.07-0.21-0.13-0.31-0.2c-2.54-1.63-4.8-3.75-7.86-4.29
				c-0.11-0.02-0.21,0-0.29,0.04c-2.32-0.96-4.71-1.8-7.12-2.59c-3.06-0.99-6.14-1.9-9.19-2.91c-3.23-1.07-6.32-2.73-9.62-3.54
				c-0.18-0.04-0.36-0.08-0.53-0.11c-0.23-0.04-0.45-0.06-0.67-0.08c-0.06,0-0.12,0-0.17,0c-4.81-0.17-9.22,4.64-13.85,4.27
				c-0.95-0.08-1.9-0.37-2.88-0.97c-3.65-2.25-5.61-6.79-9.66-8.39c-0.06-0.03-0.13-0.05-0.19-0.07c-0.24-0.09-0.49-0.17-0.74-0.24
				c-1.06-0.27-1.87-0.38-2.86-0.92c-0.92-0.51-1.96-0.83-2.97-1.12c-2.68-0.78-5.55-0.98-8.32-1.16c-1.6-0.1-3.21-0.19-4.81-0.27
				c-0.07,0-0.14-0.01-0.22-0.01c-1.54-0.07-3.08-0.12-4.63-0.16c-0.27-0.01-0.55-0.01-0.82-0.01c-1.23-0.02-2.45-0.04-3.68-0.04
				c-0.38,0-0.77,0-1.15,0c-1.52,0.01-3.04,0.04-4.56,0.09c-7.89,0.28-15.72,0.65-23.61,0.23c-0.4-0.02-0.8-0.05-1.2-0.07
				c-7.46-0.43-14.9-1.14-22.38-1.17c-1.54-0.01-3.08-0.02-4.62-0.04c-1.61-0.02-3.23-0.04-4.84-0.07
				c-0.52-0.01-1.04-0.01-1.56-0.02c-4.42-0.08-8.83-0.21-13.24-0.38c-0.31-0.01-0.61-0.03-0.92-0.04
				c-1.88-0.08-3.77-0.16-5.65-0.26c-0.46-0.02-0.92-0.05-1.38-0.07c-1.77-0.1-3.55-0.2-5.32-0.31c-0.44-0.03-0.89-0.06-1.33-0.09
				c-1.9-0.13-3.81-0.27-5.71-0.42c-0.57-0.05-1.15-0.09-1.72-0.13c-0.18-0.02-0.36-0.03-0.55-0.04c-0.02,0-0.03,0-0.05,0
				c-6.08-0.51-12.26-0.6-17.73,2.41c-2.85,1.57-5.41,3.62-8.21,5.27c-1.82,1.08-3.84,2.22-5.94,2.72
				c-0.25,0.06-0.51,0.11-0.76,0.15c-0.15,0.02-0.3,0.05-0.46,0.06c-0.1,0.01-0.19,0.02-0.29,0.02c-0.09,0.01-0.17,0.01-0.26,0.02
				c-0.7,0.03-1.4-0.03-2.11-0.2c-2.96-0.73-5.67-3.05-8.13-4.75c-2.53-1.75-5.1-3.3-8.11-4.05c-0.28-0.07-0.56-0.12-0.85-0.17
				c-0.16-0.03-0.31-0.05-0.47-0.08c-0.23-0.03-0.46-0.05-0.7-0.07c-0.22-0.02-0.44-0.03-0.66-0.04c-0.21-0.01-0.41-0.02-0.62-0.01
				c-0.23,0-0.47,0.02-0.71,0.03c-0.43,0.02-0.86,0.06-1.29,0.11c-0.17,0.02-0.33,0.04-0.5,0.06c-0.24,0.04-0.47,0.08-0.71,0.13
				c-0.21,0.04-0.42,0.08-0.64,0.12c-0.18,0.04-0.36,0.08-0.54,0.12c-0.32,0.08-0.65,0.16-0.97,0.25c-0.06,0.02-0.11,0.03-0.17,0.05
				c-3.32,0.93-6.56,2.43-9.35,3.68c-0.06,0.03-0.13,0.06-0.19,0.09c-0.97,0.44-1.93,0.91-2.89,1.37c-2.45,1.17-4.88,2.38-7.3,3.63
				c-3.04,1.56-6.08,3.13-9.16,4.62c-0.63,0.31-1.26,0.63-1.89,0.94c-6.49,3.19-12.85,6.63-19.37,9.75
				c-0.29,0.14-0.58,0.27-0.87,0.41c-0.32,0.06-0.63,0.14-0.95,0.21c-0.22,0.05-0.45,0.09-0.67,0.15c-0.43,0.1-0.86,0.22-1.29,0.34
				c-0.06,0.02-0.13,0.04-0.19,0.06c-3.74,1.11-7.29,2.9-10.75,4.72c-0.88,0.46-1.75,0.92-2.61,1.37c-3.65,1.9-7.24,3.71-10.72,5.74
				c-0.26,0.15-0.51,0.3-0.76,0.45c-0.14,0.08-0.28,0.17-0.42,0.25c-1.88,1.13-3.73,2.33-5.54,3.66c-3.7,2.72-7.28,5.67-11.12,8.2
				c-0.14,0.09-0.27,0.18-0.41,0.27c-0.14,0.09-0.28,0.17-0.42,0.26c-1.12,0.71-2.25,1.39-3.42,2.01c-0.62,0.32-1.26,0.65-1.92,0.98
				c-2.04,1.03-4.18,2.14-5.89,3.64c-0.87,0.77-1.63,1.64-2.19,2.64c-0.05,0.09-0.1,0.17-0.15,0.26c-0.45,0.87-0.59,1.73-0.52,2.57
				c0.26,3.33,3.87,6.39,6.08,8.33c2.65,2.34,5.21,4.77,7.99,6.95c3.06,2.39,6.08,4.69,8.92,7.35c2.66,2.49,5.15,5.16,7.55,7.89
				c2.93,3.34,3.59,6.29,2.36,10.58c-0.54,1.88-1.28,3.74-2.17,5.55c-2.22,4.54-5.35,8.77-8.56,12.41
				c-1.48,1.68-3.05,3.28-4.62,4.87c-1.7,1.72-3.53,4.29-5.87,5.1c-0.01,0-0.01,0.01-0.02,0.01c-0.06,0.02-0.1,0.05-0.14,0.09
				c-0.03-0.01-0.05,0-0.08,0c-0.33-0.01-0.69,0.35-0.48,0.75c0,0,0,0,0,0.01c2.37,4.69,5.18,9.24,7.25,14.06
				c2.02,4.69,5.53,8.33,8.12,12.67c0.66,1.1,1.93,1.14,3.06,1.1c2.73-0.11,5.45-0.21,8.18-0.3c2.42-0.07,4.87-0.17,7.29-0.13
				c3.09,0.05,4.65,1.26,5.91,3.94c1.59,3.37,1.93,7.3,2.51,10.93c0.44,2.77,1,5.5,1.12,8.3c0.11,2.67-0.55,5.42-1.17,8.05
				c-0.1,0.4-0.19,0.81-0.28,1.2c-0.51,2.21-1.14,4.29-1.92,6.27c0,0,0,0,0,0c3.44-1.29,7.13-0.71,9.84-0.69
				c4.71,0.04,9.4,0.21,14.08,0.7c9.47,1,18.82,2.78,28.21,4.34c8.25,1.37,16.8,3.51,25.2,3.24c0.41-0.01,0.81-0.03,1.22-0.04
				l-2.65-5.93c-0.27-0.6,0.08-1.11,0.56-1.3c0.05-0.04,0.09-0.08,0.16-0.11l10.65-4.76c0.07-0.03,0.13-0.03,0.2-0.04
				c0.46-0.23,1.07-0.16,1.35,0.45l4.96,11.09c7.3-3.21,11.62-11.64,12.24-19.66c0.49-6.43-1.01-12.78-1.25-19.19
				c-0.22-5.83,0.63-11.4,3.56-16.52c2.62-4.57,6.11-9.06,10.6-11.93c4.98-3.17,10.84-4.66,15.78-7.88
				c4.39-2.86,9.58-7.47,10.38-12.95c0.37-2.52-0.02-4.79-0.87-7.02h-10.3c-0.66,0-0.98-0.53-0.96-1.04
				c-0.01-0.07-0.04-0.12-0.04-0.19v-11.67c0-0.08,0.03-0.13,0.04-0.2c-0.02-0.51,0.3-1.04,0.96-1.04h8
				c-0.23-3.09-0.42-6.19-1.23-9.24c-1-3.73-1.86-7.51-2.92-11.22c-0.92-3.2-1.49-6.83-3.23-9.71c-0.03-0.05-0.06-0.08-0.09-0.13
				c-4,2.58-9.39,3.13-13.82,4.06c-7.17,1.5-14.54,2.02-21.83,1.14c-3.5-0.42-7.13-0.79-10.58-1.65c-1.57-0.39-4.19-1.03-4.97-2.99
				c-1.49-3.78,2.16-9.1,3.9-11.92c2.42-3.93,4.68-7.85,6.94-11.91c0.98-1.77,1.93-3.57,2.89-5.36c0,0,0,0,0,0
				c0.01-0.02,0.02-0.03,0.03-0.05c0.33-0.62,0.67-1.24,1-1.86c0.16-0.29,0.31-0.58,0.47-0.87c0.5-0.92,1.01-1.83,1.54-2.74
				c2.63-4.52,5.27-10.51,9.66-13.11c4.63-4.35,9.8,6.22,11.8,11.25c1.66-3.23,3.22-6.53,4.96-9.72c2.35-4.31,4.63-9.94,8.85-12.63
				c4.79-4.72,11.31,6.9,13.02,10.51c3.01,6.38,6.21,12.56,10.02,18.4c0.41-0.56,0.82-1.13,1.24-1.68
				c2.83-3.72,5.75-8.68,10.26-10.71c5.31-3.84,10.43,7.59,11.71,11.11c0.46,1.28,0.94,2.55,1.43,3.82
				c0.07,0.18,0.14,0.37,0.21,0.55c0.5,1.3,1.02,2.59,1.55,3.87c1.75,4.2,3.69,8.3,5.98,12.28c1.3,2.27,5.59,7.35,1.77,9.26
				c-4.12,2.07-9.59,2.32-14.1,2.94c-7.23,0.99-14.62,1.14-21.86,0.11c-3.47-0.5-7.08-0.95-10.49-1.81
				c-1.44-0.36-3.76-0.95-4.63-2.39c0.02,1.37,0.36,2.69,0.82,4.01c2.37,6.7,6.31,12.81,8.25,19.64c0.82,2.88,1.39,5.83,2.06,8.75
				h17.96c0.68,0,0.99,0.55,0.96,1.07c0,0.02,0.01,0.03,0.01,0.05v11.3c0,0.13-0.03,0.23-0.07,0.33c0.21,0.59-0.08,1.38-0.9,1.38
				h-15.03c0.41,3.54,0.4,7.38-0.39,10.78c-1.34,5.74-5.01,10.31-9.39,14.11c-3.92,3.4-8.32,5.72-12.96,7.98
				c-4.65,2.27-9.7,4.63-13.11,8.66c-4.65,5.48-5.51,13.34-5.71,20.26c-0.22,7.56,0.73,15.2,0.14,22.74
				c-0.49,6.27-2.4,11.98-6.27,16.99c-2.2,2.85-5.42,4.26-8.6,5.74l4.55,10.18c0.28,0.62-0.1,1.12-0.59,1.31
				c-0.02,0.01-0.02,0.02-0.04,0.03l-10.32,4.62c-0.12,0.05-0.23,0.06-0.33,0.07c-0.45,0.43-1.3,0.49-1.63-0.26l-5.87-13.13
				c-6.25,0.55-12.53,0.86-18.79,1.21c-9.8,0.53-19.44-0.22-29.22-0.28c-9.2-0.05-18.24-1.71-27.43-2.15
				c-8.91-0.43-18.88-0.14-26.73,4.6c-0.01,0-0.01,0-0.02,0.01c-3.07,3.9-6.51,7.46-10.23,10.82c-2.08,1.88-4.19,3.67-6.33,5.47
				c-1.97,1.66-2,3.56-2.44,5.96c-0.6,3.3-1.8,6.63-2.6,9.9c-0.73,2.95-1.78,5.74-2.63,8.64c-0.26,0.88-0.3,1.66-0.19,2.39
				c0.18,1.15,0.74,2.19,1.45,3.38c0.84,1.4,1.81,2.71,2.63,4.12c0.93,1.62,1.56,3.51,2.32,5.22c0.08,0.17,0.21,0.24,0.34,0.25
				c1.05,3.29,1.58,6.84,2.57,10.16c2.24,7.54,4.4,14.92,5.81,22.67c0.67,3.68,1.24,7.38,1.76,11.08c0.29,2.08,0.54,4.17,0.79,6.25
				c0.22,1.89,0.12,3.68,0.62,5.53c0.06,0.21,0.26,0.37,0.48,0.37c7.81-0.04,15.57-1.06,23.36-1.46c7.86-0.4,15.56,0.32,23.21,2.14
				c7.38,1.75,14.61,4.39,21.36,7.83c6.46,3.29,12.62,7.12,19.19,10.21c11.6,5.46,24.57,6.93,34.57,15.59
				c5.74,4.97,8.73,11.47,11.99,18.15c2.07,4.24,4.5,8.6,7.18,12.48c0.73,1.06,1.73,2.58,3.01,3.04c0.84,0.3,1.73,0.38,2.62,0.34
				c1.05-0.04,2.12-0.24,3.13-0.45c5.46-1.09,10.59-3.33,16.08-4.39c7.49-1.45,15.02-1.66,22.62-1.75
				c3.47-0.04,9.15,0.05,11.28-3.35c0.81-1.29,0.83-3.06,0.89-4.52c0.09-2.34,0.14-4.67,0.23-7c0.06-1.46,0.14-2.93,0.27-4.39
				c0.73-8.04,2.26-15.97,3.36-23.96c2.05-14.9,4.15-30.12,10.54-43.89c3.2-6.9,6.47-14.06,11.39-19.93
				c3.17-3.78,8.18-7.48,9.49-12.49c3.05-2.03,6.94-2.83,10.46-3.54c4.76-0.96,9.61-1.46,14.45-1.75
				c11.34-0.68,22.72,0.13,34.05,0.69c5.34,0.26,10.69,0.58,16.04,0.23c5.77-0.37,11.37-0.88,17.16-0.66
				c5.75,0.22,11.5,0.43,17.25,0.69c2.7,0.12,5.33,0.4,8,0.86c1.7,0.3,3.38,0.43,5.04-0.08c0.23,0.37,0.92,0.28,0.92-0.26
				c0-3.25-0.27-6.44-1.05-9.59c-0.6-2.42-1.65-4.76-2.79-7.05c-0.84-1.67-1.72-3.32-2.52-4.95c-2.06-4.19-4.35-8.1-5.25-12.73
				c-0.82-4.25-0.58-8.69-0.19-12.98c0.83-8.98,3.14-16.94,7.62-24.79c2.28-4,4.61-7.91,6.53-12.1c1.22-2.67,1.96-5.61,3.38-8.19
				c0.61-0.59,1.48-1.34,1.47-2c-0.02-1.85-0.11-3.68-0.3-5.52c-0.37-3.66-1.27-7.24-2.41-10.72c-0.09-0.27-0.2-0.53-0.29-0.79
				c-0.83-2.34-1.9-4.56-3.12-6.71c-1.82-3.19-3.97-6.22-6.15-9.17C379.29,144.85,375.45,139.48,372.45,133.46z M82.69,48.27
				c-0.03,0.05-0.08,0.11-0.13,0.15c-0.23,0.17-0.46,0.33-0.7,0.47c-0.07-0.02-0.72,0.12-1.71,0.28c1.37,2.41,3.11,4.36,4.59,6.71
				c0.21,0.34,0.05,0.66-0.21,0.81c-0.04,0.07-0.09,0.13-0.17,0.18c-0.28,0.21-0.57,0.4-0.86,0.57c-0.09-0.02-0.8,0.13-1.91,0.32
				c1.53,2.48,3.36,4.6,4.94,7.1c0.25,0.4,0.06,0.77-0.25,0.96c-0.05,0.08-0.11,0.15-0.19,0.22c-0.33,0.25-0.67,0.47-1.01,0.68
				c-0.2-0.05-3.1,0.64-6.99,1.01c0,1.09-0.04,2.18,0.14,3.24c0.11,0.62,0.47,1.86-0.21,2.3c-0.89,0.58-2.11,0.23-3.1,0.2
				c-0.97-0.02-2.78,0.17-3.41-0.82c-0.61-0.95-0.03-2.54,0.1-3.52c0.05-0.36,0.06-0.8,0.09-1.23c-2.11-0.11-4.26-0.42-6.24-1.04
				c-0.34-0.07-0.67-0.13-1-0.19c-0.33-0.06-0.65-0.12-0.97-0.18c-0.17-0.03-0.28-0.1-0.36-0.2c-0.32-0.18-0.52-0.56-0.25-0.96
				c1.59-2.42,2.88-5.11,4.31-7.68c-0.11-0.03-0.22-0.05-0.33-0.09c-0.29-0.06-0.57-0.11-0.84-0.16c-0.28-0.05-0.55-0.1-0.82-0.15
				c-0.14-0.02-0.23-0.09-0.31-0.17c-0.27-0.15-0.44-0.48-0.22-0.81c1.49-2.27,2.67-4.82,4.04-7.19c-0.12-0.04-0.25-0.06-0.38-0.1
				c-0.23-0.05-0.46-0.09-0.69-0.13c-0.23-0.04-0.45-0.08-0.67-0.12c-0.11-0.02-0.19-0.07-0.25-0.14c-0.22-0.12-0.36-0.39-0.18-0.66
				c1.28-1.95,2.28-4.17,3.48-6.19c1.23-2.08,2.5-4.14,3.68-6.24c0.08-0.14,0.19-0.21,0.3-0.23c0.22-0.17,0.56-0.19,0.75,0.11
				c1.35,2.1,2.92,4.05,4.08,6.28c1.15,2.21,2.71,3.89,4.02,5.97C83.03,47.89,82.9,48.15,82.69,48.27z M41.61,90.14
				c1.59-2.42,2.88-5.11,4.31-7.68c-0.11-0.03-0.22-0.05-0.33-0.09c-0.29-0.06-0.57-0.11-0.84-0.16c-0.28-0.05-0.55-0.1-0.82-0.15
				c-0.14-0.02-0.23-0.09-0.31-0.17c-0.27-0.15-0.44-0.48-0.22-0.81c1.49-2.27,2.67-4.82,4.04-7.19c-0.12-0.04-0.25-0.06-0.38-0.1
				c-0.23-0.05-0.46-0.09-0.69-0.13c-0.23-0.04-0.45-0.08-0.67-0.12c-0.11-0.02-0.19-0.07-0.25-0.14c-0.22-0.12-0.36-0.39-0.18-0.66
				c1.28-1.95,2.28-4.17,3.48-6.19c1.23-2.08,2.5-4.14,3.68-6.24c0.08-0.14,0.19-0.21,0.3-0.23c0.22-0.17,0.56-0.19,0.75,0.11
				c1.35,2.1,2.92,4.05,4.08,6.28c1.15,2.21,2.71,3.89,4.02,5.97c0.17,0.27,0.04,0.53-0.17,0.66c-0.03,0.05-0.08,0.11-0.13,0.15
				c-0.23,0.17-0.46,0.33-0.7,0.47c-0.07-0.02-0.72,0.12-1.71,0.28c1.37,2.41,3.11,4.36,4.59,6.71c0.21,0.34,0.05,0.66-0.21,0.81
				c-0.04,0.07-0.09,0.13-0.16,0.18c-0.28,0.21-0.57,0.4-0.86,0.57c-0.09-0.02-0.8,0.13-1.91,0.32c1.53,2.48,3.36,4.6,4.94,7.1
				c0.25,0.4,0.06,0.77-0.25,0.96c-0.05,0.08-0.11,0.15-0.19,0.22c-0.33,0.25-0.67,0.47-1.01,0.68c-0.2-0.05-3.1,0.64-6.99,1.01
				c0,1.09-0.04,2.18,0.14,3.24c0.11,0.62,0.47,1.86-0.21,2.3c-0.89,0.58-2.11,0.23-3.1,0.2c-0.97-0.02-2.78,0.17-3.41-0.82
				c-0.61-0.95-0.03-2.54,0.1-3.52c0.05-0.36,0.06-0.8,0.09-1.23c-2.11-0.11-4.26-0.42-6.24-1.04c-0.34-0.07-0.67-0.13-1-0.19
				c-0.33-0.06-0.65-0.12-0.97-0.18c-0.17-0.03-0.28-0.1-0.36-0.2C41.54,90.92,41.35,90.54,41.61,90.14z M107.98,84.58
				c-0.61-0.95-0.03-2.54,0.1-3.52c0.05-0.36,0.06-0.8,0.09-1.23c-2.11-0.11-4.26-0.42-6.24-1.04c-0.34-0.07-0.67-0.13-1-0.19
				c-0.33-0.06-0.65-0.12-0.97-0.18c-0.17-0.03-0.28-0.1-0.36-0.2c-0.32-0.18-0.52-0.56-0.25-0.96c1.59-2.42,2.88-5.11,4.31-7.68
				c-0.11-0.03-0.22-0.05-0.33-0.09c-0.29-0.06-0.57-0.11-0.84-0.16c-0.28-0.05-0.55-0.1-0.82-0.15c-0.14-0.02-0.23-0.09-0.31-0.17
				c-0.27-0.15-0.44-0.48-0.22-0.81c1.49-2.27,2.67-4.82,4.04-7.19c-0.12-0.04-0.25-0.06-0.38-0.1c-0.23-0.05-0.46-0.09-0.69-0.13
				c-0.23-0.04-0.45-0.08-0.67-0.12c-0.11-0.02-0.19-0.07-0.25-0.14c-0.22-0.12-0.36-0.39-0.18-0.66c1.28-1.95,2.28-4.17,3.48-6.19
				c1.23-2.08,2.5-4.14,3.68-6.24c0.08-0.14,0.19-0.21,0.3-0.23c0.22-0.17,0.56-0.19,0.75,0.11c1.35,2.1,2.92,4.05,4.08,6.28
				c1.15,2.21,2.71,3.89,4.02,5.97c0.17,0.27,0.04,0.53-0.17,0.66c-0.03,0.05-0.08,0.11-0.13,0.15c-0.23,0.17-0.46,0.33-0.7,0.47
				c-0.07-0.02-0.72,0.12-1.71,0.28c1.37,2.41,3.11,4.36,4.59,6.71c0.21,0.34,0.05,0.66-0.21,0.81c-0.04,0.07-0.09,0.13-0.16,0.18
				c-0.28,0.21-0.57,0.4-0.86,0.57c-0.09-0.02-0.8,0.13-1.91,0.32c1.53,2.48,3.36,4.6,4.94,7.1c0.25,0.4,0.06,0.77-0.25,0.96
				c-0.05,0.08-0.11,0.15-0.19,0.22c-0.33,0.25-0.67,0.47-1.01,0.68c-0.2-0.05-3.1,0.64-6.99,1.01c0,1.09-0.04,2.18,0.14,3.24
				c0.11,0.62,0.47,1.86-0.21,2.3c-0.89,0.58-2.11,0.23-3.1,0.2C110.43,85.38,108.62,85.58,107.98,84.58z M44.47,255.85
				c-0.33-0.06-0.65-0.12-0.97-0.18c-0.17-0.03-0.28-0.11-0.36-0.2c-0.32-0.18-0.52-0.56-0.25-0.96c1.59-2.42,2.88-5.11,4.31-7.68
				c-0.11-0.03-0.22-0.05-0.33-0.09c-0.29-0.06-0.57-0.11-0.84-0.16c-0.28-0.05-0.55-0.1-0.82-0.15c-0.14-0.02-0.23-0.09-0.31-0.17
				c-0.27-0.15-0.44-0.47-0.22-0.81c1.49-2.27,2.67-4.82,4.04-7.19c-0.12-0.04-0.25-0.06-0.38-0.1c-0.23-0.05-0.46-0.09-0.69-0.13
				c-0.23-0.04-0.45-0.08-0.67-0.12c-0.11-0.02-0.19-0.07-0.25-0.14c-0.22-0.12-0.36-0.39-0.18-0.66c1.28-1.95,2.28-4.17,3.48-6.19
				c1.23-2.08,2.5-4.14,3.68-6.24c0.08-0.14,0.19-0.21,0.3-0.23c0.22-0.17,0.56-0.19,0.75,0.11c1.35,2.1,2.92,4.05,4.08,6.28
				c1.15,2.21,2.71,3.89,4.02,5.97c0.17,0.27,0.04,0.53-0.17,0.66c-0.03,0.05-0.08,0.11-0.13,0.15c-0.23,0.17-0.46,0.33-0.7,0.47
				c-0.07-0.02-0.72,0.12-1.71,0.28c1.37,2.41,3.11,4.36,4.59,6.71c0.21,0.34,0.05,0.66-0.21,0.81c-0.04,0.07-0.09,0.13-0.17,0.18
				c-0.28,0.21-0.57,0.4-0.86,0.57c-0.09-0.02-0.8,0.13-1.91,0.32c1.53,2.48,3.36,4.6,4.94,7.1c0.25,0.4,0.06,0.77-0.25,0.96
				c-0.05,0.08-0.11,0.15-0.19,0.22c-0.33,0.25-0.67,0.47-1.01,0.68c-0.2-0.05-3.1,0.64-6.99,1.01c0,1.09-0.04,2.18,0.14,3.24
				c0.11,0.62,0.47,1.86-0.21,2.29c-0.89,0.58-2.11,0.23-3.1,0.2c-0.97-0.02-2.78,0.17-3.41-0.82c-0.61-0.95-0.03-2.54,0.1-3.52
				c0.05-0.36,0.06-0.8,0.09-1.23c-2.11-0.11-4.26-0.42-6.24-1.04C45.13,255.98,44.79,255.91,44.47,255.85z M156.68,333.48
				c-0.05,0.08-0.11,0.15-0.19,0.22c-0.33,0.25-0.67,0.47-1.01,0.68c-0.2-0.05-3.1,0.64-6.99,1.01c0,1.09-0.04,2.18,0.14,3.24
				c0.11,0.62,0.47,1.86-0.21,2.29c-0.89,0.58-2.11,0.23-3.1,0.2c-0.97-0.02-2.78,0.17-3.41-0.82c-0.61-0.95-0.03-2.54,0.1-3.52
				c0.05-0.36,0.06-0.8,0.09-1.23c-2.11-0.11-4.26-0.42-6.24-1.04c-0.34-0.07-0.67-0.13-1-0.19c-0.33-0.06-0.65-0.12-0.97-0.18
				c-0.17-0.03-0.28-0.11-0.36-0.2c-0.32-0.18-0.52-0.56-0.25-0.96c1.59-2.42,2.88-5.11,4.31-7.68c-0.11-0.03-0.22-0.05-0.33-0.09
				c-0.29-0.06-0.57-0.11-0.84-0.16c-0.28-0.05-0.55-0.1-0.82-0.15c-0.14-0.02-0.23-0.09-0.31-0.17c-0.27-0.15-0.44-0.47-0.22-0.81
				c1.49-2.27,2.67-4.82,4.04-7.19c-0.12-0.04-0.25-0.06-0.38-0.1c-0.23-0.05-0.46-0.09-0.69-0.13c-0.23-0.04-0.45-0.08-0.67-0.12
				c-0.11-0.02-0.19-0.07-0.25-0.14c-0.22-0.12-0.36-0.39-0.18-0.66c1.28-1.95,2.28-4.17,3.48-6.19c1.23-2.08,2.5-4.14,3.68-6.24
				c0.08-0.14,0.19-0.21,0.3-0.23c0.22-0.17,0.56-0.19,0.75,0.11c1.35,2.1,2.92,4.05,4.08,6.28c1.15,2.21,2.71,3.89,4.02,5.97
				c0.17,0.27,0.04,0.53-0.17,0.66c-0.03,0.05-0.08,0.11-0.13,0.15c-0.23,0.17-0.46,0.33-0.7,0.47c-0.07-0.02-0.72,0.12-1.71,0.28
				c1.37,2.41,3.11,4.36,4.59,6.71c0.21,0.34,0.05,0.66-0.21,0.81c-0.04,0.07-0.09,0.13-0.17,0.18c-0.28,0.21-0.57,0.4-0.86,0.57
				c-0.09-0.02-0.8,0.13-1.91,0.32c1.53,2.48,3.36,4.6,4.94,7.1C157.18,332.92,156.99,333.3,156.68,333.48z M336.31,149.96
				c1.59-2.42,2.88-5.11,4.31-7.68c-0.11-0.03-0.22-0.05-0.33-0.09c-0.29-0.06-0.57-0.11-0.84-0.16c-0.28-0.05-0.55-0.1-0.82-0.15
				c-0.14-0.02-0.23-0.09-0.31-0.17c-0.27-0.15-0.44-0.48-0.22-0.81c1.49-2.27,2.67-4.82,4.04-7.19c-0.12-0.04-0.25-0.06-0.38-0.1
				c-0.23-0.05-0.46-0.09-0.69-0.13c-0.23-0.04-0.45-0.08-0.67-0.12c-0.11-0.02-0.19-0.07-0.25-0.14c-0.22-0.12-0.36-0.39-0.18-0.66
				c1.28-1.95,2.28-4.17,3.48-6.19c1.23-2.08,2.5-4.14,3.68-6.24c0.08-0.14,0.19-0.21,0.3-0.23c0.22-0.17,0.56-0.19,0.75,0.11
				c1.35,2.1,2.92,4.05,4.08,6.28c1.15,2.21,2.71,3.89,4.02,5.97c0.17,0.27,0.04,0.53-0.17,0.66c-0.03,0.05-0.08,0.11-0.13,0.15
				c-0.23,0.17-0.46,0.33-0.7,0.47c-0.07-0.02-0.72,0.12-1.71,0.28c1.37,2.41,3.11,4.36,4.59,6.71c0.21,0.34,0.05,0.66-0.21,0.81
				c-0.04,0.07-0.09,0.13-0.17,0.18c-0.28,0.21-0.57,0.4-0.86,0.57c-0.09-0.02-0.8,0.13-1.91,0.32c1.53,2.48,3.36,4.6,4.94,7.1
				c0.25,0.4,0.06,0.77-0.25,0.96c-0.05,0.08-0.11,0.15-0.19,0.22c-0.33,0.25-0.67,0.47-1.01,0.68c-0.2-0.05-3.1,0.64-6.99,1.01
				c0,1.09-0.04,2.18,0.14,3.24c0.11,0.62,0.47,1.86-0.21,2.3c-0.89,0.58-2.11,0.23-3.1,0.2c-0.97-0.02-2.78,0.17-3.41-0.82
				c-0.61-0.95-0.03-2.54,0.1-3.52c0.05-0.36,0.06-0.8,0.09-1.23c-2.11-0.11-4.26-0.42-6.24-1.04c-0.34-0.07-0.67-0.13-1-0.19
				c-0.33-0.06-0.65-0.12-0.97-0.18c-0.17-0.03-0.28-0.1-0.36-0.2C336.24,150.74,336.05,150.36,336.31,149.96z M311.65,58.89
				c4.86-2.81,12.99-7.54,18.84-1.71c0.73,0.73,1.13,2.14,0.91,3.07c1.17,5.65-3.07,11.89-6.09,15.16
				c-4.18,4.51-12.47,5.07-17.54-1.1C302.28,67.65,306.25,62.01,311.65,58.89z M292.35,74.73c0.54-0.51,1.12-0.93,1.74-1.27
				c1.34-0.92,2.78-1.48,4.57-0.97c0.71,0.2,1.31,0.57,1.84,1.03c0.9,0.64,1.59,1.57,2.08,2.6c0,0,0,0,0,0c0,0,0,0,0,0
				c0.11,0.23,0.21,0.47,0.3,0.72c0.57,1.53-0.62,3.29-2.09,3.69c-1.35,0.37-2.64-0.25-3.39-1.38c-0.11-0.17-0.22-0.33-0.33-0.5
				c-0.12,0.11-0.24,0.21-0.37,0.32c-0.49,0.42-1.06,0.69-1.64,0.8c-0.08,0.02-0.16,0.02-0.24,0.03c-0.09,0.01-0.18,0.03-0.27,0.03
				c-0.79,0.03-1.59-0.24-2.2-0.86C291.22,77.84,291.16,75.86,292.35,74.73z M272.51,53.25c0.14-0.8,0.93-1.75,1.74-2.07
				c6.5-2.51,11.2,3.97,14.01,7.83c3.12,4.29,4.29,10.04-2.21,13.31c-6.02,3.03-12.25-0.26-13.96-5.21
				C270.86,63.54,269.69,57.23,272.51,53.25z M380.45,173.63c-0.05,0.08-0.11,0.15-0.19,0.22c-0.33,0.25-0.67,0.47-1.01,0.68
				c-0.2-0.05-3.1,0.64-6.99,1.01c0,1.09-0.04,2.18,0.14,3.24c0.11,0.62,0.47,1.86-0.21,2.3c-0.89,0.58-2.11,0.23-3.1,0.2
				c-0.97-0.02-2.78,0.17-3.41-0.82c-0.61-0.95-0.03-2.54,0.1-3.52c0.05-0.36,0.06-0.8,0.09-1.23c-2.11-0.11-4.26-0.42-6.24-1.04
				c-0.34-0.07-0.67-0.13-1-0.19c-0.33-0.06-0.65-0.12-0.97-0.18c-0.17-0.03-0.28-0.1-0.36-0.2c-0.32-0.18-0.52-0.56-0.25-0.96
				c1.59-2.42,2.88-5.11,4.31-7.68c-0.11-0.03-0.22-0.05-0.33-0.09c-0.29-0.06-0.57-0.11-0.84-0.16c-0.28-0.05-0.55-0.1-0.82-0.15
				c-0.14-0.02-0.23-0.09-0.31-0.17c-0.27-0.15-0.44-0.48-0.22-0.81c1.49-2.27,2.67-4.82,4.04-7.19c-0.12-0.04-0.25-0.06-0.38-0.1
				c-0.23-0.05-0.46-0.09-0.69-0.13c-0.23-0.04-0.45-0.08-0.67-0.12c-0.11-0.02-0.19-0.07-0.25-0.14c-0.22-0.12-0.36-0.39-0.18-0.66
				c1.28-1.95,2.28-4.17,3.48-6.19c1.23-2.08,2.5-4.14,3.68-6.24c0.08-0.14,0.19-0.21,0.3-0.23c0.22-0.17,0.56-0.19,0.75,0.11
				c1.35,2.1,2.92,4.05,4.08,6.28c1.15,2.21,2.71,3.89,4.02,5.97c0.17,0.27,0.04,0.53-0.17,0.66c-0.03,0.05-0.08,0.11-0.13,0.15
				c-0.23,0.17-0.46,0.33-0.7,0.47c-0.07-0.02-0.72,0.12-1.71,0.28c1.37,2.41,3.11,4.36,4.59,6.71c0.21,0.34,0.05,0.66-0.21,0.81
				c-0.04,0.07-0.09,0.13-0.17,0.18c-0.28,0.21-0.57,0.4-0.86,0.57c-0.09-0.02-0.8,0.13-1.91,0.32c1.53,2.48,3.36,4.6,4.94,7.1
				C380.94,173.07,380.76,173.45,380.45,173.63z"/>
			<path class="st3" d="M61.62,222.34c9.19,0.45,18.23,2.1,27.43,2.15c9.78,0.06,19.42,0.81,29.22,0.28
				c6.27-0.34,12.54-0.66,18.79-1.21l-6.42-14.34c-0.41,0.01-0.81,0.03-1.22,0.04c-8.4,0.26-16.95-1.87-25.2-3.24
				c-9.39-1.56-18.74-3.34-28.21-4.34c-4.69-0.49-9.37-0.66-14.08-0.7c-2.72-0.02-6.4-0.6-9.84,0.69c0,0,0,0,0,0
				c-3.44,1.29-4.13,7.27-6.78,10.66c-1.88,2.4-4.06,4.54-6.01,6.88c-0.84,1.01-1.59,2.08-2.3,3.18c-0.7,1.1-1.07,2.83-1.98,3.75
				c-0.39,0.4-0.62,1.08-0.16,0.81c0.01,0,0.01,0,0.02-0.01C42.73,222.2,52.71,221.91,61.62,222.34z"/>
			<path class="st3" d="M159.89,215c3.87-5.02,5.78-10.73,6.27-16.99c0.59-7.54-0.36-15.18-0.14-22.74
				c0.2-6.93,1.06-14.78,5.71-20.26c3.42-4.03,8.46-6.39,13.11-8.66c4.64-2.26,9.04-4.58,12.96-7.98c4.38-3.8,8.05-8.37,9.39-14.11
				c0.79-3.4,0.8-7.24,0.39-10.78h-11.26c0.84,2.23,1.23,4.5,0.87,7.02c-0.81,5.49-5.99,10.09-10.38,12.95
				c-4.94,3.22-10.8,4.71-15.78,7.88c-4.5,2.86-7.98,7.36-10.6,11.93c-2.93,5.12-3.78,10.68-3.56,16.52
				c0.24,6.41,1.74,12.75,1.25,19.19c-0.62,8.02-4.94,16.44-12.24,19.66l5.43,12.13C154.47,219.26,157.7,217.85,159.89,215z"/>
			<path class="st3" d="M202.58,90.59c-1.94-6.83-5.88-12.94-8.25-19.64c-0.46-1.31-0.8-2.64-0.82-4.01
				c-0.07-0.11-0.14-0.21-0.19-0.33c-0.95-2.35,0.82-5.27,2.58-7.59c-3.58,0.45-7.16,0.45-10.81,0.33c1.79,2.9,4.77,7.52,1.56,9.63
				c-0.03,0.02-0.07,0.04-0.1,0.06c0.03,0.05,0.06,0.08,0.09,0.13c1.75,2.88,2.32,6.51,3.23,9.71c1.07,3.72,1.92,7.49,2.92,11.22
				c0.82,3.05,1.01,6.15,1.23,9.24h10.62C203.97,96.42,203.4,93.47,202.58,90.59z"/>
			<path class="st3" d="M51.7,257.08c-0.02,0.44-0.04,0.87-0.09,1.23c-0.13,0.99-0.71,2.58-0.1,3.52c0.64,0.99,2.45,0.8,3.41,0.82
				c1,0.02,2.21,0.38,3.1-0.2c0.68-0.44,0.31-1.68,0.21-2.29c-0.18-1.06-0.14-2.15-0.14-3.24C56.14,257.11,53.94,257.2,51.7,257.08z
				"/>
			<path class="st3" d="M58.1,256.92c3.89-0.36,6.79-1.05,6.99-1.01c0.34-0.2,0.68-0.43,1.01-0.68c0.09-0.06,0.15-0.14,0.19-0.22
				c0.31-0.18,0.5-0.56,0.25-0.96c-1.58-2.5-3.41-4.62-4.94-7.1c1.11-0.19,1.82-0.34,1.91-0.32c0.29-0.17,0.58-0.36,0.86-0.57
				c0.07-0.05,0.12-0.12,0.17-0.18c0.26-0.16,0.42-0.48,0.21-0.81c-1.48-2.35-3.22-4.3-4.59-6.71c0.99-0.17,1.63-0.3,1.71-0.28
				c0.24-0.14,0.47-0.3,0.7-0.47c0.06-0.04,0.1-0.1,0.13-0.15c0.21-0.13,0.34-0.39,0.17-0.66c-1.31-2.08-2.87-3.76-4.02-5.97
				c-1.16-2.23-2.73-4.18-4.08-6.28c-0.19-0.3-0.53-0.27-0.75-0.11c-0.12,0.03-0.23,0.1-0.3,0.23c-1.18,2.11-2.45,4.17-3.68,6.24
				c-1.2,2.02-2.19,4.24-3.48,6.19c-0.18,0.27-0.05,0.54,0.18,0.66c0.06,0.06,0.13,0.12,0.25,0.14c0.22,0.04,0.44,0.08,0.67,0.12
				c0.23,0.04,0.45,0.09,0.69,0.13c0.12,0.04,0.25,0.07,0.38,0.1c-1.37,2.37-2.55,4.92-4.04,7.19c-0.22,0.34-0.06,0.66,0.22,0.81
				c0.07,0.08,0.17,0.14,0.31,0.17c0.27,0.05,0.54,0.1,0.82,0.15c0.28,0.05,0.56,0.11,0.84,0.16c0.11,0.03,0.22,0.06,0.33,0.09
				c-1.43,2.56-2.72,5.26-4.31,7.68c-0.26,0.4-0.07,0.78,0.25,0.96c0.08,0.09,0.19,0.17,0.36,0.2c0.32,0.05,0.64,0.11,0.97,0.18
				c0.33,0.06,0.66,0.12,1,0.19c1.98,0.62,4.13,0.93,6.24,1.04C53.94,257.2,56.14,257.11,58.1,256.92z"/>
			<path class="st3" d="M142.09,335.54c-0.02,0.44-0.04,0.87-0.09,1.23c-0.13,0.99-0.71,2.58-0.1,3.52c0.64,0.99,2.45,0.8,3.41,0.82
				c1,0.02,2.21,0.38,3.1-0.2c0.68-0.44,0.31-1.68,0.21-2.29c-0.18-1.06-0.14-2.15-0.14-3.24
				C146.53,335.57,144.32,335.66,142.09,335.54z"/>
			<path class="st3" d="M151.99,325.42c1.11-0.19,1.82-0.34,1.91-0.32c0.29-0.17,0.58-0.36,0.86-0.57c0.07-0.05,0.12-0.12,0.17-0.18
				c0.26-0.16,0.42-0.48,0.21-0.81c-1.48-2.35-3.22-4.3-4.59-6.71c0.99-0.17,1.63-0.3,1.71-0.28c0.24-0.14,0.47-0.3,0.7-0.47
				c0.06-0.04,0.1-0.1,0.13-0.15c0.21-0.13,0.34-0.39,0.17-0.66c-1.31-2.08-2.87-3.76-4.02-5.97c-1.16-2.23-2.73-4.18-4.08-6.28
				c-0.19-0.3-0.53-0.27-0.75-0.11c-0.12,0.03-0.23,0.1-0.3,0.23c-1.18,2.11-2.45,4.17-3.68,6.24c-1.2,2.02-2.19,4.24-3.48,6.19
				c-0.18,0.27-0.05,0.54,0.18,0.66c0.06,0.06,0.13,0.12,0.25,0.14c0.22,0.04,0.44,0.08,0.67,0.12c0.23,0.04,0.45,0.09,0.69,0.13
				c0.12,0.04,0.25,0.07,0.38,0.1c-1.37,2.37-2.55,4.92-4.04,7.19c-0.22,0.34-0.06,0.66,0.22,0.81c0.07,0.08,0.17,0.14,0.31,0.17
				c0.27,0.05,0.54,0.1,0.82,0.15c0.28,0.05,0.56,0.11,0.84,0.16c0.11,0.03,0.22,0.06,0.33,0.09c-1.43,2.56-2.72,5.26-4.31,7.68
				c-0.26,0.4-0.07,0.78,0.25,0.96c0.08,0.09,0.19,0.17,0.36,0.2c0.32,0.05,0.64,0.11,0.97,0.18c0.33,0.06,0.66,0.12,1,0.19
				c1.98,0.62,4.13,0.93,6.24,1.04c2.24,0.12,4.44,0.02,6.4-0.16c3.89-0.36,6.79-1.05,6.99-1.01c0.34-0.2,0.68-0.43,1.01-0.68
				c0.09-0.06,0.15-0.14,0.19-0.22c0.31-0.18,0.5-0.56,0.25-0.96C155.35,330.02,153.52,327.9,151.99,325.42z"/>
			<path class="st3" d="M50.43,92.71c-0.02,0.44-0.04,0.87-0.09,1.23c-0.13,0.99-0.71,2.58-0.1,3.52c0.64,0.99,2.45,0.8,3.41,0.82
				c1,0.02,2.21,0.38,3.1-0.2c0.68-0.44,0.31-1.68,0.21-2.3c-0.18-1.06-0.14-2.15-0.14-3.24C54.87,92.73,52.67,92.83,50.43,92.71z"
				/>
			<path class="st3" d="M41.87,91.1c0.08,0.09,0.19,0.17,0.36,0.2c0.32,0.05,0.64,0.11,0.97,0.18c0.33,0.06,0.66,0.13,1,0.19
				c1.98,0.62,4.13,0.93,6.24,1.04c2.24,0.12,4.44,0.02,6.4-0.16c3.89-0.36,6.79-1.05,6.99-1.01c0.34-0.2,0.68-0.43,1.01-0.68
				c0.09-0.06,0.15-0.14,0.19-0.22c0.31-0.18,0.5-0.56,0.25-0.96c-1.58-2.5-3.41-4.62-4.94-7.1c1.11-0.19,1.82-0.34,1.91-0.32
				c0.29-0.17,0.58-0.36,0.86-0.57c0.07-0.05,0.12-0.12,0.16-0.18c0.26-0.16,0.42-0.48,0.21-0.81c-1.48-2.35-3.22-4.3-4.59-6.71
				c0.99-0.17,1.63-0.3,1.71-0.28c0.24-0.14,0.47-0.3,0.7-0.47c0.06-0.04,0.1-0.1,0.13-0.15c0.21-0.13,0.34-0.39,0.17-0.66
				c-1.31-2.08-2.87-3.76-4.02-5.97c-1.16-2.23-2.73-4.18-4.08-6.28c-0.19-0.3-0.53-0.27-0.75-0.11c-0.12,0.03-0.23,0.1-0.3,0.23
				c-1.18,2.11-2.45,4.17-3.68,6.24c-1.2,2.02-2.19,4.24-3.48,6.19c-0.18,0.27-0.05,0.54,0.18,0.66c0.06,0.06,0.13,0.12,0.25,0.14
				c0.22,0.04,0.44,0.08,0.67,0.12c0.23,0.04,0.45,0.09,0.69,0.13c0.12,0.04,0.25,0.07,0.38,0.1c-1.37,2.37-2.55,4.92-4.04,7.19
				c-0.22,0.34-0.06,0.66,0.22,0.81c0.07,0.08,0.16,0.14,0.31,0.17c0.27,0.05,0.54,0.1,0.82,0.15c0.28,0.05,0.56,0.11,0.84,0.16
				c0.11,0.03,0.22,0.06,0.33,0.09c-1.43,2.56-2.72,5.26-4.31,7.68C41.35,90.54,41.54,90.92,41.87,91.1z"/>
			<path class="st3" d="M71.69,67.89c-0.02,0.44-0.04,0.87-0.09,1.23c-0.13,0.99-0.71,2.58-0.1,3.52c0.64,0.99,2.45,0.8,3.41,0.82
				c1,0.02,2.21,0.38,3.1-0.2c0.68-0.44,0.31-1.68,0.21-2.3c-0.18-1.06-0.14-2.15-0.14-3.24C76.13,67.92,73.93,68.01,71.69,67.89z"
				/>
			<path class="st3" d="M74.76,35.37c-0.19-0.3-0.53-0.27-0.75-0.11c-0.12,0.03-0.23,0.1-0.3,0.23c-1.18,2.11-2.45,4.17-3.68,6.24
				c-1.2,2.02-2.19,4.24-3.48,6.19c-0.18,0.27-0.05,0.54,0.18,0.66c0.06,0.06,0.13,0.12,0.25,0.14c0.22,0.04,0.44,0.08,0.67,0.12
				c0.23,0.04,0.45,0.09,0.69,0.13c0.12,0.04,0.25,0.07,0.38,0.1c-1.37,2.37-2.55,4.92-4.04,7.19c-0.22,0.34-0.06,0.66,0.22,0.81
				c0.07,0.08,0.17,0.14,0.31,0.17c0.27,0.05,0.54,0.1,0.82,0.15c0.28,0.05,0.56,0.11,0.84,0.16c0.11,0.03,0.22,0.06,0.33,0.09
				c-1.43,2.56-2.72,5.26-4.31,7.68c-0.26,0.4-0.07,0.78,0.25,0.96c0.08,0.09,0.19,0.17,0.36,0.2c0.32,0.05,0.64,0.11,0.97,0.18
				c0.33,0.06,0.66,0.13,1,0.19c1.98,0.62,4.13,0.93,6.24,1.04c2.24,0.12,4.44,0.02,6.4-0.16c3.89-0.36,6.79-1.05,6.99-1.01
				c0.34-0.2,0.68-0.43,1.01-0.68c0.08-0.06,0.15-0.14,0.19-0.22c0.31-0.18,0.5-0.56,0.25-0.96c-1.58-2.5-3.41-4.62-4.94-7.1
				c1.11-0.19,1.82-0.34,1.91-0.32c0.29-0.17,0.58-0.36,0.86-0.57c0.07-0.05,0.12-0.12,0.17-0.18c0.26-0.16,0.42-0.48,0.21-0.81
				c-1.48-2.35-3.22-4.3-4.59-6.71c0.99-0.17,1.63-0.3,1.71-0.28c0.24-0.14,0.47-0.3,0.7-0.47c0.06-0.04,0.1-0.1,0.13-0.15
				c0.21-0.13,0.34-0.39,0.17-0.66c-1.31-2.08-2.87-3.76-4.02-5.97C77.68,39.42,76.11,37.47,74.76,35.37z"/>
			<path class="st3" d="M111.4,85.41c1,0.02,2.21,0.38,3.1-0.2c0.68-0.44,0.31-1.68,0.21-2.3c-0.18-1.06-0.14-2.15-0.14-3.24
				c-1.96,0.18-4.16,0.28-6.4,0.16c-0.02,0.44-0.04,0.87-0.09,1.23c-0.13,0.99-0.71,2.58-0.1,3.52
				C108.62,85.58,110.43,85.38,111.4,85.41z"/>
			<path class="st3" d="M114.57,79.67c3.89-0.36,6.79-1.05,6.99-1.01c0.34-0.2,0.68-0.43,1.01-0.68c0.08-0.06,0.15-0.14,0.19-0.22
				c0.31-0.18,0.5-0.56,0.25-0.96c-1.58-2.5-3.41-4.62-4.94-7.1c1.11-0.19,1.82-0.34,1.91-0.32c0.29-0.17,0.58-0.36,0.86-0.57
				c0.07-0.05,0.12-0.12,0.16-0.18c0.26-0.16,0.42-0.48,0.21-0.81c-1.48-2.35-3.22-4.3-4.59-6.71c0.99-0.17,1.63-0.3,1.71-0.28
				c0.24-0.14,0.47-0.3,0.7-0.47c0.06-0.04,0.1-0.1,0.13-0.15c0.21-0.13,0.34-0.39,0.17-0.66c-1.31-2.08-2.87-3.76-4.02-5.97
				c-1.16-2.23-2.73-4.18-4.08-6.28c-0.19-0.3-0.53-0.27-0.75-0.11c-0.12,0.03-0.23,0.1-0.3,0.23c-1.18,2.11-2.45,4.17-3.68,6.24
				c-1.2,2.02-2.19,4.24-3.48,6.19c-0.18,0.27-0.05,0.54,0.18,0.66c0.06,0.06,0.13,0.12,0.25,0.14c0.22,0.04,0.44,0.08,0.67,0.12
				c0.23,0.04,0.45,0.09,0.69,0.13c0.12,0.04,0.25,0.07,0.38,0.1c-1.37,2.37-2.55,4.92-4.04,7.19c-0.22,0.34-0.06,0.66,0.22,0.81
				c0.07,0.08,0.16,0.14,0.31,0.17c0.27,0.05,0.54,0.1,0.82,0.15c0.28,0.05,0.56,0.11,0.84,0.16c0.11,0.03,0.22,0.06,0.33,0.09
				c-1.43,2.56-2.72,5.26-4.31,7.68c-0.26,0.4-0.07,0.78,0.25,0.96c0.08,0.09,0.19,0.17,0.36,0.2c0.32,0.05,0.64,0.11,0.97,0.18
				c0.33,0.06,0.66,0.13,1,0.19c1.98,0.62,4.13,0.93,6.24,1.04C110.41,79.95,112.61,79.85,114.57,79.67z"/>
			<path class="st3" d="M345.13,152.53c-0.02,0.44-0.04,0.87-0.09,1.23c-0.13,0.99-0.71,2.58-0.1,3.52c0.64,0.99,2.45,0.8,3.41,0.82
				c1,0.02,2.21,0.38,3.1-0.2c0.68-0.44,0.31-1.68,0.21-2.3c-0.18-1.06-0.14-2.15-0.14-3.24
				C349.57,152.55,347.37,152.65,345.13,152.53z"/>
			<path class="st3" d="M336.57,150.92c0.09,0.09,0.19,0.17,0.36,0.2c0.32,0.05,0.64,0.11,0.97,0.18c0.33,0.06,0.66,0.13,1,0.19
				c1.98,0.62,4.13,0.93,6.24,1.04c2.24,0.12,4.44,0.02,6.4-0.16c3.89-0.36,6.79-1.05,6.99-1.01c0.34-0.2,0.68-0.43,1.01-0.68
				c0.08-0.06,0.15-0.14,0.19-0.22c0.31-0.18,0.5-0.56,0.25-0.96c-1.58-2.5-3.41-4.62-4.94-7.1c1.11-0.19,1.82-0.34,1.91-0.32
				c0.29-0.17,0.58-0.36,0.86-0.57c0.07-0.05,0.12-0.12,0.17-0.18c0.26-0.16,0.42-0.48,0.21-0.81c-1.48-2.35-3.22-4.3-4.59-6.71
				c0.99-0.17,1.63-0.3,1.71-0.28c0.24-0.14,0.47-0.3,0.7-0.47c0.06-0.04,0.1-0.1,0.13-0.15c0.21-0.13,0.34-0.39,0.17-0.66
				c-1.31-2.08-2.87-3.76-4.02-5.97c-1.16-2.23-2.73-4.18-4.08-6.28c-0.19-0.3-0.53-0.27-0.75-0.11c-0.12,0.03-0.23,0.1-0.3,0.23
				c-1.18,2.11-2.45,4.17-3.68,6.24c-1.2,2.02-2.19,4.24-3.48,6.19c-0.18,0.27-0.05,0.54,0.18,0.66c0.06,0.06,0.13,0.12,0.25,0.14
				c0.22,0.04,0.44,0.08,0.67,0.12c0.23,0.04,0.45,0.09,0.69,0.13c0.12,0.04,0.25,0.07,0.38,0.1c-1.37,2.37-2.55,4.92-4.04,7.19
				c-0.22,0.34-0.06,0.66,0.22,0.81c0.07,0.08,0.17,0.14,0.31,0.17c0.27,0.05,0.54,0.1,0.82,0.15c0.28,0.05,0.56,0.11,0.84,0.16
				c0.11,0.03,0.22,0.06,0.33,0.09c-1.43,2.56-2.72,5.26-4.31,7.68C336.05,150.36,336.24,150.74,336.57,150.92z"/>
			<path class="st3" d="M365.85,175.69c-0.02,0.44-0.04,0.87-0.09,1.23c-0.13,0.99-0.71,2.58-0.1,3.52c0.64,0.99,2.45,0.8,3.41,0.82
				c1,0.02,2.21,0.38,3.1-0.2c0.68-0.44,0.31-1.68,0.21-2.3c-0.18-1.06-0.14-2.15-0.14-3.24
				C370.29,175.72,368.09,175.81,365.85,175.69z"/>
			<path class="st3" d="M375.76,165.57c1.11-0.19,1.82-0.34,1.91-0.32c0.29-0.17,0.58-0.36,0.86-0.57c0.07-0.05,0.12-0.12,0.17-0.18
				c0.26-0.16,0.42-0.48,0.21-0.81c-1.48-2.35-3.22-4.3-4.59-6.71c0.99-0.17,1.63-0.3,1.71-0.28c0.24-0.14,0.47-0.3,0.7-0.47
				c0.06-0.04,0.1-0.1,0.13-0.15c0.21-0.13,0.34-0.39,0.17-0.66c-1.31-2.08-2.87-3.76-4.02-5.97c-1.16-2.23-2.73-4.18-4.08-6.28
				c-0.19-0.3-0.53-0.27-0.75-0.11c-0.12,0.03-0.23,0.1-0.3,0.23c-1.18,2.11-2.45,4.17-3.68,6.24c-1.2,2.02-2.19,4.24-3.48,6.19
				c-0.18,0.27-0.05,0.54,0.18,0.66c0.06,0.06,0.13,0.12,0.25,0.14c0.22,0.04,0.44,0.08,0.67,0.12c0.23,0.04,0.45,0.09,0.69,0.13
				c0.12,0.04,0.25,0.07,0.38,0.1c-1.37,2.37-2.55,4.92-4.04,7.19c-0.22,0.34-0.06,0.66,0.22,0.81c0.07,0.08,0.17,0.14,0.31,0.17
				c0.27,0.05,0.54,0.1,0.82,0.15c0.28,0.05,0.56,0.11,0.84,0.16c0.11,0.03,0.22,0.06,0.33,0.09c-1.43,2.56-2.72,5.26-4.31,7.68
				c-0.26,0.4-0.07,0.78,0.25,0.96c0.09,0.09,0.19,0.17,0.36,0.2c0.32,0.05,0.64,0.11,0.97,0.18c0.33,0.06,0.66,0.13,1,0.19
				c1.98,0.62,4.13,0.93,6.24,1.04c2.24,0.12,4.44,0.02,6.4-0.16c3.89-0.36,6.79-1.05,6.99-1.01c0.34-0.2,0.68-0.43,1.01-0.68
				c0.08-0.06,0.15-0.14,0.19-0.22c0.31-0.18,0.5-0.56,0.25-0.96C379.12,170.17,377.29,168.05,375.76,165.57z"/>
			<path class="st3" d="M175.72,38.78c0.08,0.21,0.16,0.43,0.24,0.64c0.57,1.51,1.16,3.01,1.76,4.5c1.98,4.87,4.14,9.62,6.64,14.21
				c0.19,0.35,0.44,0.77,0.72,1.22c3.65,0.12,7.23,0.13,10.81-0.33c0.68-0.89,1.35-1.7,1.87-2.34c2.6-3.23,5.04-6.46,7.48-9.8
				c1.45-1.98,2.84-4.01,4.26-6c0.17-0.24,0.34-0.48,0.51-0.72c0.14-0.19,0.28-0.37,0.41-0.56c-3.81-5.85-7-12.03-10.02-18.4
				c-1.71-3.61-8.23-15.23-13.02-10.51c-4.22,2.69-6.5,8.32-8.85,12.63c-1.74,3.18-3.29,6.49-4.96,9.72c0.2,0.5,0.37,0.95,0.5,1.32
				C174.62,35.83,175.17,37.31,175.72,38.78z M178.54,23.42c2.35-4.31,4.63-9.94,8.85-12.63c4.79-4.72,11.31,6.9,13.02,10.51
				c1.35,2.86,2.74,5.68,4.2,8.44c-0.87,0.61-2.19,0.25-2.61-1.04c-0.17-0.53-0.49-1.33-1.03-1.56c-1.25-0.52-2.11-0.18-2.71,1.08
				c-0.38,0.78-0.44,1.8-0.59,2.65c-0.32,1.79-2.16,2.14-3.48,1.27c-0.58-0.38-0.76-1.31-0.96-1.95c-0.4-1.26-1.54-2.11-2.73-1.36
				c-0.53,0.34-0.98,0.76-1.04,1.48c-0.01,0.11-0.01,0.21-0.02,0.31c0,0.1-0.01,0.19-0.01,0.29c0.05,0.59-0.1,1.03-0.35,1.35
				c-0.08,0.11-0.18,0.2-0.29,0.29c-1.19,0.57-3.18,0.8-3.36-1.3c-0.05-0.12-0.11-0.24-0.17-0.37c-0.57-1.09-1.68-2.05-2.77-1.17
				c-0.37,0.3-0.63,0.74-0.85,1.2c-0.06,0.12-0.11,0.24-0.16,0.36c-1.82,2.77-2.94,1.82-3.44-0.13c-0.01-0.1-0.02-0.2-0.03-0.3
				c-0.04-0.49-0.19-0.79-0.39-1.22c-0.4-0.88-1.06-1.07-1.78-0.99C176.72,26.9,177.6,25.14,178.54,23.42z"/>
			<path class="st3" d="M177.62,29.64c0.2,0.43,0.34,0.73,0.39,1.22c0.01,0.1,0.02,0.2,0.03,0.3c0.5,1.94,1.62,2.9,3.44,0.13
				c0.05-0.12,0.1-0.24,0.16-0.36c0.22-0.47,0.48-0.91,0.85-1.2c1.1-0.88,2.2,0.07,2.77,1.17c0.06,0.12,0.12,0.24,0.17,0.37
				c0.19,2.1,2.17,1.87,3.36,1.3c0.11-0.08,0.2-0.18,0.29-0.29c0.25-0.32,0.4-0.76,0.35-1.35c0-0.1,0.01-0.19,0.01-0.29
				c0-0.1,0.01-0.2,0.02-0.31c0.05-0.72,0.51-1.15,1.04-1.48c1.19-0.76,2.33,0.09,2.73,1.36c0.2,0.64,0.38,1.57,0.96,1.95
				c1.32,0.87,3.16,0.52,3.48-1.27c0.15-0.85,0.22-1.87,0.59-2.65c0.61-1.26,1.47-1.6,2.71-1.08c0.54,0.23,0.85,1.03,1.03,1.56
				c0.43,1.3,1.74,1.65,2.61,1.04c-1.46-2.77-2.85-5.58-4.2-8.44c-1.71-3.61-8.23-15.23-13.02-10.51c-4.22,2.69-6.5,8.32-8.85,12.63
				c-0.94,1.72-1.82,3.48-2.7,5.24C176.56,28.57,177.22,28.77,177.62,29.64z"/>
			<path class="st3" d="M235.07,42.13c0.07,0.18,0.14,0.37,0.21,0.55C235.21,42.5,235.14,42.31,235.07,42.13z"/>
			<path class="st3" d="M234.36,45.32c-0.11-0.51-0.33-1.28-0.84-1.55c-1.18-0.62-2.07-0.39-2.82,0.71
				c-0.46,0.68-0.64,1.61-0.9,2.38c-0.53,1.62-2.4,1.74-3.61,0.8c-0.53-0.41-0.6-1.29-0.73-1.91c-0.25-1.21-1.29-2.12-2.55-1.55
				c-0.57,0.25-1.07,0.6-1.2,1.26c-0.02,0.1-0.04,0.19-0.05,0.29c-0.02,0.09-0.03,0.18-0.04,0.27c-0.02,0.55-0.22,0.94-0.51,1.21
				c-0.1,0.09-0.2,0.17-0.32,0.23c-1.25,0.4-3.25,0.4-3.19-1.56c-0.04-0.12-0.08-0.24-0.12-0.36c-0.44-1.07-1.43-2.07-2.62-1.38
				c-0.4,0.24-0.71,0.61-0.99,1.02c-0.07,0.1-0.13,0.21-0.2,0.31c-2.13,2.36-3.13,1.36-3.4-0.49c0-0.1,0.01-0.19,0.01-0.28
				c0.01-0.46-0.1-0.75-0.24-1.17c-0.29-0.85-0.93-1.1-1.66-1.1c0.37-0.53,0.75-1.06,1.12-1.58c-1.42,2-2.81,4.02-4.26,6
				c-2.44,3.35-4.89,6.57-7.48,9.8c-0.52,0.65-1.19,1.45-1.87,2.34c-1.76,2.32-3.52,5.24-2.58,7.59c0.05,0.12,0.13,0.22,0.19,0.33
				c0.87,1.43,3.19,2.03,4.63,2.39c3.4,0.86,7.02,1.31,10.49,1.81c7.23,1.03,14.62,0.88,21.86-0.11c4.51-0.62,9.97-0.87,14.1-2.94
				c3.82-1.91-0.47-6.99-1.77-9.26c-2.29-3.98-4.23-8.08-5.98-12.28c0,0,0,0.01,0.01,0.01C235.9,47.03,234.64,46.56,234.36,45.32z"
				/>
			<path class="st3" d="M211.67,37.91c-0.42,0.56-0.83,1.12-1.24,1.68c-0.14,0.19-0.28,0.37-0.41,0.56
				C210.56,39.4,211.11,38.65,211.67,37.91z"/>
			<path class="st3" d="M210.02,40.15c-0.17,0.24-0.34,0.48-0.51,0.72c-0.38,0.53-0.75,1.05-1.12,1.58c0.73,0,1.36,0.25,1.66,1.1
				c0.15,0.42,0.26,0.71,0.24,1.17c0,0.09,0,0.18-0.01,0.28c0.27,1.85,1.27,2.85,3.4,0.49c0.06-0.1,0.13-0.21,0.2-0.31
				c0.27-0.41,0.59-0.78,0.99-1.02c1.19-0.7,2.18,0.31,2.62,1.38c0.05,0.12,0.09,0.24,0.12,0.36c-0.06,1.96,1.94,1.96,3.19,1.56
				c0.11-0.07,0.22-0.14,0.32-0.23c0.29-0.27,0.48-0.66,0.51-1.21c0.01-0.09,0.03-0.18,0.04-0.27c0.02-0.09,0.03-0.18,0.05-0.29
				c0.14-0.66,0.64-1,1.2-1.26c1.27-0.57,2.3,0.34,2.55,1.55c0.13,0.61,0.2,1.49,0.73,1.91c1.21,0.94,3.08,0.82,3.61-0.8
				c0.25-0.77,0.43-1.7,0.9-2.38c0.75-1.1,1.64-1.32,2.82-0.71c0.51,0.27,0.73,1.04,0.84,1.55c0.27,1.24,1.54,1.72,2.47,1.24
				c0,0,0-0.01-0.01-0.01c-0.53-1.28-1.05-2.57-1.55-3.87c-0.07-0.18-0.14-0.37-0.21-0.55c-0.49-1.27-0.96-2.54-1.43-3.82
				c-1.28-3.52-6.4-14.96-11.71-11.11c-4.51,2.03-7.42,6.99-10.26,10.71C211.11,38.65,210.56,39.4,210.02,40.15z"/>
			<path class="st3" d="M149.11,40.35c0.33-0.62,0.67-1.24,1-1.86C149.78,39.11,149.44,39.73,149.11,40.35z"/>
			<path class="st3" d="M150.58,37.62c0.5-0.92,1.01-1.83,1.54-2.74C151.6,35.79,151.09,36.7,150.58,37.62z"/>
			<path class="st3" d="M185.08,59.35c-0.28-0.45-0.53-0.86-0.72-1.22c-2.5-4.59-4.66-9.34-6.64-14.21c0,0,0,0.01,0.01,0.01
				c-0.91,0.6-2.2,0.1-2.54-1.35c-0.14-0.6-0.4-1.5-0.92-1.79c-1.21-0.67-2.09-0.37-2.78,0.96c-0.43,0.83-0.56,1.93-0.77,2.85
				c-0.44,1.94-2.3,2.17-3.56,1.11c-0.55-0.46-0.67-1.5-0.83-2.21c-0.32-1.42-1.4-2.44-2.63-1.71c-0.55,0.33-1.03,0.75-1.13,1.54
				c-0.02,0.12-0.03,0.23-0.04,0.34c-0.01,0.11-0.02,0.21-0.03,0.32c0.01,0.65-0.16,1.12-0.44,1.45c-0.09,0.11-0.19,0.21-0.3,0.29
				c-1.22,0.53-3.22,0.62-3.27-1.7c-0.04-0.14-0.09-0.28-0.15-0.41c-0.5-1.24-1.54-2.38-2.69-1.5c-0.39,0.3-0.68,0.75-0.93,1.25
				c-0.06,0.12-0.12,0.25-0.18,0.38c-2,2.88-3.05,1.75-3.42-0.42c0-0.11,0-0.22-0.01-0.33c-0.01-0.54-0.14-0.88-0.31-1.37
				c-0.34-0.99-0.99-1.26-1.71-1.22c-0.96,1.79-1.91,3.59-2.89,5.36c-2.26,4.06-4.52,7.98-6.94,11.91
				c-1.74,2.82-5.39,8.14-3.9,11.92c0.77,1.96,3.4,2.6,4.97,2.99c3.45,0.86,7.08,1.22,10.58,1.65c7.28,0.88,14.66,0.36,21.83-1.14
				c4.43-0.93,9.82-1.48,13.82-4.06c0.03-0.02,0.07-0.04,0.1-0.06C189.85,66.87,186.87,62.25,185.08,59.35z"/>
			<path class="st3" d="M175.96,39.42c-0.08-0.21-0.16-0.43-0.24-0.64C175.8,39,175.88,39.21,175.96,39.42z"/>
			<path class="st3" d="M150.8,41.63c0.17,0.49,0.3,0.83,0.31,1.37c0,0.11,0.01,0.22,0.01,0.33c0.37,2.17,1.43,3.3,3.42,0.42
				c0.06-0.13,0.12-0.25,0.18-0.38c0.25-0.5,0.54-0.95,0.93-1.25c1.15-0.88,2.19,0.26,2.69,1.5c0.06,0.14,0.1,0.28,0.15,0.41
				c0.05,2.32,2.05,2.22,3.27,1.7c0.11-0.08,0.21-0.18,0.3-0.29c0.27-0.33,0.45-0.8,0.44-1.45c0.01-0.1,0.02-0.21,0.03-0.32
				c0.01-0.11,0.02-0.22,0.04-0.34c0.1-0.79,0.58-1.21,1.13-1.54c1.23-0.73,2.32,0.29,2.63,1.71c0.16,0.72,0.28,1.75,0.83,2.21
				c1.26,1.06,3.12,0.83,3.56-1.11c0.21-0.92,0.34-2.03,0.77-2.85c0.69-1.33,1.57-1.64,2.78-0.96c0.52,0.29,0.78,1.19,0.92,1.79
				c0.34,1.45,1.63,1.95,2.54,1.35c0,0,0-0.01-0.01-0.01c-0.6-1.49-1.19-2.99-1.76-4.5c-0.08-0.21-0.16-0.43-0.24-0.64
				c-0.55-1.47-1.1-2.95-1.63-4.44c-0.13-0.37-0.3-0.82-0.5-1.32c-2-5.03-7.17-15.6-11.8-11.25c-4.39,2.6-7.03,8.59-9.66,13.11
				c-0.52,0.9-1.03,1.82-1.54,2.74c-0.16,0.29-0.31,0.58-0.47,0.87c-0.33,0.62-0.67,1.24-1,1.86c-0.01,0.02-0.02,0.03-0.03,0.05
				c0,0,0,0,0,0C149.81,40.37,150.46,40.64,150.8,41.63z"/>
			<path class="st3" d="M286.06,72.32c6.5-3.28,5.33-9.02,2.21-13.31c-2.81-3.86-7.51-10.34-14.01-7.83
				c-0.81,0.31-1.6,1.27-1.74,2.07c-2.82,3.98-1.65,10.29-0.42,13.87C273.81,72.06,280.04,75.35,286.06,72.32z"/>
			<path class="st3" d="M325.3,75.4c3.02-3.26,7.26-9.5,6.09-15.16c0.22-0.93-0.18-2.34-0.91-3.07c-5.84-5.83-13.98-1.1-18.84,1.71
				c-5.4,3.13-9.37,8.76-3.89,15.42C312.84,80.47,321.12,79.91,325.3,75.4z"/>
			<path class="st3" d="M294.55,79.83c0.09,0,0.18-0.02,0.27-0.03c0.08-0.01,0.16-0.01,0.24-0.03c0.59-0.11,1.16-0.38,1.64-0.8
				c0.12-0.1,0.25-0.21,0.37-0.32c0.11,0.17,0.22,0.33,0.33,0.5c0.74,1.13,2.04,1.75,3.39,1.38c1.47-0.4,2.67-2.16,2.09-3.69
				c-0.09-0.24-0.19-0.48-0.3-0.72c0,0,0,0,0,0c0,0,0,0,0,0c-0.49-1.04-1.18-1.96-2.08-2.6c-0.53-0.46-1.13-0.83-1.84-1.03
				c-1.79-0.51-3.23,0.06-4.57,0.97c-0.62,0.34-1.21,0.76-1.74,1.27c-1.19,1.12-1.13,3.11,0,4.24
				C292.96,79.59,293.76,79.86,294.55,79.83z"/>
			<path class="st3" d="M142.93,236.69c0.33,0.74,1.18,0.69,1.63,0.26c0.11-0.01,0.22-0.02,0.33-0.07l10.32-4.62
				c0.02-0.01,0.03-0.02,0.04-0.03c0.49-0.18,0.86-0.69,0.59-1.31l-4.55-10.18l-5.43-12.13l-4.96-11.09
				c-0.27-0.61-0.88-0.68-1.35-0.45c-0.07,0.02-0.13,0.01-0.2,0.04l-10.65,4.76c-0.07,0.03-0.11,0.08-0.16,0.11
				c-0.47,0.19-0.83,0.7-0.56,1.3l2.65,5.93l6.42,14.34L142.93,236.69z"/>
		</g>
		<path class="st3" d="M227.79,414.32c0,0,10.56-49.65,11.06-58.59s6.37-45.15,9.34-50.48c1.98-3.55,11.34-9.28,17.37-12.72
			c3.3-1.88,7.08-2.76,10.88-2.53l51.33,3.06c0.89,0.05,1.77,0.05,2.66-0.02l11.75-0.89l28.07-1.71
			c7.71-0.47,14.42-5.41,17.17-12.63v0"/>
	</g>
</g>
<g id="designed_by_freepik">
</g>
</svg>
