<?xml version="1.0" encoding="utf-8"?>
<!-- Generator: Adobe Illustrator 28.0.0, SVG Export Plug-In . SVG Version: 6.00 Build 0)  -->
<svg version="1.1" xmlns="http://www.w3.org/2000/svg" xmlns:xlink="http://www.w3.org/1999/xlink" x="0px" y="0px"
	 viewBox="0 0 689.38 753.88" style="enable-background:new 0 0 689.38 753.88;" xml:space="preserve">
<style type="text/css">
	.st0{fill:none;}
	.st1{fill:#EDEAE7;}
	.st2{fill:#DED8D3;}
	.st3{fill:#E7E6E3;}
	.st4{fill:#222236;}
	.st5{fill:#2E444C;}
	.st6{display:none;}
	.st7{display:inline;fill:#29ABE2;}
	.st8{display:inline;fill:#0071BC;}
	.st9{fill:#5893A6;}
	.st10{fill:url(#SVGID_1_);}
	.st11{fill:url(#SVGID_00000008855252399036579820000011110626491748555655_);}
	.st12{fill:#E5CC90;}
	.st13{fill:url(#SVGID_00000147903478798611427090000013956802867978571954_);}
	.st14{fill:url(#SVGID_00000121252560502651827300000002104492117314432918_);}
	.st15{fill:url(#SVGID_00000041260723343091316300000016397012874198693553_);}
	.st16{fill:#BAB066;}
	.st17{fill:url(#SVGID_00000134970323697801608990000013753873853698758571_);}
	.st18{clip-path:url(#XMLID_00000126314530021652713420000007164402974620571012_);}
	.st19{clip-path:url(#XMLID_00000076575546402684134050000004105514687424584380_);}
	.st20{fill:url(#SVGID_00000179607383931809393480000013791592488348155017_);}
	.st21{fill:#8B7263;}
	.st22{fill:#C55D47;}
	.st23{fill:#E1CC55;}
	.st24{fill:#EEEFEF;}
	.st25{fill:url(#SVGID_00000122723053860608231120000011752007665116140929_);}
	.st26{fill:#AEE0E2;}
	.st27{fill:url(#SVGID_00000104684226079346937930000014397750716224020126_);}
	.st28{fill:#A57F6B;}
	.st29{fill:#D6B9AB;}
	.st30{fill:#FF5C55;}
	.st31{fill:#A8CD76;}
	.st32{fill:url(#SVGID_00000147184234922309910460000000693660238724247204_);}
	.st33{fill:url(#SVGID_00000054256628793105815490000003411273577345299359_);}
	.st34{fill:url(#SVGID_00000173140388073557457530000007050761434738442141_);}
	.st35{fill:url(#SVGID_00000019664611984373526960000013638904879014419108_);}
	.st36{fill:url(#SVGID_00000029031520058965064910000003680660317099964604_);}
	.st37{fill:url(#SVGID_00000134961544416585625570000012956352739859013286_);}
	.st38{fill:url(#SVGID_00000051380862793162745360000000797408895959620752_);}
	.st39{clip-path:url(#XMLID_00000109018729439160818160000004726062058636854966_);}
	.st40{clip-path:url(#XMLID_00000016039610670928728400000012459391665575030695_);}
	.st41{fill:url(#SVGID_00000179606705117986038890000012258967755667301000_);}
	.st42{fill:url(#SVGID_00000096022682987415023680000012881343979279787439_);}
	.st43{fill:url(#SVGID_00000171703469016548598250000014601574900201473161_);}
	.st44{fill:url(#SVGID_00000128475768979834226620000010230307645193624253_);}
</style>
<pattern  x="-614.07" y="-1203.67" width="55.89" height="55.89" patternUnits="userSpaceOnUse" id="Unnamed_Pattern" viewBox="0 -55.89 55.89 55.89" style="overflow:visible;">
	<g>
		<rect x="0" y="-55.89" class="st0" width="55.89" height="55.89"/>
		<path class="st1" d="M16.34-48.59c0,1.47-1.19,2.67-2.67,2.67c-1.47,0-2.67-1.19-2.67-2.67c0-1.47,1.19-2.67,2.67-2.67
			C15.15-51.25,16.34-50.06,16.34-48.59z"/>
		<path class="st2" d="M27.95-36.75c0,1.47-1.19,2.67-2.67,2.67c-1.47,0-2.67-1.19-2.67-2.67c0-1.47,1.19-2.67,2.67-2.67
			C26.75-39.42,27.95-38.23,27.95-36.75z"/>
		<path class="st1" d="M50.68-10.92c0,0.68-0.55,1.24-1.24,1.24c-0.68,0-1.24-0.55-1.24-1.24c0-0.68,0.55-1.24,1.24-1.24
			C50.13-12.16,50.68-11.6,50.68-10.92z"/>
		<circle class="st2" cx="47.08" cy="-42.93" r="1.24"/>
		<path class="st1" d="M13.48-37.5c0,0.68-0.55,1.24-1.24,1.24c-0.68,0-1.24-0.55-1.24-1.24c0-0.68,0.55-1.24,1.24-1.24
			C12.93-38.73,13.48-38.18,13.48-37.5z"/>
		<path class="st1" d="M29.18-30.86c0,0.68-0.55,1.24-1.24,1.24c-0.68,0-1.24-0.55-1.24-1.24c0-0.68,0.55-1.24,1.24-1.24
			C28.63-32.1,29.18-31.54,29.18-30.86z"/>
		<circle class="st2" cx="4.11" cy="-47.35" r="1.24"/>
		<path class="st2" d="M11.01-16.25c0,0.68-0.55,1.24-1.24,1.24c-0.68,0-1.24-0.55-1.24-1.24c0-0.68,0.55-1.24,1.24-1.24
			C10.46-17.49,11.01-16.94,11.01-16.25z"/>
		<path class="st2" d="M50.68-28.39c0,0.68-0.55,1.24-1.24,1.24c-0.68,0-1.24-0.55-1.24-1.24c0-0.68,0.55-1.24,1.24-1.24
			C50.13-29.62,50.68-29.07,50.68-28.39z"/>
		<circle class="st1" cx="52.79" cy="-50.02" r="1.24"/>
		<path class="st1" d="M38.61-13.59c0,1.47-1.19,2.67-2.67,2.67c-1.47,0-2.67-1.19-2.67-2.67s1.19-2.67,2.67-2.67
			C37.42-16.25,38.61-15.06,38.61-13.59z"/>
		<path class="st2" d="M13.68-4.42c0,1.47-1.19,2.67-2.67,2.67c-1.47,0-2.67-1.19-2.67-2.67s1.19-2.67,2.67-2.67
			C12.48-7.09,13.68-5.89,13.68-4.42z"/>
	</g>
</pattern>
<pattern  x="-614.07" y="-1203.67" width="84.43" height="84.43" patternUnits="userSpaceOnUse" id="Unnamed_Pattern_10" viewBox="0 -84.43 84.43 84.43" style="overflow:visible;">
	<g>
		<rect y="-84.43" class="st0" width="84.43" height="84.43"/>
		<polygon class="st3" points="42.75,-69.22 40.42,-69.2 40.67,-70.57 		"/>
		<g>
			<polygon class="st3" points="12.43,-81.85 15.74,-81.76 13.1,-80.11 			"/>
			<polygon class="st3" points="6.44,-67.93 13.03,-68.77 12.77,-64.8 			"/>
			<polygon class="st3" points="5.64,-76.04 3.74,-78.71 5.79,-77.58 			"/>
			<polygon class="st3" points="20.62,-51.31 22.88,-51.36 18.19,-46.34 19.03,-51.27 			"/>
			<polygon class="st3" points="7.72,-61.84 7.57,-60.3 5.67,-62.97 			"/>
			<polygon class="st3" points="26,-44.98 23.19,-44.52 24.05,-48.17 24.05,-48.17 24.34,-49.44 			"/>
		</g>
		<polygon class="st3" points="68.6,-60.99 68.79,-58.64 65.64,-60.97 		"/>
		<g>
			<polygon class="st3" points="16.65,-15.08 24.97,-19.36 20.29,-13.78 18.51,-14.42 18.51,-14.42 			"/>
			<polygon class="st3" points="45.07,-21.42 45.94,-18.26 44.25,-16.91 			"/>
			<polygon class="st3" points="11.54,-27.6 14.68,-24.2 10.45,-25.24 			"/>
			<polygon class="st3" points="57.75,-23.38 64.44,-16.1 55.41,-18.32 55.94,-19.46 			"/>
			<polygon class="st3" points="68.27,-9.1 76.6,-13.38 72.71,-8.75 71.92,-7.8 			"/>
		</g>
		<polygon class="st3" points="35.88,-58.19 40.35,-50.53 34.54,-46.52 		"/>
		<polygon class="st3" points="72.56,-77.5 77.59,-80.98 80.65,-77.19 		"/>
		<g>
			<polygon class="st3" points="63.18,-50.26 60.45,-53.49 61.69,-55.99 			"/>
			<polygon class="st3" points="67.12,-36.13 64.33,-34.3 65.57,-37.18 			"/>
			<polygon class="st3" points="59.35,-32.04 59.37,-30.48 57.16,-32.95 			"/>
			<polygon class="st3" points="59.18,-59.92 56.86,-62.28 59.09,-61.48 			"/>
			<polygon class="st3" points="52.73,-40.14 59.05,-45.7 57.75,-39.48 			"/>
		</g>
	</g>
</pattern>
<pattern  x="-614.07" y="-1203.67" width="57.39" height="57.39" patternUnits="userSpaceOnUse" id="Unnamed_Pattern_11" viewBox="0 -57.39 57.39 57.39" style="overflow:visible;">
	<g>
		<rect y="-57.39" class="st0" width="57.39" height="57.39"/>
		<rect x="5.37" y="-53.08" class="st4" width="9.5" height="1.5"/>
		<rect x="42.59" y="-16.08" class="st4" width="9.5" height="1.5"/>
		<rect x="13.25" y="-23.08" class="st4" width="9.5" height="1.5"/>
		<rect x="26.62" y="-10.08" class="st4" width="9.5" height="1.5"/>
		<rect x="21.86" y="-46.08" class="st4" width="4.17" height="1.5"/>
		<rect x="35.69" y="-52.99" class="st4" width="4.17" height="1.5"/>
		<rect x="50.97" y="-45.79" class="st4" width="4.17" height="1.5"/>
		<rect x="51.33" y="-8.08" class="st4" width="4.17" height="1.5"/>
		<rect x="6.42" y="-8.49" class="st4" width="4.17" height="1.5"/>
		<rect x="29.86" y="-17.58" class="st4" width="4.17" height="1.5"/>
		<rect x="34.02" y="-27.99" class="st5" width="4.17" height="1.5"/>
		<rect x="44.22" y="-35.58" class="st5" width="4.17" height="1.5"/>
		<rect x="52.09" y="-35.58" class="st5" width="4.17" height="1.5"/>
		<rect x="22.9" y="-6.58" class="st5" width="4.17" height="1.5"/>
		<rect x="43.18" y="-10.83" class="st5" width="4.17" height="1.5"/>
		<rect x="8.5" y="-38.45" class="st4" width="9.5" height="1.5"/>
		<rect x="37.38" y="-42.21" class="st5" width="9.5" height="1.5"/>
		<rect x="28.69" y="-37.7" class="st5" width="9.5" height="1.5"/>
		<rect x="39.28" y="-22.71" class="st5" width="9.5" height="1.5"/>
		<path class="st4" d="M43.63-52.24c0,0.57-0.47,1.04-1.04,1.04s-1.04-0.46-1.04-1.04s0.46-1.04,1.04-1.04S43.63-52.81,43.63-52.24z
			"/>
		<path class="st4" d="M48.38-52.24c0,0.57-0.47,1.04-1.04,1.04s-1.04-0.46-1.04-1.04s0.46-1.04,1.04-1.04S48.38-52.81,48.38-52.24z
			"/>
		<path class="st4" d="M9.54-24.66c0,0.57-0.46,1.04-1.04,1.04c-0.57,0-1.04-0.46-1.04-1.04S7.93-25.7,8.5-25.7
			C9.07-25.7,9.54-25.23,9.54-24.66z"/>
		<path class="st4" d="M15.91-44.58c0,0.57-0.46,1.04-1.04,1.04s-1.04-0.47-1.04-1.04c0-0.57,0.47-1.04,1.04-1.04
			S15.91-45.15,15.91-44.58z"/>
		<path class="st4" d="M51.33-3.24c0,0.57-0.47,1.04-1.04,1.04c-0.57,0-1.04-0.46-1.04-1.04s0.47-1.04,1.04-1.04
			C50.87-4.28,51.33-3.82,51.33-3.24z"/>
		<path class="st4" d="M34.48-45.61c0,0.57-0.47,1.04-1.04,1.04c-0.57,0-1.04-0.47-1.04-1.04s0.47-1.04,1.04-1.04
			C34.02-46.65,34.48-46.19,34.48-45.61z"/>
		<path class="st5" d="M11.71-46.08c0,0.57-0.47,1.04-1.04,1.04c-0.57,0-1.04-0.47-1.04-1.04c0-0.57,0.47-1.04,1.04-1.04
			C11.24-47.11,11.71-46.65,11.71-46.08z"/>
		<circle class="st5" cx="25.58" cy="-29.8" r="1.04"/>
		<path class="st5" d="M30.89-29.8c0,0.57-0.47,1.04-1.04,1.04c-0.57,0-1.04-0.47-1.04-1.04s0.47-1.04,1.04-1.04
			C30.43-30.83,30.89-30.37,30.89-29.8z"/>
		<path class="st5" d="M43.16-29.8c0,0.57-0.46,1.04-1.04,1.04s-1.04-0.47-1.04-1.04s0.47-1.04,1.04-1.04S43.16-30.37,43.16-29.8z"
			/>
		<path class="st5" d="M23.94-15.34c0,0.57-0.47,1.04-1.04,1.04c-0.57,0-1.04-0.47-1.04-1.04s0.47-1.04,1.04-1.04
			C23.47-16.37,23.94-15.91,23.94-15.34z"/>
		<circle class="st5" cx="2.67" cy="-55.42" r="1.04"/>
		<path class="st5" d="M5.79-30.83c0,0.57-0.46,1.04-1.04,1.04c-0.57,0-1.04-0.47-1.04-1.04c0-0.57,0.46-1.04,1.04-1.04
			C5.32-31.87,5.79-31.41,5.79-30.83z"/>
	</g>
</pattern>
<g id="background" class="st6">
</g>
<g id="objects">
	<g>
		<g>
			<g>
				<path class="st9" d="M228.96,51.81h123.81c6.67,0,12.08-5.41,12.08-12.08v-3.78c0-6.67,5.41-12.08,12.08-12.08h40.95
					c6.67,0,12.08,5.41,12.08,12.08v3.78c0,6.67,5.41,12.08,12.08,12.08h26c6.67,0,12.08,5.41,12.08,12.08v81.36
					c0,6.67,5.41,12.08,12.08,12.08h7.64c6.67,0,12.08,5.41,12.08,12.08v114.57c0,6.67-5.41,12.08-12.08,12.08h-7.64
					c-6.67,0-12.08,5.41-12.08,12.08v19.38c0,6.67-5.41,12.08-12.08,12.08h-91.11c-6.67,0-12.08,5.41-12.08,12.08v27.53
					c0,6.67-5.41,12.08-12.08,12.08h-45.58c-6.67,0-12.08-5.41-12.08-12.08v-27.53c0-6.67-5.41-12.08-12.08-12.08h-54.08
					c-6.67,0-12.08,5.41-12.08,12.08v14.96c0,6.67-5.41,12.08-12.08,12.08h-53.18c-6.67,0-12.08-5.41-12.08-12.08v-14.96
					c0-6.67-5.41-12.08-12.08-12.08l0,0c-6.67,0-12.08-5.41-12.08-12.08v-33.12c0-6.67-5.41-12.08-12.08-12.08H63.59
					c-6.67,0-12.08-5.41-12.08-12.08v-42.62c0-6.67,5.41-12.08,12.08-12.08h39.72c6.67,0,12.08-5.41,12.08-12.08v-61.34
					c0-6.67-5.41-12.08-12.08-12.08H85.46c-6.67,0-12.08-5.41-12.08-12.08V23.38c0-6.67,5.41-12.08,12.08-12.08H204.8
					c6.67,0,12.08,5.41,12.08,12.08v16.36C216.88,46.41,222.29,51.81,228.96,51.81z"/>
				<path class="st9" d="M227.7,138.65h123.81c6.67,0,12.08-5.41,12.08-12.08v-3.78c0-6.67,5.41-12.08,12.08-12.08h40.95
					c6.67,0,12.08,5.41,12.08,12.08v3.78c0,6.67,5.41,12.08,12.08,12.08h26c6.67,0,12.08,5.41,12.08,12.08v81.36
					c0,6.67,5.41,12.08,12.08,12.08h7.64c6.67,0,12.08,5.41,12.08,12.08v114.57c0,6.67-5.41,12.08-12.08,12.08h-7.64
					c-6.67,0-12.08,5.41-12.08,12.08v19.38c0,6.67-5.41,12.08-12.08,12.08h-91.11c-6.67,0-12.08,5.41-12.08,12.08v27.53
					c0,6.67-5.41,12.08-12.08,12.08h-45.58c-6.67,0-12.08-5.41-12.08-12.08v-27.53c0-6.67-5.41-12.08-12.08-12.08H227.7
					c-6.67,0-12.08,5.41-12.08,12.08v14.96c0,6.67-5.41,12.08-12.08,12.08h-53.18c-6.67,0-12.08-5.41-12.08-12.08v-14.96
					c0-6.67-5.41-12.08-12.08-12.08l0,0c-6.67,0-12.08-5.41-12.08-12.08v-33.12c0-6.67-5.41-12.08-12.08-12.08H62.33
					c-6.67,0-12.08-5.41-12.08-12.08v-42.62c0-6.67,5.41-12.08,12.08-12.08h39.72c6.67,0,12.08-5.41,12.08-12.08v-61.34
					c0-6.67-5.41-12.08-12.08-12.08H84.2c-6.67,0-12.08-5.41-12.08-12.08v-94.59c0-6.67,5.41-12.08,12.08-12.08h119.34
					c6.67,0,12.08,5.41,12.08,12.08v16.36C215.62,133.25,221.03,138.65,227.7,138.65z"/>
				<path class="st9" d="M327.62,441.14h-15.25v-3.47c0-1.92-1.56-3.47-3.47-3.47h-6.61v-4.25c0-1.92-1.56-3.47-3.47-3.47h-21.95
					c-1.92,0-3.47,1.56-3.47,3.47v4.25h-8.11c-1.92,0-3.47,1.56-3.47,3.47v3.47h-5.79c-1.92,0-3.47,1.56-3.47,3.47v1.16
					c0,1.92,1.56,3.47,3.47,3.47h5.79v3.32c0,1.92,1.56,3.47,3.47,3.47h6.56v2.86c0,1.92,1.56,3.47,3.47,3.47h15.05
					c1.92,0,3.47-1.56,3.47-3.47v-2.86h15.05c1.92,0,3.47-1.56,3.47-3.47v-4.48h15.25c1.92,0,3.47-1.56,3.47-3.47
					S329.54,441.14,327.62,441.14z"/>
				<path class="st9" d="M81.59,32.85h15.25v3.47c0,1.92,1.56,3.47,3.47,3.47h6.61v4.25c0,1.92,1.56,3.47,3.47,3.47h21.95
					c1.92,0,3.47-1.56,3.47-3.47V39.8h8.11c1.92,0,3.47-1.56,3.47-3.47v-3.47h5.79c1.92,0,3.47-1.56,3.47-3.47v-1.16
					c0-1.92-1.56-3.47-3.47-3.47h-5.79v-3.32c0-1.92-1.56-3.47-3.47-3.47h-6.56V15.1c0-1.92-1.56-3.47-3.47-3.47h-15.05
					c-1.92,0-3.47,1.56-3.47,3.47v2.86h-15.05c-1.92,0-3.47,1.56-3.47,3.47v4.48H81.59c-1.92,0-3.47,1.56-3.47,3.47
					C78.12,31.3,79.68,32.85,81.59,32.85z"/>
				<path class="st9" d="M389.34,246.68h29.09v6.63c0,3.66,2.97,6.63,6.63,6.63h12.61v8.1c0,3.66,2.97,6.63,6.63,6.63h41.89
					c3.66,0,6.63-2.97,6.63-6.63v-8.1h15.47c3.66,0,6.63-2.97,6.63-6.63v-6.63h11.05c3.66,0,6.63-2.97,6.63-6.63v-2.21
					c0-3.66-2.97-6.63-6.63-6.63h-11.05v-6.33c0-3.66-2.97-6.63-6.63-6.63h-12.52v-5.45c0-3.66-2.97-6.63-6.63-6.63h-28.72
					c-3.66,0-6.63,2.97-6.63,6.63v5.45h-28.72c-3.66,0-6.63,2.97-6.63,6.63v8.54h-29.09c-3.66,0-6.63,2.97-6.63,6.63
					C382.72,243.71,385.68,246.68,389.34,246.68z"/>
				<path class="st9" d="M477.36,97.9v41.07H468c-5.17,0-9.36,4.19-9.36,9.36v17.81H447.2c-5.17,0-9.36,4.19-9.36,9.36v59.14
					c0,5.17,4.19,9.36,9.36,9.36h11.44v21.84c0,5.17,4.19,9.36,9.36,9.36h9.36v15.6c0,5.17,4.19,9.36,9.36,9.36h3.12
					c5.17,0,9.36-4.19,9.36-9.36v-15.6h8.94c5.17,0,9.36-4.19,9.36-9.36v-17.68h7.7c5.17,0,9.36-4.19,9.36-9.36v-40.55
					c0-5.17-4.19-9.36-9.36-9.36h-7.7v-40.55c0-5.17-4.19-9.36-9.36-9.36h-12.06V97.9c0-5.17-4.19-9.36-9.36-9.36
					C481.55,88.54,477.36,92.73,477.36,97.9z"/>
				<path class="st9" d="M208.3,467.43h-11.33v-4.5c0-5.11-4.14-9.26-9.26-9.26h-40.14v-4.37c0-5.11-4.14-9.26-9.26-9.26h-29.05
					c-5.11,0-9.26,4.14-9.26,9.26v4.37h-8.76c-5.11,0-9.26,4.14-9.26,9.26v7.02h-7.94c-5.11,0-9.26,4.14-9.26,9.26
					c0,5.11,4.14,9.26,9.26,9.26H82v8.12c0,5.11,4.14,9.26,9.26,9.26h28.43v1.08c0,5.11,4.14,9.26,9.26,9.26h25.52
					c5.11,0,9.26-4.14,9.26-9.26v-1.08h24.01c5.11,0,9.26-4.14,9.26-9.26v-6.75h11.33c5.11,0,9.26-4.14,9.26-9.26v-3.9
					C217.55,471.58,213.41,467.43,208.3,467.43z"/>
				<path class="st9" d="M428.58,302.94h8.8v3.5c0,3.97,3.22,7.2,7.2,7.2h31.2v3.4c0,3.97,3.22,7.2,7.2,7.2h22.59
					c3.97,0,7.2-3.22,7.2-7.2v-3.4h6.81c3.97,0,7.2-3.22,7.2-7.2v-5.46h6.17c3.97,0,7.2-3.22,7.2-7.2s-3.22-7.2-7.2-7.2h-6.17v-6.32
					c0-3.97-3.22-7.2-7.2-7.2h-22.1v-0.84c0-3.97-3.22-7.2-7.2-7.2h-19.84c-3.97,0-7.2,3.22-7.2,7.2v0.84h-18.66
					c-3.97,0-7.2,3.22-7.2,7.2v5.25h-8.8c-3.97,0-7.2,3.22-7.2,7.2v3.03C421.38,299.72,424.6,302.94,428.58,302.94z"/>
				<path class="st9" d="M114.06,284h-11.27v-3.57c0-2.67-2.17-4.84-4.84-4.84H62.94v-2.04c0-2.67-2.17-4.84-4.84-4.84H30.07
					c-2.67,0-4.84,2.17-4.84,4.84v2.04h-9.17c-2.67,0-4.84,2.17-4.84,4.84V284H4.84C2.17,284,0,286.17,0,288.84s2.17,4.84,4.84,4.84
					h6.37v6.52c0,2.67,2.17,4.84,4.84,4.84h15.18c-0.09,0.36-0.14,0.74-0.14,1.12v3.57c0,2.67,2.17,4.84,4.84,4.84h14.53
					c2.67,0,4.84-2.17,4.84-4.84v-3.57c0-0.39-0.06-0.76-0.14-1.12h42.79c2.67,0,4.84-2.17,4.84-4.84v-6.52h11.27
					c2.67,0,4.84-2.17,4.84-4.84S116.73,284,114.06,284z"/>
				<path class="st9" d="M7.1,129.62h11.27v3.57c0,2.67,2.17,4.84,4.84,4.84h35.01v2.04c0,2.67,2.17,4.84,4.84,4.84h28.03
					c2.67,0,4.84-2.17,4.84-4.84v-2.04h9.17c2.67,0,4.84-2.17,4.84-4.84v-3.57h6.37c2.67,0,4.84-2.17,4.84-4.84
					c0-2.67-2.17-4.84-4.84-4.84h-6.37v-6.52c0-2.67-2.17-4.84-4.84-4.84H89.92c0.09-0.36,0.14-0.74,0.14-1.12v-3.57
					c0-2.67-2.17-4.84-4.84-4.84H70.69c-2.67,0-4.84,2.17-4.84,4.84v3.57c0,0.39,0.06,0.76,0.14,1.12H23.2
					c-2.67,0-4.84,2.17-4.84,4.84v6.52H7.1c-2.67,0-4.84,2.17-4.84,4.84C2.25,127.45,4.42,129.62,7.1,129.62z"/>
				<path class="st9" d="M91.34,141.45v-11.27h3.57c2.67,0,4.84-2.17,4.84-4.84V90.34h2.04c2.67,0,4.84-2.17,4.84-4.84V57.47
					c0-2.67-2.17-4.84-4.84-4.84h-2.04v-9.17c0-2.67-2.17-4.84-4.84-4.84h-3.57v-6.37c0-2.67-2.17-4.84-4.84-4.84
					s-4.84,2.17-4.84,4.84v6.37h-6.52c-2.67,0-4.84,2.17-4.84,4.84v15.18c-0.36-0.09-0.74-0.14-1.12-0.14H65.6
					c-2.67,0-4.84,2.17-4.84,4.84v14.53c0,2.67,2.17,4.84,4.84,4.84h3.57c0.39,0,0.76-0.06,1.12-0.14v42.79
					c0,2.67,2.17,4.84,4.84,4.84h6.52v11.27c0,2.67,2.17,4.84,4.84,4.84S91.34,144.13,91.34,141.45z"/>
				<path class="st9" d="M79.19,225.96v-11.27h3.57c2.67,0,4.84-2.17,4.84-4.84v-35.01h2.04c2.67,0,4.84-2.17,4.84-4.84v-28.03
					c0-2.67-2.17-4.84-4.84-4.84H87.6v-9.17c0-2.67-2.17-4.84-4.84-4.84h-3.57v-6.37c0-2.67-2.17-4.84-4.84-4.84
					c-2.67,0-4.84,2.17-4.84,4.84v6.37h-6.52c-2.67,0-4.84,2.17-4.84,4.84v15.18c-0.36-0.09-0.74-0.14-1.12-0.14h-3.57
					c-2.67,0-4.84,2.17-4.84,4.84v14.53c0,2.67,2.17,4.84,4.84,4.84h3.57c0.39,0,0.76-0.06,1.12-0.14v42.79
					c0,2.67,2.17,4.84,4.84,4.84h6.52v11.27c0,2.67,2.17,4.84,4.84,4.84C77.03,230.8,79.19,228.63,79.19,225.96z"/>
				<path class="st9" d="M423.51,94.96h11.27v3.57c0,2.67,2.17,4.84,4.84,4.84h35.01v2.04c0,2.67,2.17,4.84,4.84,4.84h28.03
					c2.67,0,4.84-2.17,4.84-4.84v-2.04h9.17c2.67,0,4.84-2.17,4.84-4.84v-3.57h6.37c2.67,0,4.84-2.17,4.84-4.84
					c0-2.67-2.17-4.84-4.84-4.84h-6.37v-6.52c0-2.67-2.17-4.84-4.84-4.84h-15.18c0.09-0.36,0.14-0.74,0.14-1.12v-3.57
					c0-2.67-2.17-4.84-4.84-4.84H487.1c-2.67,0-4.84,2.17-4.84,4.84v3.57c0,0.39,0.06,0.76,0.14,1.12h-42.79
					c-2.67,0-4.84,2.17-4.84,4.84v6.52h-11.27c-2.67,0-4.84,2.17-4.84,4.84C418.66,92.79,420.83,94.96,423.51,94.96z"/>
			</g>
			<path class="st9" d="M684.54,571.12h-6.37v-6.52c0-2.67-2.17-4.84-4.84-4.84h-15.18c0.09-0.36,0.14-0.74,0.14-1.12v-3.57
				c0-2.67-2.17-4.84-4.84-4.84h-14.53c-2.67,0-4.84,2.17-4.84,4.84v3.57c0,0.39,0.06,0.76,0.14,1.12h-30.7v-3.52
				c0-6.67-5.41-12.08-12.08-12.08h-3.78c-6.67,0-12.08-5.41-12.08-12.08V408.27c0-6.67,5.41-12.08,12.08-12.08h16.36
				c3.63,0,6.87-1.61,9.08-4.14c0.87,1.29,2.35,2.15,4.02,2.15h28.03c2.67,0,4.84-2.17,4.84-4.84v-2.04h9.17
				c2.67,0,4.84-2.17,4.84-4.84v-3.57h6.37c2.67,0,4.84-2.17,4.84-4.84s-2.17-4.84-4.84-4.84h-6.37v-6.52
				c0-2.67-2.17-4.84-4.84-4.84h-15.18c0.09-0.36,0.14-0.74,0.14-1.12v-3.57c0-2.67-2.17-4.84-4.84-4.84h-14.53
				c-2.67,0-4.84,2.17-4.84,4.84v3.57c0,0.39,0.06,0.76,0.14,1.12h-3.97v-93.09c0-6.67-5.41-12.08-12.08-12.08h-81.5
				c-1.61-0.8-3.42-1.26-5.34-1.26h-94.59c-4.68,0-8.73,2.66-10.73,6.55V242.9c0-6.67-5.41-12.08-12.08-12.08h-41.09v-21.44
				c0-2.67-2.17-4.84-4.84-4.84h-2.04v-9.17c0-2.67-2.17-4.84-4.84-4.84h-3.57v-6.37c0-2.67-2.17-4.84-4.84-4.84
				s-4.84,2.17-4.84,4.84v6.37h-6.52c-2.67,0-4.84,2.17-4.84,4.84v15.18c-0.36-0.09-0.74-0.14-1.12-0.14h-3.57
				c-2.67,0-4.84,2.17-4.84,4.84v14.32h-42.5c-6.67,0-12.08,5.41-12.08,12.08v39.72c0,6.67-5.41,12.08-12.08,12.08h-33.12
				c-6.67,0-12.08,5.41-12.08,12.08c0,6.67-5.41,12.08-12.08,12.08h-1.54v-29.01c0-5.11-4.14-9.26-9.26-9.26h-4.38v-8.76
				c0-5.11-4.14-9.26-9.26-9.26h-7.02v-7.94c0-5.11-4.14-9.26-9.26-9.26s-9.26,4.14-9.26,9.26v7.94h-8.12
				c-5.11,0-9.26,4.14-9.26,9.26V299h-1.08c-5.11,0-9.26,4.14-9.26,9.26v25.52c0,5.11,4.14,9.26,9.26,9.26h1.08v24.01
				c0,5.11,4.14,9.26,9.26,9.26h6.75v11.33c0,5.11,4.14,9.26,9.26,9.26h3.9c5.11,0,9.26-4.14,9.26-9.26v-11.33h1.89v6.57
				c0,6.67,5.41,12.08,12.08,12.08h14.96c6.67,0,12.08,5.41,12.08,12.08v54.08c0,0.28-0.02,0.55-0.04,0.83v-5.75
				c0-1.92-1.56-3.47-3.47-3.47h-4.25v-8.11c0-1.92-1.56-3.47-3.47-3.47h-3.47v-5.79c0-1.92-1.56-3.47-3.47-3.47h-1.16
				c-1.92,0-3.47,1.56-3.47,3.47v5.79h-3.32c-1.92,0-3.47,1.56-3.47,3.47v6.56h-2.86c-1.92,0-3.47,1.56-3.47,3.47v15.05
				c0,1.92,1.56,3.47,3.47,3.47h2.86v0.01h-10c-6.67,0-12.08,5.41-12.08,12.08v45.58c0,6.67,5.41,12.08,12.08,12.08h27.53
				c6.67,0,12.08,5.41,12.08,12.08v52.6l-21.69,0v-2.04c0-2.67-2.17-4.84-4.84-4.84l-28.03,0c-2.67,0-4.84,2.17-4.84,4.84v2.04
				h-9.17c-2.67,0-4.84,2.17-4.84,4.84v3.57h-6.37c-2.67,0-4.84,2.17-4.84,4.84s2.17,4.84,4.84,4.84h6.37v6.52
				c0,2.67,2.17,4.84,4.84,4.84h15.18c-0.09,0.36-0.14,0.74-0.14,1.12v3.57c0,2.67,2.17,4.84,4.84,4.84h14.53
				c2.67,0,4.84-2.17,4.84-4.84v-3.57c0-0.39-0.06-0.76-0.14-1.12l29.48,0v9.06c0,6.67,5.41,12.08,12.08,12.08h19.38
				c6.67,0,12.08,5.41,12.08,12.08v7.64c0,6.67,5.41,12.08,12.08,12.08h48.7c1.3,1.3,3.1,2.1,5.08,2.1h3.4v6.81
				c0,3.97,3.22,7.2,7.2,7.2h5.46v6.17c0,3.97,3.22,7.2,7.2,7.2c3.97,0,7.2-3.22,7.2-7.2v-6.17h6.32c3.97,0,7.2-3.22,7.2-7.2v-5.51
				c1.72,2.1,4.32,3.44,7.25,3.44h17.68v7.7c0,5.17,4.19,9.36,9.36,9.36h40.55c5.17,0,9.36-4.19,9.36-9.36v-7.7h40.55
				c5.17,0,9.36-4.19,9.36-9.36v-12.06h28.73v11.42c0,2.67,2.17,4.84,4.84,4.84h2.04v9.17c0,2.67,2.17,4.84,4.84,4.84h3.57v6.37
				c0,2.67,2.17,4.84,4.84,4.84s4.84-2.17,4.84-4.84v-6.37h6.52c2.67,0,4.84-2.17,4.84-4.84v-15.18c0.36,0.09,0.74,0.14,1.12,0.14
				h3.57c2.67,0,4.84-2.17,4.84-4.84v-14.53c0-2.67-2.17-4.84-4.84-4.84h-3.57c-0.39,0-0.76,0.06-1.12,0.14v-2.3h10.02
				c6.67,0,12.08-5.41,12.08-12.08v-26c0-6.67,5.41-12.08,12.08-12.08h3.78c6.67,0,12.08-5.41,12.08-12.08v-7.97h22.91v2.04
				c0,2.67,2.17,4.84,4.84,4.84h28.03c2.67,0,4.84-2.17,4.84-4.84v-2.04h9.17c2.67,0,4.84-2.17,4.84-4.84v-3.57h6.37
				c2.67,0,4.84-2.17,4.84-4.84S687.21,571.12,684.54,571.12z M345.08,282.1v0.52c0,2.24-0.62,4.33-1.68,6.13v-6.65H345.08z
				 M333.72,282.1v10.85c-4.96-1.45-8.59-5.98-8.68-11.38c0.65,0.33,1.38,0.53,2.16,0.53H333.72z"/>
			<pattern  id="SVGID_1_" xlink:href="#Unnamed_Pattern_11" patternTransform="matrix(1.1804 0 0 1.1804 1039.9482 985.583)">
			</pattern>
			<path class="st10" d="M684.54,571.12h-6.37v-6.52c0-2.67-2.17-4.84-4.84-4.84h-15.18c0.09-0.36,0.14-0.74,0.14-1.12v-3.57
				c0-2.67-2.17-4.84-4.84-4.84h-14.53c-2.67,0-4.84,2.17-4.84,4.84v3.57c0,0.39,0.06,0.76,0.14,1.12h-30.7v-3.52
				c0-6.67-5.41-12.08-12.08-12.08h-3.78c-6.67,0-12.08-5.41-12.08-12.08V408.27c0-6.67,5.41-12.08,12.08-12.08h16.36
				c3.63,0,6.87-1.61,9.08-4.14c0.87,1.29,2.35,2.15,4.02,2.15h28.03c2.67,0,4.84-2.17,4.84-4.84v-2.04h9.17
				c2.67,0,4.84-2.17,4.84-4.84v-3.57h6.37c2.67,0,4.84-2.17,4.84-4.84s-2.17-4.84-4.84-4.84h-6.37v-6.52
				c0-2.67-2.17-4.84-4.84-4.84h-15.18c0.09-0.36,0.14-0.74,0.14-1.12v-3.57c0-2.67-2.17-4.84-4.84-4.84h-14.53
				c-2.67,0-4.84,2.17-4.84,4.84v3.57c0,0.39,0.06,0.76,0.14,1.12h-3.97v-93.09c0-6.67-5.41-12.08-12.08-12.08h-81.5
				c-1.61-0.8-3.42-1.26-5.34-1.26h-94.59c-4.68,0-8.73,2.66-10.73,6.55V242.9c0-6.67-5.41-12.08-12.08-12.08h-41.09v-21.44
				c0-2.67-2.17-4.84-4.84-4.84h-2.04v-9.17c0-2.67-2.17-4.84-4.84-4.84h-3.57v-6.37c0-2.67-2.17-4.84-4.84-4.84
				s-4.84,2.17-4.84,4.84v6.37h-6.52c-2.67,0-4.84,2.17-4.84,4.84v15.18c-0.36-0.09-0.74-0.14-1.12-0.14h-3.57
				c-2.67,0-4.84,2.17-4.84,4.84v14.32h-42.5c-6.67,0-12.08,5.41-12.08,12.08v39.72c0,6.67-5.41,12.08-12.08,12.08h-33.12
				c-6.67,0-12.08,5.41-12.08,12.08c0,6.67-5.41,12.08-12.08,12.08h-1.54v-29.01c0-5.11-4.14-9.26-9.26-9.26h-4.38v-8.76
				c0-5.11-4.14-9.26-9.26-9.26h-7.02v-7.94c0-5.11-4.14-9.26-9.26-9.26s-9.26,4.14-9.26,9.26v7.94h-8.12
				c-5.11,0-9.26,4.14-9.26,9.26V299h-1.08c-5.11,0-9.26,4.14-9.26,9.26v25.52c0,5.11,4.14,9.26,9.26,9.26h1.08v24.01
				c0,5.11,4.14,9.26,9.26,9.26h6.75v11.33c0,5.11,4.14,9.26,9.26,9.26h3.9c5.11,0,9.26-4.14,9.26-9.26v-11.33h1.89v6.57
				c0,6.67,5.41,12.08,12.08,12.08h14.96c6.67,0,12.08,5.41,12.08,12.08v54.08c0,0.28-0.02,0.55-0.04,0.83v-5.75
				c0-1.92-1.56-3.47-3.47-3.47h-4.25v-8.11c0-1.92-1.56-3.47-3.47-3.47h-3.47v-5.79c0-1.92-1.56-3.47-3.47-3.47h-1.16
				c-1.92,0-3.47,1.56-3.47,3.47v5.79h-3.32c-1.92,0-3.47,1.56-3.47,3.47v6.56h-2.86c-1.92,0-3.47,1.56-3.47,3.47v15.05
				c0,1.92,1.56,3.47,3.47,3.47h2.86v0.01h-10c-6.67,0-12.08,5.41-12.08,12.08v45.58c0,6.67,5.41,12.08,12.08,12.08h27.53
				c6.67,0,12.08,5.41,12.08,12.08v52.6l-21.69,0v-2.04c0-2.67-2.17-4.84-4.84-4.84l-28.03,0c-2.67,0-4.84,2.17-4.84,4.84v2.04
				h-9.17c-2.67,0-4.84,2.17-4.84,4.84v3.57h-6.37c-2.67,0-4.84,2.17-4.84,4.84s2.17,4.84,4.84,4.84h6.37v6.52
				c0,2.67,2.17,4.84,4.84,4.84h15.18c-0.09,0.36-0.14,0.74-0.14,1.12v3.57c0,2.67,2.17,4.84,4.84,4.84h14.53
				c2.67,0,4.84-2.17,4.84-4.84v-3.57c0-0.39-0.06-0.76-0.14-1.12l29.48,0v9.06c0,6.67,5.41,12.08,12.08,12.08h19.38
				c6.67,0,12.08,5.41,12.08,12.08v7.64c0,6.67,5.41,12.08,12.08,12.08h48.7c1.3,1.3,3.1,2.1,5.08,2.1h3.4v6.81
				c0,3.97,3.22,7.2,7.2,7.2h5.46v6.17c0,3.97,3.22,7.2,7.2,7.2c3.97,0,7.2-3.22,7.2-7.2v-6.17h6.32c3.97,0,7.2-3.22,7.2-7.2v-5.51
				c1.72,2.1,4.32,3.44,7.25,3.44h17.68v7.7c0,5.17,4.19,9.36,9.36,9.36h40.55c5.17,0,9.36-4.19,9.36-9.36v-7.7h40.55
				c5.17,0,9.36-4.19,9.36-9.36v-12.06h28.73v11.42c0,2.67,2.17,4.84,4.84,4.84h2.04v9.17c0,2.67,2.17,4.84,4.84,4.84h3.57v6.37
				c0,2.67,2.17,4.84,4.84,4.84s4.84-2.17,4.84-4.84v-6.37h6.52c2.67,0,4.84-2.17,4.84-4.84v-15.18c0.36,0.09,0.74,0.14,1.12,0.14
				h3.57c2.67,0,4.84-2.17,4.84-4.84v-14.53c0-2.67-2.17-4.84-4.84-4.84h-3.57c-0.39,0-0.76,0.06-1.12,0.14v-2.3h10.02
				c6.67,0,12.08-5.41,12.08-12.08v-26c0-6.67,5.41-12.08,12.08-12.08h3.78c6.67,0,12.08-5.41,12.08-12.08v-7.97h22.91v2.04
				c0,2.67,2.17,4.84,4.84,4.84h28.03c2.67,0,4.84-2.17,4.84-4.84v-2.04h9.17c2.67,0,4.84-2.17,4.84-4.84v-3.57h6.37
				c2.67,0,4.84-2.17,4.84-4.84S687.21,571.12,684.54,571.12z M345.08,282.1v0.52c0,2.24-0.62,4.33-1.68,6.13v-6.65H345.08z
				 M333.72,282.1v10.85c-4.96-1.45-8.59-5.98-8.68-11.38c0.65,0.33,1.38,0.53,2.16,0.53H333.72z"/>
			
				<pattern  id="SVGID_00000109725797159751439670000010633498567695270804_" xlink:href="#Unnamed_Pattern_11" patternTransform="matrix(1.1804 0 0 1.1804 1073.8483 987.9719)">
			</pattern>
			<path style="fill:url(#SVGID_00000109725797159751439670000010633498567695270804_);" d="M532.93,286.59h-6.17v-6.32
				c0-3.97-3.22-7.2-7.2-7.2h-5.51c2.1-1.72,3.44-4.32,3.44-7.25v-17.68h7.7c5.17,0,9.36-4.19,9.36-9.36v-40.55
				c0-5.17-4.19-9.36-9.36-9.36h-7.7v-40.55c0-5.17-4.19-9.36-9.36-9.36h-12.06v-28.73h11.42c2.67,0,4.84-2.17,4.84-4.84v-2.04h9.17
				c2.67,0,4.84-2.17,4.84-4.84v-3.57h6.37c2.67,0,4.84-2.17,4.84-4.84c0-2.67-2.17-4.84-4.84-4.84h-6.37v-6.52
				c0-2.67-2.17-4.84-4.84-4.84h-15.18c0.09-0.36,0.14-0.74,0.14-1.12v-3.57c0-2.67-2.17-4.84-4.84-4.84H487.1
				c-2.67,0-4.84,2.17-4.84,4.84v3.57c0,0.39,0.06,0.76,0.14,1.12h-2.3V63.89c0-6.67-5.41-12.08-12.08-12.08h-26
				c-6.67,0-12.08-5.41-12.08-12.08v-3.78c0-6.67-5.41-12.08-12.08-12.08h-40.95c-6.67,0-12.08,5.41-12.08,12.08v3.78
				c0,6.67-5.41,12.08-12.08,12.08H228.96c-6.67,0-12.08-5.41-12.08-12.08V23.38c0-6.67-5.41-12.08-12.08-12.08H85.46
				c-6.67,0-12.08,5.41-12.08,12.08v15.57c-1.8,0.7-3.09,2.45-3.09,4.5v15.18c-0.36-0.09-0.74-0.14-1.12-0.14H65.6
				c-2.67,0-4.84,2.17-4.84,4.84v14.53c0,2.67,2.17,4.84,4.84,4.84h3.57c0.39,0,0.76-0.06,1.12-0.14v16.53
				c-2.48,0.21-4.44,2.26-4.44,4.8v3.57c0,0.39,0.06,0.76,0.14,1.12H23.2c-2.67,0-4.84,2.17-4.84,4.84v6.52H7.1
				c-2.67,0-4.84,2.17-4.84,4.84c0,2.67,2.17,4.84,4.84,4.84h11.27v3.57c0,2.67,2.17,4.84,4.84,4.84h34.95v5.11
				c-0.36-0.09-0.74-0.14-1.12-0.14h-3.57c-2.67,0-4.84,2.17-4.84,4.84v14.53c0,2.67,2.17,4.84,4.84,4.84h3.57
				c0.39,0,0.76-0.06,1.12-0.14v42.79c0,2.67,2.17,4.84,4.84,4.84h6.52v0.84h-5.92c-6.67,0-12.08,5.41-12.08,12.08v41.09H30.07
				c-2.67,0-4.84,2.17-4.84,4.84v2.04h-9.17c-2.67,0-4.84,2.17-4.84,4.84V284H4.84C2.17,284,0,286.17,0,288.84
				c0,2.67,2.17,4.84,4.84,4.84h6.37v6.52c0,2.67,2.17,4.84,4.84,4.84h15.18c-0.09,0.36-0.14,0.74-0.14,1.12v3.57
				c0,2.67,2.17,4.84,4.84,4.84h14.32v42.5c0,6.67,5.41,12.08,12.08,12.08h39.72c6.67,0,12.08,5.41,12.08,12.08v33.12
				c0,6.67,5.41,12.08,12.08,12.08c6.67,0,12.08,5.41,12.08,12.08v1.54h-29.01c-5.11,0-9.26,4.14-9.26,9.26v4.37h-8.76
				c-5.11,0-9.26,4.14-9.26,9.26v7.02h-7.94c-5.11,0-9.26,4.14-9.26,9.26c0,5.11,4.14,9.26,9.26,9.26H82v8.12
				c0,5.11,4.14,9.26,9.26,9.26h28.43v1.08c0,5.11,4.14,9.26,9.26,9.26h25.52c5.11,0,9.26-4.14,9.26-9.26v-1.08h24.01
				c5.11,0,9.26-4.14,9.26-9.26v-6.75h11.32c5.11,0,9.26-4.14,9.26-9.26v-3.9c0-5.11-4.14-9.26-9.26-9.26h-11.32v-1.89h6.57
				c6.67,0,12.08-5.41,12.08-12.08v-14.96c0-6.67,5.41-12.08,12.08-12.08h54.08c0.28,0,0.55,0.02,0.83,0.04h-5.75
				c-1.92,0-3.47,1.56-3.47,3.47v4.25h-8.11c-1.92,0-3.47,1.56-3.47,3.47v3.47h-5.79c-1.92,0-3.47,1.56-3.47,3.47v1.16
				c0,1.92,1.56,3.47,3.47,3.47h5.79v3.32c0,1.92,1.56,3.47,3.47,3.47h6.56v2.86c0,1.92,1.56,3.47,3.47,3.47h15.05
				c1.92,0,3.47-1.56,3.47-3.47v-2.86h0.01v10c0,6.67,5.41,12.08,12.08,12.08h45.58c6.67,0,12.08-5.41,12.08-12.08v-27.53
				c0-6.67,5.41-12.08,12.08-12.08h91.11c6.67,0,12.08-5.41,12.08-12.08v-19.38c0-6.67,5.41-12.08,12.08-12.08h7.64
				c6.67,0,12.08-5.41,12.08-12.08v-48.7c1.3-1.3,2.1-3.1,2.1-5.08v-3.4h6.81c3.97,0,7.2-3.22,7.2-7.2v-5.46h6.17
				c3.97,0,7.2-3.22,7.2-7.2S536.91,286.59,532.93,286.59z M102.79,282.31h0.52c2.24,0,4.33,0.62,6.13,1.68h-6.65V282.31z
				 M102.26,302.37c0.33-0.65,0.53-1.38,0.53-2.16v-6.52h10.85C112.19,298.64,107.66,302.27,102.26,302.37z"/>
			<path class="st12" d="M225.23,101.78h123.81c6.67,0,12.08-5.41,12.08-12.08v-3.78c0-6.67,5.41-12.08,12.08-12.08h40.95
				c6.67,0,12.08,5.41,12.08,12.08v3.78c0,6.67,5.41,12.08,12.08,12.08h26.01c6.67,0,12.08,5.41,12.08,12.08v81.36
				c0,6.67,5.41,12.08,12.08,12.08h7.64c6.67,0,12.08,5.41,12.08,12.08v114.57c0,6.67-5.41,12.08-12.08,12.08h-7.64
				c-6.67,0-12.08,5.41-12.08,12.08v19.38c0,6.67-5.41,12.08-12.08,12.08H373.2c-6.67,0-12.08,5.41-12.08,12.08v27.53
				c0,6.67-5.41,12.08-12.08,12.08h-45.58c-6.67,0-12.08-5.41-12.08-12.08v-27.53c0-6.67-5.41-12.08-12.08-12.08h-54.08
				c-6.67,0-12.08,5.41-12.08,12.08v14.96c0,6.67-5.41,12.08-12.08,12.08h-53.18c-6.67,0-12.08-5.41-12.08-12.08v-14.96
				c0-6.67-5.41-12.08-12.08-12.08l0,0c-6.67,0-12.08-5.41-12.08-12.08v-33.12c0-6.67-5.41-12.08-12.08-12.08H59.86
				c-6.67,0-12.08-5.41-12.08-12.08v-42.62c0-6.67,5.41-12.08,12.08-12.08h39.72c6.67,0,12.08-5.41,12.08-12.08v-61.34
				c0-6.67-5.41-12.08-12.08-12.08H81.74c-6.67,0-12.08-5.41-12.08-12.08V73.34c0-6.67,5.41-12.08,12.08-12.08h119.34
				c6.67,0,12.08,5.41,12.08,12.08V89.7C213.15,96.37,218.56,101.78,225.23,101.78z"/>
			
				<pattern  id="SVGID_00000118357388738386139960000005745354259416983685_" xlink:href="#Unnamed_Pattern_10" patternTransform="matrix(0.7083 0 0 0.7083 -2288.4822 -1864.3422)">
			</pattern>
			<path style="fill:url(#SVGID_00000118357388738386139960000005745354259416983685_);" d="M225.23,101.78h123.81
				c6.67,0,12.08-5.41,12.08-12.08v-3.78c0-6.67,5.41-12.08,12.08-12.08h40.95c6.67,0,12.08,5.41,12.08,12.08v3.78
				c0,6.67,5.41,12.08,12.08,12.08h26.01c6.67,0,12.08,5.41,12.08,12.08v81.36c0,6.67,5.41,12.08,12.08,12.08h7.64
				c6.67,0,12.08,5.41,12.08,12.08v114.57c0,6.67-5.41,12.08-12.08,12.08h-7.64c-6.67,0-12.08,5.41-12.08,12.08v19.38
				c0,6.67-5.41,12.08-12.08,12.08H373.2c-6.67,0-12.08,5.41-12.08,12.08v27.53c0,6.67-5.41,12.08-12.08,12.08h-45.58
				c-6.67,0-12.08-5.41-12.08-12.08v-27.53c0-6.67-5.41-12.08-12.08-12.08h-54.08c-6.67,0-12.08,5.41-12.08,12.08v14.96
				c0,6.67-5.41,12.08-12.08,12.08h-53.18c-6.67,0-12.08-5.41-12.08-12.08v-14.96c0-6.67-5.41-12.08-12.08-12.08l0,0
				c-6.67,0-12.08-5.41-12.08-12.08v-33.12c0-6.67-5.41-12.08-12.08-12.08H59.86c-6.67,0-12.08-5.41-12.08-12.08v-42.62
				c0-6.67,5.41-12.08,12.08-12.08h39.72c6.67,0,12.08-5.41,12.08-12.08v-61.34c0-6.67-5.41-12.08-12.08-12.08H81.74
				c-6.67,0-12.08-5.41-12.08-12.08V73.34c0-6.67,5.41-12.08,12.08-12.08h119.34c6.67,0,12.08,5.41,12.08,12.08V89.7
				C213.15,96.37,218.56,101.78,225.23,101.78z"/>
			<path class="st9" d="M525.19,188.89h-7.7v-40.55c0-5.17-4.19-9.36-9.36-9.36h-12.06V97.9c0-5.17-4.19-9.36-9.36-9.36
				c-5.17,0-9.36,4.19-9.36,9.36v41.07H468c-5.17,0-9.36,4.19-9.36,9.36v17.81H447.2c-5.17,0-9.36,4.19-9.36,9.36v59.14
				c0,5.17,4.19,9.36,9.36,9.36h11.05v61.86c0,10.11,8.27,18.38,18.38,18.38h31.76c10.11,0,18.38-8.27,18.38-18.38v-57.84
				c4.42-0.75,7.79-4.58,7.79-9.22v-40.55C534.55,193.08,530.36,188.89,525.19,188.89z"/>
			
				<pattern  id="SVGID_00000129896754947454058240000016414174402424659862_" xlink:href="#Unnamed_Pattern_11" patternTransform="matrix(1.1804 0 0 1.1804 1073.8483 987.9719)">
			</pattern>
			<path style="fill:url(#SVGID_00000129896754947454058240000016414174402424659862_);" d="M525.19,188.89h-7.7v-40.55
				c0-5.17-4.19-9.36-9.36-9.36h-12.06V97.9c0-5.17-4.19-9.36-9.36-9.36c-5.17,0-9.36,4.19-9.36,9.36v41.07H468
				c-5.17,0-9.36,4.19-9.36,9.36v17.81H447.2c-5.17,0-9.36,4.19-9.36,9.36v59.14c0,5.17,4.19,9.36,9.36,9.36h11.05v61.86
				c0,10.11,8.27,18.38,18.38,18.38h31.76c10.11,0,18.38-8.27,18.38-18.38v-57.84c4.42-0.75,7.79-4.58,7.79-9.22v-40.55
				C534.55,193.08,530.36,188.89,525.19,188.89z"/>
			<path class="st9" d="M108.51,45.54h-23.4c-4.96,0-9.1,3.48-10.13,8.12h-8.92c-6.95,0-12.63,5.69-12.63,12.63l0,0
				c0,0.71,0.07,1.41,0.19,2.09H40.79c-7.79,0-14.17,6.37-14.17,14.17v43.81c0,7.79,6.37,14.17,14.17,14.17h63.94
				c7.79,0,14.17-6.37,14.17-14.17V55.93C118.9,50.19,114.25,45.54,108.51,45.54z"/>
			
				<pattern  id="SVGID_00000114768516475686508070000014793516144437250984_" xlink:href="#Unnamed_Pattern_11" patternTransform="matrix(1.1804 0 0 1.1804 1073.8483 987.9719)">
			</pattern>
			<path style="fill:url(#SVGID_00000114768516475686508070000014793516144437250984_);" d="M108.51,45.54h-23.4
				c-4.96,0-9.1,3.48-10.13,8.12h-8.92c-6.95,0-12.63,5.69-12.63,12.63l0,0c0,0.71,0.07,1.41,0.19,2.09H40.79
				c-7.79,0-14.17,6.37-14.17,14.17v43.81c0,7.79,6.37,14.17,14.17,14.17h63.94c7.79,0,14.17-6.37,14.17-14.17V55.93
				C118.9,50.19,114.25,45.54,108.51,45.54z"/>
			<path class="st16" d="M413.24,304.01V180.2c0-6.67,5.41-12.08,12.08-12.08h3.78c6.67,0,12.08-5.41,12.08-12.08v-40.95
				c0-6.67-5.41-12.08-12.08-12.08h-3.78c-6.67,0-12.08-5.41-12.08-12.08v-26c0-6.67-5.41-12.08-12.08-12.08h-81.36
				c-6.67,0-12.08-5.41-12.08-12.08v-7.64c0-6.67-5.41-12.08-12.08-12.08H181.08c-6.67,0-12.08,5.41-12.08,12.08v7.64
				c0,6.67-5.41,12.08-12.08,12.08h-19.38c-6.67,0-12.08,5.41-12.08,12.08v91.11c0,6.67-5.41,12.08-12.08,12.08H85.86
				c-6.67,0-12.08,5.41-12.08,12.08v45.58c0,6.67,5.41,12.08,12.08,12.08h27.53c6.67,0,12.08,5.41,12.08,12.08v54.08
				c0,6.67-5.41,12.08-12.08,12.08H98.43c-6.67,0-12.08,5.41-12.08,12.08v53.18c0,6.67,5.41,12.08,12.08,12.08h14.96
				c6.67,0,12.08,5.41,12.08,12.08l0,0c0,6.67,5.41,12.08,12.08,12.08h33.12c6.67,0,12.08,5.41,12.08,12.08v39.72
				c0,6.67,5.41,12.08,12.08,12.08h42.62c6.67,0,12.08-5.41,12.08-12.08v-39.72c0-6.67,5.41-12.08,12.08-12.08h61.34
				c6.67,0,12.08,5.41,12.08,12.08v17.85c0,6.67,5.41,12.08,12.08,12.08h94.59c6.67,0,12.08-5.41,12.08-12.08V328.16
				c0-6.67-5.41-12.08-12.08-12.08h-16.36C418.65,316.08,413.24,310.68,413.24,304.01z"/>
			
				<pattern  id="SVGID_00000069375409139026832520000004074275162898235814_" xlink:href="#Unnamed_Pattern" patternTransform="matrix(0.3541 0 0 0.3541 -4756.4453 -3951.166)">
			</pattern>
			<path style="fill:url(#SVGID_00000069375409139026832520000004074275162898235814_);" d="M413.24,304.01V180.2
				c0-6.67,5.41-12.08,12.08-12.08h3.78c6.67,0,12.08-5.41,12.08-12.08v-40.95c0-6.67-5.41-12.08-12.08-12.08h-3.78
				c-6.67,0-12.08-5.41-12.08-12.08v-26c0-6.67-5.41-12.08-12.08-12.08h-81.36c-6.67,0-12.08-5.41-12.08-12.08v-7.64
				c0-6.67-5.41-12.08-12.08-12.08H181.08c-6.67,0-12.08,5.41-12.08,12.08v7.64c0,6.67-5.41,12.08-12.08,12.08h-19.38
				c-6.67,0-12.08,5.41-12.08,12.08v91.11c0,6.67-5.41,12.08-12.08,12.08H85.86c-6.67,0-12.08,5.41-12.08,12.08v45.58
				c0,6.67,5.41,12.08,12.08,12.08h27.53c6.67,0,12.08,5.41,12.08,12.08v54.08c0,6.67-5.41,12.08-12.08,12.08H98.43
				c-6.67,0-12.08,5.41-12.08,12.08v53.18c0,6.67,5.41,12.08,12.08,12.08h14.96c6.67,0,12.08,5.41,12.08,12.08l0,0
				c0,6.67,5.41,12.08,12.08,12.08h33.12c6.67,0,12.08,5.41,12.08,12.08v39.72c0,6.67,5.41,12.08,12.08,12.08h42.62
				c6.67,0,12.08-5.41,12.08-12.08v-39.72c0-6.67,5.41-12.08,12.08-12.08h61.34c6.67,0,12.08,5.41,12.08,12.08v17.85
				c0,6.67,5.41,12.08,12.08,12.08h94.59c6.67,0,12.08-5.41,12.08-12.08V328.16c0-6.67-5.41-12.08-12.08-12.08h-16.36
				C418.65,316.08,413.24,310.68,413.24,304.01z"/>
			<g>
				<defs>
					<path id="XMLID_00000056395678493434970220000001594278664023739028_" d="M507.07,715.51h-91.41c-4.92,0-8.92,3.99-8.92,8.92
						v2.79c0,4.92-3.99,8.92-8.92,8.92H367.6c-4.92,0-8.92-3.99-8.92-8.92v-2.79c0-4.92-3.99-8.92-8.92-8.92h-19.2
						c-4.92,0-8.92-3.99-8.92-8.92v-60.07c0-4.92-3.99-8.92-8.92-8.92h-5.64c-4.92,0-8.92-3.99-8.92-8.92v-84.59
						c0-4.92,3.99-8.92,8.92-8.92h5.64c4.92,0,8.92-3.99,8.92-8.92v-14.31c0-4.92,3.99-8.92,8.92-8.92h67.27
						c4.92,0,8.92-3.99,8.92-8.92V473.8c0-4.92,3.99-8.92,8.92-8.92h33.65c4.92,0,8.92,3.99,8.92,8.92v20.33
						c0,4.92,3.99,8.92,8.92,8.92h39.92c4.92,0,8.92-3.99,8.92-8.92v-11.04c0-4.92,3.99-8.92,8.92-8.92h39.27
						c4.92,0,8.92,3.99,8.92,8.92v11.04c0,4.92,3.99,8.92,8.92,8.92l0,0c4.92,0,8.92,3.99,8.92,8.92v24.45
						c0,4.92,3.99,8.92,8.92,8.92h29.32c4.92,0,8.92,3.99,8.92,8.92v31.47c0,4.92-3.99,8.92-8.92,8.92h-29.32
						c-4.92,0-8.92,3.99-8.92,8.92v45.29c0,4.92,3.99,8.92,8.92,8.92h13.18c4.92,0,8.92,3.99,8.92,8.92v69.83
						c0,4.92-3.99,8.92-8.92,8.92h-88.11c-4.92,0-8.92-3.99-8.92-8.92v-12.08C515.99,719.5,512,715.51,507.07,715.51z"/>
				</defs>
				<defs>
					<path id="XMLID_00000036219508136479457550000015314834737073688252_" d="M428.2,715.51h91.41c4.92,0,8.92,3.99,8.92,8.92v2.79
						c0,4.92,3.99,8.92,8.92,8.92h30.24c4.92,0,8.92-3.99,8.92-8.92v-2.79c0-4.92,3.99-8.92,8.92-8.92h19.2
						c4.92,0,8.92-3.99,8.92-8.92v-60.07c0-4.92,3.99-8.92,8.92-8.92h5.64c4.92,0,8.92-3.99,8.92-8.92v-84.59
						c0-4.92-3.99-8.92-8.92-8.92h-5.64c-4.92,0-8.92-3.99-8.92-8.92v-14.31c0-4.92-3.99-8.92-8.92-8.92h-67.27
						c-4.92,0-8.92-3.99-8.92-8.92V473.8c0-4.92-3.99-8.92-8.92-8.92h-33.65c-4.92,0-8.92,3.99-8.92,8.92v20.33
						c0,4.92-3.99,8.92-8.92,8.92H428.2c-4.92,0-8.92-3.99-8.92-8.92v-11.04c0-4.92-3.99-8.92-8.92-8.92H371.1
						c-4.92,0-8.92,3.99-8.92,8.92v11.04c0,4.92-3.99,8.92-8.92,8.92l0,0c-4.92,0-8.92,3.99-8.92,8.92v24.45
						c0,4.92-3.99,8.92-8.92,8.92h-29.32c-4.92,0-8.92,3.99-8.92,8.92v31.47c0,4.92,3.99,8.92,8.92,8.92h29.32
						c4.92,0,8.92,3.99,8.92,8.92v45.29c0,4.92-3.99,8.92-8.92,8.92h-13.18c-4.92,0-8.92,3.99-8.92,8.92v69.83
						c0,4.92,3.99,8.92,8.92,8.92h88.11c4.92,0,8.92-3.99,8.92-8.92v-12.08C419.28,719.5,423.28,715.51,428.2,715.51z"/>
				</defs>
				<use xlink:href="#XMLID_00000056395678493434970220000001594278664023739028_"  style="overflow:visible;fill:#E5CC90;"/>
				<use xlink:href="#XMLID_00000036219508136479457550000015314834737073688252_"  style="overflow:visible;fill:#47A56C;"/>
				<clipPath id="XMLID_00000014596261049970251420000002664228521415092128_">
					<use xlink:href="#XMLID_00000056395678493434970220000001594278664023739028_"  style="overflow:visible;"/>
				</clipPath>
				
					<clipPath id="XMLID_00000178918714289585894580000002829884262642451346_" style="clip-path:url(#XMLID_00000014596261049970251420000002664228521415092128_);">
					<use xlink:href="#XMLID_00000036219508136479457550000015314834737073688252_"  style="overflow:visible;"/>
				</clipPath>
				<g style="clip-path:url(#XMLID_00000178918714289585894580000002829884262642451346_);">
					<path class="st12" d="M623.88,722.2h-20.4c-15.14,0-27.46-12.32-27.46-27.46c0-11.89-9.67-21.56-21.56-21.56h-35.72
						c-15.14,0-27.46-12.32-27.46-27.46v-10.67c0-5.63-2.16-10.96-6.08-15.01l-18.61-19.2c-4.04-4.17-9.68-6.56-15.48-6.56h-29.47
						v-5.9h29.47c7.39,0,14.58,3.04,19.72,8.35l18.61,19.2c4.99,5.15,7.74,11.94,7.74,19.11v10.67c0,11.89,9.67,21.56,21.56,21.56
						h35.72c15.14,0,27.46,12.32,27.46,27.46c0,11.89,9.67,21.56,21.56,21.56h20.4V722.2z"/>
				</g>
				<g style="clip-path:url(#XMLID_00000178918714289585894580000002829884262642451346_);">
					<path class="st12" d="M385.89,765.18h-5.9v-65.99c0-18.2,14.8-33,33-33c14.94,0,27.1-12.16,27.1-27.1v-3.89
						c0-5.03-1.4-9.96-4.04-14.24L407.1,574.1c-6.4-10.36-6.58-23.34-0.48-33.88l22.1-38.15c2.39-4.12,3.65-8.82,3.65-13.58
						c0-0.24,0.36-18.15,0.36-25.99h5.9c0,7.9-0.35,25.87-0.36,26.05c0,5.74-1.54,11.46-4.44,16.48l-22.1,38.15
						c-5.01,8.65-4.86,19.31,0.39,27.82l28.94,46.86c3.22,5.21,4.92,11.21,4.92,17.34v3.89c0,18.2-14.8,33-33,33
						c-14.94,0-27.1,12.16-27.1,27.1V765.18z"/>
				</g>
			</g>
			
				<pattern  id="SVGID_00000056412900467855805330000016276552736977187730_" xlink:href="#Unnamed_Pattern" patternTransform="matrix(0.3541 0 0 0.3541 -4790.3452 -3953.5549)">
			</pattern>
			<path style="fill:url(#SVGID_00000056412900467855805330000016276552736977187730_);" d="M426.5,715.51h91.41
				c4.92,0,8.92,3.99,8.92,8.92v2.79c0,4.92,3.99,8.92,8.92,8.92h30.24c4.92,0,8.92-3.99,8.92-8.92v-2.79
				c0-4.92,3.99-8.92,8.92-8.92h19.2c4.92,0,8.92-3.99,8.92-8.92v-60.07c0-4.92,3.99-8.92,8.92-8.92h5.64
				c4.92,0,8.92-3.99,8.92-8.92v-84.59c0-4.92-3.99-8.92-8.92-8.92h-5.64c-4.92,0-8.92-3.99-8.92-8.92v-14.31
				c0-4.92-3.99-8.92-8.92-8.92h-67.27c-4.92,0-8.92-3.99-8.92-8.92V473.8c0-4.92-3.99-8.92-8.92-8.92h-33.65
				c-4.92,0-8.92,3.99-8.92,8.92v20.33c0,4.92-3.99,8.92-8.92,8.92H426.5c-4.92,0-8.92-3.99-8.92-8.92v-11.04
				c0-4.92-3.99-8.92-8.92-8.92H369.4c-4.92,0-8.92,3.99-8.92,8.92v11.04c0,4.92-3.99,8.92-8.92,8.92l0,0
				c-4.92,0-8.92,3.99-8.92,8.92v24.45c0,4.92-3.99,8.92-8.92,8.92h-29.32c-4.92,0-8.92,3.99-8.92,8.92v31.47
				c0,4.92,3.99,8.92,8.92,8.92h29.32c4.92,0,8.92,3.99,8.92,8.92v45.29c0,4.92-3.99,8.92-8.92,8.92h-13.18
				c-4.92,0-8.92,3.99-8.92,8.92v69.83c0,4.92,3.99,8.92,8.92,8.92h88.11c4.92,0,8.92-3.99,8.92-8.92v-12.08
				C417.58,719.5,421.57,715.51,426.5,715.51z"/>
			<path class="st21" d="M441.34,348.23h-8.42v-3.34c0-3.8-3.08-6.88-6.88-6.88h-29.84v-3.25c0-3.8-3.08-6.88-6.88-6.88h-21.6
				c-3.8,0-6.88,3.08-6.88,6.88v3.25h-6.52c-3.8,0-6.88,3.08-6.88,6.88v5.22h-5.9c-3.8,0-6.88,3.08-6.88,6.88s3.08,6.88,6.88,6.88
				h5.9v6.04c0,3.8,3.08,6.88,6.88,6.88h21.14v0.8c0,3.8,3.08,6.88,6.88,6.88h18.97c3.8,0,6.88-3.08,6.88-6.88v-0.8h17.85
				c3.8,0,6.88-3.08,6.88-6.88v-5.02h8.42c3.8,0,6.88-3.08,6.88-6.88v-2.9C448.22,351.31,445.14,348.23,441.34,348.23z"/>
			<path class="st12" d="M223.04,164.6h5.84v2.32c0,2.64,2.14,4.77,4.77,4.77h20.7v2.26c0,2.64,2.14,4.77,4.77,4.77h14.98
				c2.64,0,4.77-2.14,4.77-4.77v-2.26h4.52c2.64,0,4.77-2.14,4.77-4.77v-3.62h4.09c2.64,0,4.77-2.14,4.77-4.77
				c0-2.64-2.14-4.77-4.77-4.77h-4.09v-4.19c0-2.64-2.14-4.77-4.77-4.77h-14.66v-0.56c0-2.64-2.14-4.77-4.77-4.77H250.8
				c-2.64,0-4.77,2.14-4.77,4.77v0.56h-12.38c-2.64,0-4.77,2.14-4.77,4.77v3.48h-5.84c-2.64,0-4.77,2.14-4.77,4.77v2.01
				C218.26,162.46,220.4,164.6,223.04,164.6z"/>
			<path class="st21" d="M257.36,348.23h-14.92v-4.72c0-3.54-2.87-6.41-6.41-6.41h-46.35v-2.7c0-3.54-2.87-6.41-6.41-6.41h-37.11
				c-3.54,0-6.41,2.87-6.41,6.41v2.7h-12.14c-3.54,0-6.41,2.87-6.41,6.41v4.72h-8.43c-3.54,0-6.41,2.87-6.41,6.41
				s2.87,6.41,6.41,6.41h8.43v8.63c0,3.54,2.87,6.41,6.41,6.41h20.1c-0.11,0.48-0.19,0.97-0.19,1.49v4.72
				c0,3.54,2.87,6.41,6.41,6.41h19.23c3.54,0,6.41-2.87,6.41-6.41v-4.72c0-0.52-0.08-1.01-0.19-1.49h56.65
				c3.54,0,6.41-2.87,6.41-6.41v-8.63h14.92c3.54,0,6.41-2.87,6.41-6.41S260.9,348.23,257.36,348.23z"/>
			<path class="st21" d="M139.38,136.04h19.64v4.47c0,2.47,2,4.47,4.47,4.47H172v5.47c0,2.47,2,4.47,4.47,4.47h28.27
				c2.47,0,4.47-2,4.47-4.47v-5.47h10.44c2.47,0,4.47-2,4.47-4.47v-4.47h7.46c2.47,0,4.47-2,4.47-4.47v-1.49
				c0-2.47-2-4.47-4.47-4.47h-7.46v-4.27c0-2.47-2-4.47-4.47-4.47h-8.45v-3.68c0-2.47-2-4.47-4.47-4.47h-19.39
				c-2.47,0-4.47,2-4.47,4.47v3.68h-19.39c-2.47,0-4.47,2-4.47,4.47v5.76h-19.64c-2.47,0-4.47,2-4.47,4.47
				C134.91,134.04,136.91,136.04,139.38,136.04z"/>
			<g>
				<rect x="201.89" y="315.17" class="st22" width="1.5" height="12.89"/>
				<circle class="st23" cx="202.64" cy="306.52" r="9.61"/>
				<path class="st24" d="M207.61,298.29c0.88,1.45,1.38,3.15,1.38,4.97c0,5.31-4.3,9.61-9.61,9.61c-1.82,0-3.52-0.5-4.97-1.38
					c1.68,2.78,4.74,4.64,8.23,4.64c5.31,0,9.61-4.3,9.61-9.61C212.25,303.03,210.39,299.98,207.61,298.29z"/>
			</g>
			<g>
				<rect x="403.91" y="91.18" class="st22" width="0.98" height="8.43"/>
				<path class="st23" d="M410.68,85.53c0,3.47-2.81,6.28-6.28,6.28c-3.47,0-6.28-2.81-6.28-6.28c0-3.47,2.81-6.28,6.28-6.28
					C407.87,79.24,410.68,82.06,410.68,85.53z"/>
				<path class="st24" d="M407.65,80.15c0.57,0.95,0.9,2.06,0.9,3.25c0,3.47-2.81,6.28-6.28,6.28c-1.19,0-2.3-0.33-3.25-0.9
					c1.1,1.82,3.1,3.04,5.38,3.04c3.47,0,6.28-2.81,6.28-6.28C410.68,83.24,409.47,81.25,407.65,80.15z"/>
			</g>
			<g>
				<rect x="332.56" y="91.08" class="st22" width="1.15" height="9.87"/>
				<path class="st23" d="M338.32,84.74c0,4.06-2.32,7.08-5.18,7.08c-2.86,0-5.18-3.02-5.18-7.08s5.18-15.29,5.18-15.29
					S338.32,80.67,338.32,84.74z"/>
				<path class="st24" d="M336.53,77.71c0.73,6.76-1.79,12.56-5.88,13.21c-0.03,0-0.06,0.01-0.08,0.01c0.76,0.57,1.63,0.9,2.56,0.9
					c2.86,0,5.18-3.02,5.18-7.08C338.32,83.13,337.51,80.41,336.53,77.71z"/>
			</g>
			<path class="st9" d="M402.31,137.94v-0.87c0-0.6-0.49-1.08-1.08-1.08h-4.56c-0.6,0-1.08-0.49-1.08-1.08V99.34
				c0-0.6-0.49-1.08-1.08-1.08h-57.64c-0.6,0-1.08,0.49-1.08,1.08v22.57c0,0.6-0.49,1.08-1.08,1.08h-33.06
				c-0.6,0-1.08,0.49-1.08,1.08v5.79c0,0.6,0.49,1.08,1.08,1.08h8.86c0.6,0,1.08,0.49,1.08,1.08v2.87c0,0.6,0.49,1.08,1.08,1.08
				h12.07c0.6,0,1.08-0.49,1.08-1.08v-2.87c0-0.6,0.49-1.08,1.08-1.08h7.8c0.6,0,1.08,0.49,1.08,1.08v8.39
				c0,0.6-0.49,1.08-1.08,1.08h-5.02c-0.6,0-1.08,0.49-1.08,1.08v1.4c0,0.6-0.49,1.08-1.08,1.08h-0.61c-0.6,0-1.08,0.49-1.08,1.08
				v0.97c0,0.6,0.49,1.08,1.08,1.08h0.61c0.6,0,1.08,0.49,1.08,1.08v1.05c0,0.6,0.49,1.08,1.08,1.08h7.05c0.6,0,1.08,0.49,1.08,1.08
				l0,0c0,0.6,0.49,1.08,1.08,1.08h9.28c0.6,0,1.08-0.49,1.08-1.08l0,0c0-0.6,0.49-1.08,1.08-1.08h3.22c0.6,0,1.08-0.49,1.08-1.08
				v-5.93c0-0.6,0.49-1.08,1.08-1.08h12.42c0.6,0,1.08,0.49,1.08,1.08v1.52c0,0.6,0.49,1.08,1.08,1.08h3.21
				c0.6,0,1.08,0.49,1.08,1.08v1.01c0,0.6,0.49,1.08,1.08,1.08h14.55c0.6,0,1.08-0.49,1.08-1.08v-1.01c0-0.6,0.49-1.08,1.08-1.08
				h8.82c0.6,0,1.08-0.49,1.08-1.08v-0.87c0-0.6,0.49-1.08,1.08-1.08h3.3c0.6,0,1.08-0.49,1.08-1.08v-2.79
				c0-0.6-0.49-1.08-1.08-1.08h-3.3C402.8,139.02,402.31,138.54,402.31,137.94z"/>
			
				<pattern  id="SVGID_00000136371579012337923640000004586119936207482545_" xlink:href="#Unnamed_Pattern_11" patternTransform="matrix(1.1804 0 0 1.1804 1073.8483 987.9719)">
			</pattern>
			<path style="fill:url(#SVGID_00000136371579012337923640000004586119936207482545_);" d="M402.31,137.94v-0.87
				c0-0.6-0.49-1.08-1.08-1.08h-4.56c-0.6,0-1.08-0.49-1.08-1.08V99.34c0-0.6-0.49-1.08-1.08-1.08h-57.64
				c-0.6,0-1.08,0.49-1.08,1.08v22.57c0,0.6-0.49,1.08-1.08,1.08h-33.06c-0.6,0-1.08,0.49-1.08,1.08v5.79c0,0.6,0.49,1.08,1.08,1.08
				h8.86c0.6,0,1.08,0.49,1.08,1.08v2.87c0,0.6,0.49,1.08,1.08,1.08h12.07c0.6,0,1.08-0.49,1.08-1.08v-2.87
				c0-0.6,0.49-1.08,1.08-1.08h7.8c0.6,0,1.08,0.49,1.08,1.08v8.39c0,0.6-0.49,1.08-1.08,1.08h-5.02c-0.6,0-1.08,0.49-1.08,1.08v1.4
				c0,0.6-0.49,1.08-1.08,1.08h-0.61c-0.6,0-1.08,0.49-1.08,1.08v0.97c0,0.6,0.49,1.08,1.08,1.08h0.61c0.6,0,1.08,0.49,1.08,1.08
				v1.05c0,0.6,0.49,1.08,1.08,1.08h7.05c0.6,0,1.08,0.49,1.08,1.08l0,0c0,0.6,0.49,1.08,1.08,1.08h9.28c0.6,0,1.08-0.49,1.08-1.08
				l0,0c0-0.6,0.49-1.08,1.08-1.08h3.22c0.6,0,1.08-0.49,1.08-1.08v-5.93c0-0.6,0.49-1.08,1.08-1.08h12.42
				c0.6,0,1.08,0.49,1.08,1.08v1.52c0,0.6,0.49,1.08,1.08,1.08h3.21c0.6,0,1.08,0.49,1.08,1.08v1.01c0,0.6,0.49,1.08,1.08,1.08
				h14.55c0.6,0,1.08-0.49,1.08-1.08v-1.01c0-0.6,0.49-1.08,1.08-1.08h8.82c0.6,0,1.08-0.49,1.08-1.08v-0.87
				c0-0.6,0.49-1.08,1.08-1.08h3.3c0.6,0,1.08-0.49,1.08-1.08v-2.79c0-0.6-0.49-1.08-1.08-1.08h-3.3
				C402.8,139.02,402.31,138.54,402.31,137.94z"/>
			<rect x="361.96" y="98.25" class="st26" width="25.28" height="2.7"/>
			<rect x="361.96" y="75.99" class="st9" width="25.28" height="22.27"/>
			
				<pattern  id="SVGID_00000021827280933436294230000003840964841027928474_" xlink:href="#Unnamed_Pattern_11" patternTransform="matrix(1.1804 0 0 1.1804 1073.8483 987.9719)">
			</pattern>
			
				<rect x="361.96" y="75.99" style="fill:url(#SVGID_00000021827280933436294230000003840964841027928474_);" width="25.28" height="22.27"/>
			<g>
				<rect x="169.12" y="392.19" class="st22" width="2.16" height="18.5"/>
				<circle class="st23" cx="170.19" cy="379.78" r="13.79"/>
				<path class="st24" d="M177.32,367.97c1.26,2.08,1.98,4.52,1.98,7.13c0,7.62-6.17,13.79-13.79,13.79c-2.61,0-5.05-0.72-7.13-1.98
					c2.42,3.99,6.8,6.67,11.81,6.67c7.62,0,13.79-6.17,13.79-13.79C183.98,374.77,181.31,370.39,177.32,367.97z"/>
			</g>
			<g>
				<rect x="374.32" y="425.19" class="st22" width="2.16" height="18.5"/>
				<circle class="st23" cx="375.4" cy="412.79" r="13.79"/>
				<path class="st24" d="M382.52,400.98c1.26,2.08,1.98,4.52,1.98,7.13c0,7.62-6.17,13.79-13.79,13.79c-2.61,0-5.05-0.72-7.13-1.98
					c2.42,3.99,6.8,6.67,11.81,6.67c7.62,0,13.79-6.17,13.79-13.79C389.19,407.78,386.52,403.4,382.52,400.98z"/>
			</g>
			<g>
				<rect x="290.1" y="355.16" class="st22" width="2.16" height="18.5"/>
				<circle class="st23" cx="291.18" cy="342.76" r="13.79"/>
				<path class="st24" d="M298.3,330.95c1.26,2.08,1.98,4.52,1.98,7.13c0,7.62-6.17,13.79-13.79,13.79c-2.61,0-5.05-0.72-7.13-1.98
					c2.42,3.99,6.8,6.67,11.81,6.67c7.62,0,13.79-6.17,13.79-13.79C304.97,337.75,302.3,333.36,298.3,330.95z"/>
			</g>
			<g>
				<rect x="186.66" y="398.03" class="st22" width="1.5" height="12.89"/>
				<circle class="st23" cx="187.41" cy="389.39" r="9.61"/>
				<path class="st24" d="M192.37,381.16c0.88,1.45,1.38,3.15,1.38,4.97c0,5.31-4.3,9.61-9.61,9.61c-1.82,0-3.52-0.5-4.97-1.38
					c1.68,2.78,4.74,4.64,8.23,4.64c5.31,0,9.61-4.3,9.61-9.61C197.02,385.9,195.16,382.84,192.37,381.16z"/>
			</g>
			<g>
				<rect x="301.78" y="91.3" class="st22" width="1.5" height="12.89"/>
				
					<ellipse transform="matrix(0.9247 -0.3808 0.3808 0.9247 -8.6826 121.4306)" class="st23" cx="302.54" cy="82.66" rx="9.61" ry="9.61"/>
				<path class="st24" d="M307.5,74.43c0.88,1.45,1.38,3.15,1.38,4.97c0,5.31-4.3,9.61-9.61,9.61c-1.82,0-3.52-0.5-4.97-1.38
					c1.68,2.78,4.74,4.64,8.23,4.64c5.31,0,9.61-4.3,9.61-9.61C312.15,79.17,310.29,76.11,307.5,74.43z"/>
			</g>
			<g>
				<rect x="238.45" y="198.83" class="st22" width="1.5" height="12.89"/>
				
					<ellipse transform="matrix(0.2306 -0.9731 0.9731 0.2306 -1.0081 379.1004)" class="st23" cx="239.21" cy="190.19" rx="9.61" ry="9.61"/>
				<path class="st24" d="M244.17,181.96c0.88,1.45,1.38,3.15,1.38,4.97c0,5.31-4.3,9.61-9.61,9.61c-1.82,0-3.52-0.5-4.97-1.38
					c1.68,2.78,4.74,4.64,8.23,4.64c5.31,0,9.61-4.3,9.61-9.61C248.82,186.7,246.96,183.64,244.17,181.96z"/>
			</g>
			<g>
				<rect x="281.71" y="269.85" class="st22" width="2.16" height="18.5"/>
				<path class="st23" d="M292.51,257.96c0,7.62-4.35,13.28-9.72,13.28c-5.37,0-9.72-5.66-9.72-13.28s9.72-28.67,9.72-28.67
					S292.51,250.34,292.51,257.96z"/>
				<path class="st24" d="M289.16,244.78c1.36,12.67-3.35,23.53-11.02,24.76c-0.05,0.01-0.11,0.01-0.16,0.02
					c1.42,1.07,3.06,1.68,4.8,1.68c5.37,0,9.72-5.66,9.72-13.28C292.51,254.95,290.99,249.85,289.16,244.78z"/>
			</g>
			<g>
				<rect x="309.95" y="269.85" class="st22" width="2.16" height="18.5"/>
				<path class="st23" d="M320.74,257.96c0,7.62-4.35,13.28-9.72,13.28c-5.37,0-9.72-5.66-9.72-13.28s9.72-28.67,9.72-28.67
					S320.74,250.34,320.74,257.96z"/>
				<path class="st24" d="M317.4,244.78c1.36,12.67-3.35,23.53-11.02,24.76c-0.05,0.01-0.11,0.01-0.16,0.02
					c1.42,1.07,3.06,1.68,4.8,1.68c5.37,0,9.72-5.66,9.72-13.28C320.74,254.95,319.23,249.85,317.4,244.78z"/>
			</g>
			<g>
				<path class="st28" d="M205.55,319.28l-21.3,36.9h59.51l-21.3-36.9C218.69,312.77,209.3,312.77,205.55,319.28z"/>
				<path class="st29" d="M204.85,322.03c1.52,0,1.52,2.63,3.05,2.63c1.52,0,1.52-2.63,3.05-2.63c1.52,0,1.52,2.63,3.05,2.63
					c1.52,0,1.52-2.63,3.05-2.63c1.52,0,1.52,2.63,3.05,2.63c1.52,0,1.52-2.63,3.05-2.63c1.18,0,1.45,1.58,2.22,2.29l-1.39-2.41
					c-4.43-7.68-15.51-7.68-19.95,0l-1.38,2.39C203.4,323.59,203.67,322.03,204.85,322.03z"/>
				<path class="st24" d="M225.42,324.43c-1.71,13.16-9.01,24.56-19.44,31.74h37.76L225.42,324.43z"/>
			</g>
			<g>
				<path class="st28" d="M230.13,36.32l-21.3,36.9h59.51l-21.3-36.9C243.27,29.82,233.88,29.82,230.13,36.32z"/>
				<path class="st29" d="M229.42,39.08c1.52,0,1.52,2.63,3.05,2.63c1.52,0,1.52-2.63,3.05-2.63c1.52,0,1.52,2.63,3.05,2.63
					c1.52,0,1.52-2.63,3.05-2.63c1.52,0,1.52,2.63,3.05,2.63c1.52,0,1.52-2.63,3.05-2.63c1.18,0,1.45,1.58,2.22,2.29l-1.39-2.41
					c-4.43-7.68-15.51-7.68-19.95,0l-1.38,2.39C227.98,40.64,228.25,39.08,229.42,39.08z"/>
				<path class="st24" d="M250,41.48c-1.71,13.16-9.01,24.56-19.44,31.74h37.76L250,41.48z"/>
			</g>
			<g>
				<path class="st28" d="M260.39,47.7l-14.74,25.53h41.16L272.08,47.7C269.48,43.2,262.99,43.2,260.39,47.7z"/>
				<path class="st29" d="M259.91,49.6c1.05,0,1.05,1.82,2.11,1.82c1.05,0,1.05-1.82,2.11-1.82c1.05,0,1.05,1.82,2.11,1.82
					c1.05,0,1.05-1.82,2.11-1.82c1.05,0,1.05,1.82,2.11,1.82c1.05,0,1.05-1.82,2.11-1.82c0.82,0,1,1.1,1.54,1.59l-0.96-1.67
					c-3.07-5.31-10.73-5.31-13.8,0l-0.95,1.65C258.91,50.68,259.09,49.6,259.91,49.6z"/>
				<path class="st24" d="M274.14,51.27c-1.18,9.1-6.23,16.99-13.45,21.96h26.12L274.14,51.27z"/>
			</g>
			<g>
				<path class="st28" d="M197.09,53.05l-11.6,20.1h32.41l-11.6-20.1C204.25,49.5,199.14,49.5,197.09,53.05z"/>
				<path class="st29" d="M196.71,54.55c0.83,0,0.83,1.44,1.66,1.44c0.83,0,0.83-1.44,1.66-1.44c0.83,0,0.83,1.44,1.66,1.44
					c0.83,0,0.83-1.44,1.66-1.44c0.83,0,0.83,1.44,1.66,1.44c0.83,0,0.83-1.44,1.66-1.44c0.64,0,0.79,0.86,1.21,1.25l-0.76-1.31
					c-2.41-4.18-8.45-4.18-10.86,0l-0.75,1.3C195.92,55.39,196.07,54.55,196.71,54.55z"/>
				<path class="st24" d="M207.92,55.86c-0.93,7.17-4.91,13.37-10.59,17.29h20.57L207.92,55.86z"/>
			</g>
			<g>
				<path class="st28" d="M155.72,301.53l-31.55,54.65h88.13l-31.55-54.65C175.18,291.9,161.28,291.9,155.72,301.53z"/>
				<path class="st29" d="M154.68,305.61c2.26,0,2.26,3.9,4.52,3.9c2.26,0,2.26-3.9,4.51-3.9c2.26,0,2.26,3.9,4.51,3.9
					c2.26,0,2.26-3.9,4.51-3.9c2.26,0,2.26,3.9,4.51,3.9c2.26,0,2.26-3.9,4.52-3.9c1.75,0,2.15,2.35,3.29,3.4l-2.06-3.57
					c-6.56-11.37-22.98-11.37-29.54,0l-2.04,3.54C152.54,307.92,152.94,305.61,154.68,305.61z"/>
				<path class="st24" d="M185.16,309.17c-2.53,19.48-13.34,36.37-28.79,47.01h55.93L185.16,309.17z"/>
			</g>
			<g>
				<rect x="268.9" y="275.24" class="st22" width="1.5" height="12.89"/>
				<circle class="st23" cx="269.65" cy="266.6" r="9.61"/>
				<path class="st24" d="M274.62,258.37c0.88,1.45,1.38,3.15,1.38,4.97c0,5.31-4.3,9.61-9.61,9.61c-1.82,0-3.52-0.5-4.97-1.38
					c1.68,2.78,4.74,4.64,8.23,4.64c5.31,0,9.61-4.3,9.61-9.61C279.26,263.11,277.4,260.05,274.62,258.37z"/>
			</g>
			<g>
				<g>
					<path class="st23" d="M417.51,344.7c-9.51,0-17.22,7.71-17.22,17.22h34.43C434.73,352.4,427.02,344.7,417.51,344.7z"/>
				</g>
				<path class="st24" d="M410.15,361.91h24.58c0-6.17-3.26-11.57-8.14-14.61C423.23,354.07,417.33,359.35,410.15,361.91z"/>
			</g>
			<g>
				<g>
					<path class="st23" d="M360.13,349.91c-6.63,0-12,5.37-12,12h24C372.13,355.29,366.76,349.91,360.13,349.91z"/>
				</g>
				<path class="st24" d="M355,361.91h17.13c0-4.3-2.27-8.06-5.67-10.18C364.12,356.45,360.01,360.13,355,361.91z"/>
			</g>
			<g>
				<g>
					<path class="st21" d="M320.79,110.99c-6.63,0-12,5.37-12,12h24C332.79,116.36,327.42,110.99,320.79,110.99z"/>
				</g>
				<path class="st24" d="M315.66,122.99h17.13c0-4.3-2.27-8.06-5.67-10.18C324.77,117.52,320.67,121.2,315.66,122.99z"/>
			</g>
			<g>
				<g>
					<path class="st21" d="M238.47,76.7c-4,0-7.25,3.24-7.25,7.25h14.49C245.72,79.94,242.47,76.7,238.47,76.7z"/>
				</g>
				<path class="st24" d="M235.37,83.94h10.35c0-2.6-1.37-4.87-3.42-6.15C240.88,80.64,238.4,82.87,235.37,83.94z"/>
			</g>
			<g>
				<g>
					<path class="st21" d="M353.44,267.61c-4,0-7.25,3.24-7.25,7.25h14.49C360.69,270.86,357.45,267.61,353.44,267.61z"/>
				</g>
				<path class="st24" d="M350.34,274.86h10.35c0-2.6-1.37-4.87-3.42-6.15C355.85,271.56,353.37,273.78,350.34,274.86z"/>
			</g>
			<g>
				<g>
					<path class="st21" d="M396.6,176.59c-4,0-7.25,3.24-7.25,7.25h14.49C403.85,179.84,400.6,176.59,396.6,176.59z"/>
				</g>
				<path class="st24" d="M393.5,183.84h10.35c0-2.6-1.37-4.87-3.42-6.15C399.01,180.54,396.53,182.76,393.5,183.84z"/>
			</g>
			<g>
				<g>
					<path class="st21" d="M382.11,160.82c-4,0-7.25,3.24-7.25,7.25h14.49C389.35,164.07,386.11,160.82,382.11,160.82z"/>
				</g>
				<path class="st24" d="M379.01,168.07h10.35c0-2.6-1.37-4.87-3.42-6.15C384.51,164.77,382.03,166.99,379.01,168.07z"/>
			</g>
			<g>
				<g>
					<path class="st21" d="M378.5,297.47c-4,0-7.25,3.24-7.25,7.25h14.49C385.75,300.71,382.5,297.47,378.5,297.47z"/>
				</g>
				<path class="st24" d="M375.4,304.71h10.35c0-2.6-1.37-4.87-3.42-6.15C380.91,301.41,378.43,303.63,375.4,304.71z"/>
			</g>
			<g>
				<g>
					<path class="st21" d="M163.75,275.47c-4,0-7.25,3.24-7.25,7.25h14.49C170.99,278.72,167.75,275.47,163.75,275.47z"/>
				</g>
				<path class="st24" d="M160.64,282.72h10.35c0-2.6-1.37-4.87-3.42-6.15C166.15,279.42,163.67,281.64,160.64,282.72z"/>
			</g>
			<g>
				<g>
					<path class="st21" d="M345.67,394.41c-4,0-7.25,3.24-7.25,7.25h14.49C352.92,397.66,349.67,394.41,345.67,394.41z"/>
				</g>
				<path class="st24" d="M342.57,401.66h10.35c0-2.6-1.37-4.87-3.42-6.15C348.08,398.36,345.59,400.58,342.57,401.66z"/>
			</g>
			<g>
				<g>
					<path class="st21" d="M158.33,59.1c-5.61,0-10.17,4.55-10.17,10.17h20.33C168.49,63.65,163.94,59.1,158.33,59.1z"/>
				</g>
				<path class="st24" d="M153.97,69.26h14.52c0-3.64-1.92-6.83-4.8-8.63C161.7,64.63,158.22,67.75,153.97,69.26z"/>
			</g>
			<g>
				<g>
					<path class="st21" d="M231.75,205.63c-6.63,0-12,5.37-12,12h24C243.75,211,238.38,205.63,231.75,205.63z"/>
				</g>
				<path class="st24" d="M226.62,217.63h17.13c0-4.3-2.27-8.06-5.67-10.18C235.73,212.16,231.63,215.84,226.62,217.63z"/>
			</g>
			<g>
				<g>
					<path class="st21" d="M394.12,63.99c-6.63,0-12,5.37-12,12h24C406.12,69.36,400.75,63.99,394.12,63.99z"/>
				</g>
				<path class="st24" d="M388.99,75.99h17.13c0-4.3-2.27-8.06-5.67-10.18C398.11,70.52,394,74.2,388.99,75.99z"/>
			</g>
			<g>
				<g>
					<path class="st21" d="M354.65,67.63c-4.62,0-8.36,3.74-8.36,8.36h16.72C363.01,71.37,359.26,67.63,354.65,67.63z"/>
				</g>
				<path class="st24" d="M351.07,75.99h11.94c0-3-1.58-5.62-3.95-7.09C357.42,72.18,354.56,74.75,351.07,75.99z"/>
			</g>
			<g>
				<g>
					<path class="st21" d="M373.98,60.55c-8.53,0-15.44,6.91-15.44,15.44h30.88C389.42,67.46,382.51,60.55,373.98,60.55z"/>
				</g>
				<path class="st24" d="M367.38,75.99h22.05c0-5.53-2.92-10.37-7.3-13.1C379.11,68.96,373.82,73.69,367.38,75.99z"/>
			</g>
			<g>
				<g>
					<path class="st23" d="M391.26,337.21c-13.64,0-24.7,11.06-24.7,24.7h49.41C415.97,348.27,404.91,337.21,391.26,337.21z"/>
				</g>
				<path class="st24" d="M380.69,361.91h35.28c0-8.85-4.67-16.6-11.67-20.96C399.46,350.66,391.01,358.24,380.69,361.91z"/>
			</g>
			<g>
				<g>
					<path class="st23" d="M160.71,121.97c-6.63,0-12,5.37-12,12h24C172.71,127.35,167.33,121.97,160.71,121.97z"/>
				</g>
				<path class="st24" d="M155.57,133.97h17.13c0-4.3-2.27-8.06-5.67-10.18C164.69,128.51,160.58,132.19,155.57,133.97z"/>
			</g>
			<g>
				<g>
					<path class="st23" d="M191.83,109.27c-13.64,0-24.7,11.06-24.7,24.7h49.41C216.54,120.33,205.48,109.27,191.83,109.27z"/>
				</g>
				<path class="st24" d="M181.26,133.97h35.28c0-8.85-4.67-16.6-11.67-20.96C200.04,122.72,191.58,130.3,181.26,133.97z"/>
			</g>
			<g>
				<path class="st21" d="M392.5,88.28h-2.34c-3.59,0-6.49,2.91-6.49,6.49v16.22h15.33V94.77C398.99,91.19,396.08,88.28,392.5,88.28
					z"/>
				<path class="st24" d="M397.96,92.12c-2.03,7.57-7.33,13.79-14.3,17.06v1.81h15.33V95.95C398.99,94.55,398.61,93.24,397.96,92.12
					z"/>
			</g>
			<g>
				<path class="st21" d="M342.86,88.44h-1.55c-2.37,0-4.3,1.92-4.3,4.3v10.74h10.15V92.73C347.16,90.36,345.24,88.44,342.86,88.44z
					"/>
				<path class="st24" d="M346.48,90.98c-1.34,5.01-4.85,9.13-9.47,11.3v1.2h10.15v-9.96C347.16,92.59,346.91,91.72,346.48,90.98z"
					/>
			</g>
			<g>
				<path class="st21" d="M405.6,98.25h-3.51c-5.37,0-9.73,4.36-9.73,9.73v24.3h22.97v-24.3C415.33,102.61,410.97,98.25,405.6,98.25
					z"/>
				<path class="st24" d="M413.79,104c-3.04,11.34-10.99,20.66-21.42,25.57v2.71h22.97v-22.54
					C415.33,107.65,414.76,105.69,413.79,104z"/>
			</g>
			<g>
				<path class="st21" d="M322.55,178.72h-3.51c-5.37,0-9.73,4.36-9.73,9.73v24.3h22.97v-24.3
					C332.28,183.07,327.92,178.72,322.55,178.72z"/>
				<path class="st24" d="M330.73,184.47c-3.04,11.34-10.98,20.66-21.42,25.57v2.71h22.97V190.2
					C332.28,188.11,331.71,186.15,330.73,184.47z"/>
			</g>
			<g>
				<path class="st21" d="M387.25,107.55L387.25,107.55c-4.61,0-8.34,3.73-8.34,8.34v16.37h16.68v-16.37
					C395.59,111.28,391.85,107.55,387.25,107.55z"/>
				<path class="st24" d="M394.46,111.72c-2.21,8.23-7.98,15.01-15.56,18.57v1.97h16.68v-16.37
					C395.59,114.37,395.17,112.95,394.46,111.72z"/>
			</g>
			<g>
				<path class="st21" d="M334.65,295.52L334.65,295.52c-4.61,0-8.34,3.73-8.34,8.34v16.37h16.68v-16.37
					C342.99,299.25,339.25,295.52,334.65,295.52z"/>
				<path class="st24" d="M341.86,299.69c-2.21,8.23-7.98,15.01-15.56,18.57v1.97h16.68v-16.37
					C342.99,302.34,342.57,300.92,341.86,299.69z"/>
			</g>
			<g>
				<path class="st21" d="M334.65,203.84L334.65,203.84c-4.61,0-8.34,3.73-8.34,8.34v16.37h16.68v-16.37
					C342.99,207.57,339.25,203.84,334.65,203.84z"/>
				<path class="st24" d="M341.86,208.01c-2.21,8.23-7.98,15.01-15.56,18.57v1.97h16.68v-16.37
					C342.99,210.66,342.57,209.24,341.86,208.01z"/>
			</g>
			<g>
				<path class="st21" d="M306.22,198.35L306.22,198.35c-3.25,0-5.88,2.63-5.88,5.88v11.55h11.77v-11.55
					C312.11,200.98,309.47,198.35,306.22,198.35z"/>
				<path class="st24" d="M311.32,201.29c-1.56,5.81-5.63,10.58-10.97,13.1v1.39h11.77v-11.55
					C312.11,203.16,311.82,202.16,311.32,201.29z"/>
			</g>
			<g>
				<path class="st21" d="M352.14,301.09h-3.59c-5.49,0-9.94,4.45-9.94,9.94v24.82h23.46v-24.82
					C362.07,305.54,357.62,301.09,352.14,301.09z"/>
				<path class="st24" d="M360.5,306.96c-3.11,11.58-11.22,21.11-21.89,26.12v2.77h23.46v-23.03
					C362.07,310.68,361.49,308.69,360.5,306.96z"/>
			</g>
			<g>
				<path class="st21" d="M159.71,158.08L159.71,158.08c-4.23,0-7.66,3.43-7.66,7.66v15.05h15.33v-15.05
					C167.37,161.51,163.94,158.08,159.71,158.08z"/>
				<path class="st24" d="M166.34,161.92c-2.03,7.57-7.33,13.79-14.3,17.06v1.81h15.33v-15.05
					C167.37,164.35,166.99,163.04,166.34,161.92z"/>
			</g>
			<g>
				<path class="st21" d="M172.23,168.05L172.23,168.05c-6.34,0-11.48,5.14-11.48,11.48v22.54h22.97v-22.54
					C183.71,173.2,178.57,168.05,172.23,168.05z"/>
				<path class="st24" d="M182.17,173.8c-3.04,11.34-10.98,20.66-21.42,25.57v2.71h22.97v-22.54
					C183.71,177.45,183.14,175.49,182.17,173.8z"/>
			</g>
			<g>
				<path class="st21" d="M155.63,177.35L155.63,177.35c-4.61,0-8.34,3.73-8.34,8.34v16.37h16.68v-16.37
					C163.97,181.08,160.23,177.35,155.63,177.35z"/>
				<path class="st24" d="M162.85,181.52c-2.21,8.23-7.98,15.01-15.56,18.57v1.97h16.68v-16.37
					C163.97,184.17,163.56,182.75,162.85,181.52z"/>
			</g>
			<g>
				<path class="st21" d="M217.9,193.52L217.9,193.52c-4.61,0-8.34,3.73-8.34,8.34v16.37h16.68v-16.37
					C226.24,197.25,222.51,193.52,217.9,193.52z"/>
				<path class="st24" d="M225.12,197.69c-2.21,8.23-7.98,15.01-15.56,18.57v1.97h16.68v-16.37
					C226.24,200.34,225.83,198.92,225.12,197.69z"/>
			</g>
			<g>
				<g>
					<path class="st21" d="M337.81,97.47c-6.63,0-12,5.37-12,12h24C349.81,102.84,344.44,97.47,337.81,97.47z"/>
				</g>
				<path class="st24" d="M332.68,109.47h17.13c0-4.3-2.27-8.06-5.67-10.18C341.79,104.01,337.69,107.69,332.68,109.47z"/>
			</g>
			<g>
				<path class="st21" d="M354.3,80.76L354.3,80.76c-4.23,0-7.66,3.43-7.66,7.66v15.05h15.33V88.43
					C361.96,84.19,358.53,80.76,354.3,80.76z"/>
				<path class="st24" d="M360.93,84.6c-2.03,7.57-7.33,13.79-14.3,17.06v1.81h15.33V88.43C361.96,87.03,361.59,85.73,360.93,84.6z"
					/>
			</g>
			<g>
				<g>
					<path class="st21" d="M341.25,107.55c-8.53,0-15.44,6.91-15.44,15.44h30.88C356.69,114.46,349.78,107.55,341.25,107.55z"/>
				</g>
				<path class="st24" d="M334.65,122.99h22.05c0-5.53-2.92-10.37-7.3-13.1C346.38,115.96,341.09,120.69,334.65,122.99z"/>
			</g>
			<g>
				<g>
					<path class="st21" d="M250.76,77.52c-5.15,0-9.33,4.18-9.33,9.33h18.65C260.08,81.7,255.91,77.52,250.76,77.52z"/>
				</g>
				<path class="st24" d="M246.77,86.85h13.32c0-3.34-1.76-6.27-4.41-7.91C253.85,82.6,250.66,85.46,246.77,86.85z"/>
			</g>
			<g>
				<g>
					<path class="st21" d="M363.39,271.08c-5.15,0-9.33,4.18-9.33,9.33h18.65C372.71,275.26,368.54,271.08,363.39,271.08z"/>
				</g>
				<path class="st24" d="M359.39,280.41h13.32c0-3.34-1.76-6.27-4.41-7.91C366.48,276.16,363.29,279.02,359.39,280.41z"/>
			</g>
			<g>
				<g>
					<path class="st21" d="M172.83,279.37c-5.15,0-9.33,4.17-9.33,9.33h18.65C182.16,283.55,177.98,279.37,172.83,279.37z"/>
				</g>
				<path class="st24" d="M168.84,288.7h13.32c0-3.34-1.76-6.27-4.41-7.91C175.93,284.45,172.74,287.31,168.84,288.7z"/>
			</g>
			<g>
				<g>
					<path class="st21" d="M306.22,385.42c-5.15,0-9.33,4.17-9.33,9.33h18.65C315.55,389.59,311.37,385.42,306.22,385.42z"/>
				</g>
				<path class="st24" d="M302.23,394.74h13.32c0-3.34-1.76-6.27-4.41-7.91C309.32,390.49,306.13,393.36,302.23,394.74z"/>
			</g>
			<g>
				<g>
					<path class="st21" d="M333.24,396.32c-5.15,0-9.33,4.18-9.33,9.33h18.65C342.57,400.49,338.39,396.32,333.24,396.32z"/>
				</g>
				<path class="st24" d="M329.25,405.64h13.32c0-3.34-1.76-6.27-4.41-7.91C336.34,401.4,333.15,404.26,329.25,405.64z"/>
			</g>
			<g>
				<g>
					<path class="st21" d="M372.52,163.41c-5.15,0-9.33,4.18-9.33,9.33h18.65C381.85,167.58,377.67,163.41,372.52,163.41z"/>
				</g>
				<path class="st24" d="M368.53,172.73h13.32c0-3.34-1.76-6.27-4.41-7.91C375.62,168.48,372.43,171.35,368.53,172.73z"/>
			</g>
			<g>
				<g>
					<path class="st21" d="M219.96,68.39c-5.15,0-9.33,4.18-9.33,9.33h18.65C229.28,72.56,225.11,68.39,219.96,68.39z"/>
				</g>
				<path class="st24" d="M215.97,77.71h13.32c0-3.34-1.76-6.27-4.41-7.91C223.05,73.46,219.86,76.32,215.97,77.71z"/>
			</g>
			<g>
				<rect x="400.29" y="149.98" class="st22" width="1.5" height="12.82"/>
				<path class="st23" d="M407.78,141.74c0,5.28-3.02,9.2-6.73,9.2c-3.72,0-6.73-3.92-6.73-9.2s6.73-19.87,6.73-19.87
					S407.78,136.46,407.78,141.74z"/>
				<path class="st24" d="M405.46,132.61c0.95,8.78-2.32,16.31-7.64,17.16c-0.04,0.01-0.07,0.01-0.11,0.01
					c0.98,0.74,2.12,1.16,3.33,1.16c3.72,0,6.73-3.92,6.73-9.2C407.78,139.66,406.73,136.12,405.46,132.61z"/>
			</g>
			<g>
				<rect x="328.64" y="127.55" class="st22" width="1.5" height="12.82"/>
				<path class="st23" d="M336.13,119.31c0,5.28-3.02,9.2-6.73,9.2c-3.72,0-6.73-3.92-6.73-9.2s6.73-19.87,6.73-19.87
					S336.13,114.03,336.13,119.31z"/>
				<path class="st24" d="M333.81,110.17c0.95,8.78-2.32,16.31-7.64,17.16c-0.04,0.01-0.07,0.01-0.11,0.01
					c0.98,0.74,2.12,1.16,3.33,1.16c3.72,0,6.73-3.92,6.73-9.2C336.13,117.22,335.08,113.69,333.81,110.17z"/>
			</g>
			<g>
				<rect x="178.22" y="70.53" class="st22" width="1.5" height="12.82"/>
				<path class="st23" d="M185.7,62.29c0,5.28-3.02,9.2-6.73,9.2c-3.72,0-6.73-3.92-6.73-9.2s6.73-19.87,6.73-19.87
					S185.7,57.01,185.7,62.29z"/>
				<path class="st24" d="M183.38,53.16c0.95,8.78-2.32,16.31-7.64,17.16c-0.04,0.01-0.07,0.01-0.11,0.01
					c0.98,0.74,2.12,1.16,3.33,1.16c3.72,0,6.73-3.92,6.73-9.2C185.7,60.21,184.65,56.67,183.38,53.16z"/>
			</g>
			<g>
				<rect x="151.3" y="267.12" class="st22" width="1.5" height="12.82"/>
				<path class="st23" d="M158.78,258.88c0,5.28-3.02,9.2-6.73,9.2c-3.72,0-6.73-3.92-6.73-9.2c0-5.28,6.73-19.87,6.73-19.87
					S158.78,253.6,158.78,258.88z"/>
				<path class="st24" d="M156.46,249.75c0.95,8.78-2.32,16.31-7.64,17.16c-0.04,0.01-0.07,0.01-0.11,0.01
					c0.98,0.74,2.12,1.16,3.33,1.16c3.72,0,6.73-3.92,6.73-9.2C158.78,256.8,157.73,253.26,156.46,249.75z"/>
			</g>
			<g>
				<rect x="346.67" y="71.74" class="st22" width="0.98" height="8.43"/>
				<circle class="st23" cx="347.16" cy="66.09" r="6.28"/>
				<path class="st24" d="M350.41,60.71c0.57,0.95,0.9,2.06,0.9,3.25c0,3.47-2.81,6.28-6.28,6.28c-1.19,0-2.3-0.33-3.25-0.9
					c1.1,1.82,3.1,3.04,5.38,3.04c3.47,0,6.28-2.81,6.28-6.28C353.44,63.81,352.23,61.81,350.41,60.71z"/>
			</g>
			<g>
				<rect x="145.37" y="194.35" class="st22" width="2.16" height="18.5"/>
				<path class="st23" d="M156.17,182.45c0,7.62-4.35,13.28-9.72,13.28c-5.37,0-9.72-5.66-9.72-13.28s9.72-28.67,9.72-28.67
					S156.17,174.84,156.17,182.45z"/>
				<path class="st24" d="M152.82,169.28c1.36,12.67-3.35,23.53-11.02,24.76c-0.05,0.01-0.11,0.01-0.16,0.02
					c1.42,1.07,3.06,1.68,4.8,1.68c5.37,0,9.72-5.66,9.72-13.28C156.17,179.45,154.65,174.35,152.82,169.28z"/>
			</g>
			<g>
				<rect x="212.92" y="236.85" class="st22" width="2.16" height="18.5"/>
				<circle class="st23" cx="214" cy="224.44" r="13.79"/>
				<path class="st24" d="M221.12,212.63c1.26,2.08,1.98,4.52,1.98,7.13c0,7.62-6.17,13.79-13.79,13.79c-2.61,0-5.05-0.72-7.13-1.98
					c2.42,3.99,6.8,6.67,11.81,6.67c7.62,0,13.79-6.17,13.79-13.79C227.79,219.43,225.12,215.05,221.12,212.63z"/>
			</g>
			<g>
				<rect x="379.73" y="194.8" class="st22" width="2.16" height="18.5"/>
				
					<ellipse transform="matrix(0.9227 -0.3854 0.3854 0.9227 -40.876 160.8663)" class="st23" cx="380.81" cy="182.39" rx="13.79" ry="13.79"/>
				<path class="st24" d="M387.94,170.58c1.26,2.08,1.98,4.52,1.98,7.13c0,7.62-6.17,13.79-13.79,13.79c-2.61,0-5.05-0.72-7.13-1.98
					c2.42,3.99,6.8,6.67,11.81,6.67c7.62,0,13.79-6.17,13.79-13.79C394.6,177.38,391.93,173,387.94,170.58z"/>
			</g>
			<g>
				<rect x="286.2" y="85.46" class="st22" width="2.16" height="18.5"/>
				<path class="st23" d="M297,73.57c0,7.62-4.35,13.28-9.72,13.28c-5.37,0-9.72-5.66-9.72-13.28s9.72-28.67,9.72-28.67
					S297,65.95,297,73.57z"/>
				<path class="st24" d="M293.65,60.39c1.36,12.67-3.35,23.53-11.02,24.76c-0.05,0.01-0.11,0.01-0.16,0.02
					c1.42,1.07,3.06,1.68,4.8,1.68c5.37,0,9.72-5.66,9.72-13.28C297,70.56,295.48,65.46,293.65,60.39z"/>
			</g>
			<g>
				<rect x="433.86" y="391.8" class="st22" width="2.16" height="18.5"/>
				<path class="st23" d="M444.66,379.91c0,7.62-4.35,13.28-9.72,13.28c-5.37,0-9.72-5.66-9.72-13.28s9.72-28.67,9.72-28.67
					S444.66,372.29,444.66,379.91z"/>
				<path class="st24" d="M441.31,366.73c1.36,12.67-3.35,23.53-11.02,24.76c-0.05,0.01-0.11,0.01-0.16,0.02
					c1.42,1.07,3.06,1.68,4.8,1.68c5.37,0,9.72-5.66,9.72-13.28C444.66,376.9,443.14,371.8,441.31,366.73z"/>
			</g>
			<g>
				<path class="st12" d="M234.85,274.74h-13.3c-22.17,0-42.25-12.24-52.41-31.94l-8.25-16.01l5.25-2.71l8.25,16.01
					c9.14,17.73,27.21,28.75,47.16,28.75h13.3V274.74z"/>
			</g>
			<g>
				<path class="st12" d="M453.58,437.39h-20.4c-15.14,0-27.46-12.32-27.46-27.46c0-11.89-9.67-21.56-21.56-21.56h-35.72
					c-15.14,0-27.46-12.32-27.46-27.46v-10.67c0-5.63-2.16-10.96-6.08-15.01l-18.61-19.2c-4.04-4.17-9.68-6.56-15.48-6.56h-29.47
					v-5.9h29.47c7.39,0,14.58,3.04,19.72,8.35l18.61,19.2c4.99,5.15,7.74,11.94,7.74,19.11v10.67c0,11.89,9.67,21.56,21.56,21.56
					h35.72c15.14,0,27.46,12.32,27.46,27.46c0,11.89,9.67,21.56,21.56,21.56h20.4V437.39z"/>
			</g>
			<g>
				<path class="st12" d="M215.59,480.37h-5.9v-65.99c0-18.2,14.8-33,33-33c14.94,0,27.1-12.16,27.1-27.1v-3.89
					c0-5.03-1.4-9.96-4.04-14.24l-28.94-46.86c-6.4-10.36-6.58-23.34-0.48-33.88l22.1-38.15c2.39-4.12,3.65-8.82,3.65-13.58
					c0-0.24,0.36-18.15,0.36-25.99h5.9c0,7.9-0.35,25.87-0.36,26.05c0,5.74-1.54,11.46-4.44,16.48l-22.1,38.15
					c-5.01,8.65-4.86,19.31,0.39,27.82l28.94,46.86c3.22,5.21,4.92,11.21,4.92,17.34v3.89c0,18.2-14.8,33-33,33
					c-14.94,0-27.1,12.16-27.1,27.1V480.37z"/>
			</g>
			<g>
				<g>
					<rect x="212.04" y="478.01" class="st30" width="1.18" height="2.36"/>
				</g>
				<g>
					<path class="st30" d="M213.22,469.66h-1.18v-4.77h1.18V469.66z M213.22,456.54h-1.18v-4.77h1.18V456.54z M213.22,443.42h-1.18
						v-4.77h1.18V443.42z M213.22,430.3h-1.18v-4.77h1.18V430.3z M213.22,417.18h-1.18v-2.8c0-0.68,0.02-1.35,0.07-2.01l1.18,0.08
						c-0.04,0.64-0.06,1.29-0.06,1.94V417.18z M214.94,404.46l-1.11-0.4c0.54-1.52,1.22-3.01,2-4.43l1.03,0.57
						C216.11,401.57,215.46,403,214.94,404.46z M221.74,393.67l-0.84-0.83c1.14-1.15,2.37-2.22,3.68-3.17l0.7,0.95
						C224.02,391.54,222.83,392.56,221.74,393.67z M232.46,386.75l-0.41-1.11c1.52-0.56,3.09-1.01,4.68-1.32l0.23,1.16
						C235.43,385.78,233.92,386.21,232.46,386.75z M245.19,384.82l-0.1-1.18c1.55-0.13,3.1-0.38,4.61-0.74l0.28,1.15
						C248.42,384.43,246.8,384.69,245.19,384.82z M257.87,380.9l-0.59-1.02c1.35-0.77,2.65-1.66,3.86-2.63l0.74,0.92
						C260.62,379.18,259.27,380.1,257.87,380.9z M267.7,371.98l-0.96-0.68c0.9-1.27,1.71-2.62,2.39-4.01l1.06,0.52
						C269.47,369.26,268.63,370.66,267.7,371.98z M272.84,359.76l-1.16-0.21c0.27-1.52,0.43-3.09,0.46-4.65l1.18,0.02
						C273.29,356.55,273.12,358.17,272.84,359.76z M271.91,346.65c-0.2-1.54-0.52-3.08-0.96-4.57l1.13-0.33
						c0.46,1.55,0.79,3.15,1,4.76L271.91,346.65z M267.58,334.64l-2.51-4.06l1-0.62l2.51,4.06L267.58,334.64z M260.68,323.47
						l-2.51-4.06l1-0.62l2.51,4.06L260.68,323.47z M253.79,312.31l-2.51-4.06l1-0.62l2.51,4.06L253.79,312.31z M246.9,301.15
						l-2.51-4.06l1-0.62l2.51,4.06L246.9,301.15z M240,289.98l-1.19-1.93c-0.44-0.72-0.86-1.47-1.25-2.22l1.05-0.53
						c0.37,0.73,0.78,1.45,1.2,2.14l1.19,1.93L240,289.98z M234.8,277.8c-0.31-1.59-0.49-3.21-0.55-4.83l1.18-0.04
						c0.05,1.56,0.23,3.12,0.53,4.64L234.8,277.8z M236.29,264.82l-1.15-0.29c0.39-1.57,0.91-3.12,1.55-4.61l1.09,0.46
						C237.17,261.83,236.67,263.32,236.29,264.82z M241.74,253.13l-1.02-0.59l2.39-4.13l1.02,0.59L241.74,253.13z M248.31,241.78
						l-1.02-0.59l2.39-4.13l1.02,0.59L248.31,241.78z M254.89,230.42l-1.02-0.59l2.39-4.13l1.02,0.59L254.89,230.42z M261.48,219.04
						l-1.04-0.56l0.02-0.03c0.78-1.34,1.45-2.75,2-4.19l1.1,0.42C262.99,216.19,262.29,217.65,261.48,219.04z M265.49,206.42
						l-1.18-0.11c0.08-0.87,0.12-1.76,0.12-2.63l0.04-2.1l1.18,0.02l-0.04,2.09C265.61,204.59,265.57,205.52,265.49,206.42z
						 M265.79,193.25l-1.18-0.02l0.07-4.77l1.18,0.02L265.79,193.25z"/>
				</g>
				<g>
					<path class="st30" d="M265.96,180.05l-1.18-0.01c0.01-0.85,0.01-1.64,0.01-2.35h1.18C265.97,178.4,265.96,179.2,265.96,180.05z
						"/>
				</g>
			</g>
			<g>
				<path class="st12" d="M175.48,228.38h-44.09c-7.58,0-13.75-6.17-13.75-13.75c0-4.33-3.52-7.84-7.84-7.84H74.26v-5.9h35.53
					c7.58,0,13.75,6.17,13.75,13.75c0,4.33,3.52,7.84,7.84,7.84h44.09c3.16,0,5.99-1.88,7.22-4.78l9.32-21.99l5.43,2.3L188.13,220
					C185.97,225.09,181,228.38,175.48,228.38z"/>
			</g>
			<g>
				<path class="st12" d="M413.24,249.05h-12.58c-22.96,0-41.65-18.68-41.65-41.65c0-12.72-6.84-24.58-17.86-30.95l-30.36-17.54
					c-2.03-1.18-4.33-1.92-6.76-2.7c-1.39-0.45-2.82-0.91-4.24-1.47c-4.68-1.84-12.05-8.09-20.6-15.33
					c-8.88-7.53-18.95-16.06-27.1-20.52c-0.18-0.1-0.36-0.2-0.54-0.31c-0.12-0.07-0.23-0.14-0.35-0.21l-34.03-18.56
					c-2.58-1.41-5.49-2.15-8.43-2.15h-83.29v-5.9h83.29c3.92,0,7.81,0.99,11.25,2.87l34.03,18.56c0.18,0.1,0.36,0.21,0.54,0.31
					c0.12,0.07,0.23,0.14,0.35,0.2c8.68,4.75,18.99,13.49,28.09,21.2c7.8,6.61,15.17,12.86,18.94,14.34
					c1.25,0.49,2.53,0.91,3.89,1.35c2.62,0.84,5.32,1.72,7.9,3.21l30.36,17.54c12.84,7.42,20.81,21.23,20.81,36.06
					c0,19.71,16.03,35.74,35.74,35.74h12.58V249.05z"/>
			</g>
			<g>
				<rect x="393.86" y="202.78" class="st22" width="1.5" height="12.82"/>
				<path class="st23" d="M401.34,194.54c0,5.28-3.02,9.2-6.73,9.2c-3.72,0-6.73-3.92-6.73-9.2s6.73-19.87,6.73-19.87
					S401.34,189.26,401.34,194.54z"/>
				<path class="st24" d="M399.02,185.41c0.95,8.78-2.32,16.31-7.64,17.16c-0.04,0.01-0.07,0.01-0.11,0.01
					c0.98,0.74,2.12,1.16,3.33,1.16c3.72,0,6.73-3.92,6.73-9.2C401.34,192.46,400.29,188.92,399.02,185.41z"/>
			</g>
			<g>
				<g>
					<path class="st21" d="M143.53,65.64c-4,0-7.25,3.24-7.25,7.25h14.49C150.78,68.88,147.53,65.64,143.53,65.64z"/>
				</g>
				<path class="st24" d="M140.43,72.89h10.35c0-2.6-1.37-4.87-3.42-6.15C145.94,69.59,143.45,71.81,140.43,72.89z"/>
			</g>
		</g>
		<g>
			<g>
				<path class="st31" d="M578.32,557.2L578.32,557.2c0-0.61-0.49-1.1-1.1-1.1h-2.68c-0.61,0-1.1-0.49-1.1-1.1v-25.17
					c0-0.61-0.49-1.1-1.1-1.1h-41.18c-0.61,0-1.1,0.49-1.1,1.1v15.74c0,0.61-0.49,1.1-1.1,1.1h-23.35c-0.61,0-1.1,0.49-1.1,1.1v3.57
					c0,0.61,0.49,1.1,1.1,1.1h5.8c0.61,0,1.1,0.49,1.1,1.1V555c0,0.61,0.49,1.1,1.1,1.1h8.13c0.61,0,1.1-0.49,1.1-1.1v-1.46
					c0-0.61,0.49-1.1,1.1-1.1h5.03c0.61,0,1.1,0.49,1.1,1.1V559c0,0.61-0.49,1.1-1.1,1.1h-3.01c-0.61,0-1.1,0.49-1.1,1.1v0.48
					c0,0.56-0.45,1.01-1.01,1.01l0,0c-0.56,0-1.01,0.45-1.01,1.01v0.26c0,0.56,0.45,1.01,1.01,1.01l0,0c0.56,0,1.01,0.45,1.01,1.01
					v0.23c0,0.61,0.49,1.1,1.1,1.1h4.8c0.43,0,0.79,0.35,0.79,0.79l0,0c0,0.43,0.35,0.79,0.79,0.79h6.73c0.43,0,0.79-0.35,0.79-0.79
					l0,0c0-0.43,0.35-0.79,0.79-0.79h2.02c0.61,0,1.1-0.49,1.1-1.1v-3.68c0-0.61,0.49-1.1,1.1-1.1h8.38c0.61,0,1.1,0.49,1.1,1.1V563
					c0,0.61,0.49,1.1,1.1,1.1h1.7c0.61,0,1.1,0.49,1.1,1.1v0.1c0,0.61,0.49,1.1,1.1,1.1h9.93c0.61,0,1.1-0.49,1.1-1.1v-0.1
					c0-0.61,0.49-1.1,1.1-1.1h5.77c0.61,0,1.1-0.49,1.1-1.1l0,0c0-0.61,0.49-1.1,1.1-1.1h1.76c0.61,0,1.1-0.49,1.1-1.1v-1.4
					c0-0.61-0.49-1.1-1.1-1.1h-1.76C578.81,558.3,578.32,557.81,578.32,557.2z"/>
			</g>
			<g>
				
					<pattern  id="SVGID_00000059989485773430417290000006183551497886863537_" xlink:href="#Unnamed_Pattern" patternTransform="matrix(0.2569 0 0 0.2569 -5489.5361 -4513.5562)">
				</pattern>
				<path style="fill:url(#SVGID_00000059989485773430417290000006183551497886863537_);" d="M578.32,557.2L578.32,557.2
					c0-0.61-0.49-1.1-1.1-1.1h-2.68c-0.61,0-1.1-0.49-1.1-1.1v-25.17c0-0.61-0.49-1.1-1.1-1.1h-41.18c-0.61,0-1.1,0.49-1.1,1.1
					v15.74c0,0.61-0.49,1.1-1.1,1.1h-23.35c-0.61,0-1.1,0.49-1.1,1.1v3.57c0,0.61,0.49,1.1,1.1,1.1h5.8c0.61,0,1.1,0.49,1.1,1.1V555
					c0,0.61,0.49,1.1,1.1,1.1h8.13c0.61,0,1.1-0.49,1.1-1.1v-1.46c0-0.61,0.49-1.1,1.1-1.1h5.03c0.61,0,1.1,0.49,1.1,1.1V559
					c0,0.61-0.49,1.1-1.1,1.1h-3.01c-0.61,0-1.1,0.49-1.1,1.1v0.48c0,0.56-0.45,1.01-1.01,1.01l0,0c-0.56,0-1.01,0.45-1.01,1.01
					v0.26c0,0.56,0.45,1.01,1.01,1.01l0,0c0.56,0,1.01,0.45,1.01,1.01v0.23c0,0.61,0.49,1.1,1.1,1.1h4.8c0.43,0,0.79,0.35,0.79,0.79
					l0,0c0,0.43,0.35,0.79,0.79,0.79h6.73c0.43,0,0.79-0.35,0.79-0.79l0,0c0-0.43,0.35-0.79,0.79-0.79h2.02c0.61,0,1.1-0.49,1.1-1.1
					v-3.68c0-0.61,0.49-1.1,1.1-1.1h8.38c0.61,0,1.1,0.49,1.1,1.1V563c0,0.61,0.49,1.1,1.1,1.1h1.7c0.61,0,1.1,0.49,1.1,1.1v0.1
					c0,0.61,0.49,1.1,1.1,1.1h9.93c0.61,0,1.1-0.49,1.1-1.1v-0.1c0-0.61,0.49-1.1,1.1-1.1h5.77c0.61,0,1.1-0.49,1.1-1.1l0,0
					c0-0.61,0.49-1.1,1.1-1.1h1.76c0.61,0,1.1-0.49,1.1-1.1v-1.4c0-0.61-0.49-1.1-1.1-1.1h-1.76
					C578.81,558.3,578.32,557.81,578.32,557.2z"/>
			</g>
			<g>
				<path class="st28" d="M549.54,515.33l-8.35,14.47h33.61l-8.35-14.47C562.68,508.83,553.29,508.83,549.54,515.33z"/>
				<path class="st29" d="M552.82,510.52c0.86,0,0.86,1.49,1.72,1.49c0.86,0,0.86-1.49,1.72-1.49c0.86,0,0.86,1.49,1.72,1.49
					c0.86,0,0.86-1.49,1.72-1.49c0.86,0,0.86,1.49,1.72,1.49c0.86,0,0.86-1.49,1.72-1.49c0.67,0,0.82,0.89,1.26,1.3l-0.79-1.36
					c-2.5-4.34-8.76-4.34-11.26,0l-0.78,1.35C552,511.4,552.15,510.52,552.82,510.52z"/>
				<path class="st24" d="M564.44,511.88c-0.97,7.43-5.09,13.87-10.98,17.93h21.33L564.44,511.88z"/>
			</g>
			<g>
				<path class="st28" d="M567.76,519.8l-5.78,10.01h23.25l-5.78-10.01C576.85,515.3,570.36,515.3,567.76,519.8z"/>
				<path class="st29" d="M570.03,516.47c0.6,0,0.6,1.03,1.19,1.03c0.6,0,0.6-1.03,1.19-1.03c0.6,0,0.6,1.03,1.19,1.03
					c0.6,0,0.6-1.03,1.19-1.03c0.6,0,0.6,1.03,1.19,1.03c0.6,0,0.6-1.03,1.19-1.03c0.46,0,0.57,0.62,0.87,0.9l-0.54-0.94
					c-1.73-3-6.06-3-7.79,0l-0.54,0.93C569.47,517.07,569.57,516.47,570.03,516.47z"/>
				<path class="st24" d="M578.07,517.4c-0.67,5.14-3.52,9.59-7.59,12.4h14.75L578.07,517.4z"/>
			</g>
			<g>
				<path class="st28" d="M532.55,521.88l-4.55,7.88h18.3l-4.55-7.88C539.71,518.34,534.6,518.34,532.55,521.88z"/>
				<path class="st29" d="M534.34,519.26c0.47,0,0.47,0.81,0.94,0.81c0.47,0,0.47-0.81,0.94-0.81c0.47,0,0.47,0.81,0.94,0.81
					c0.47,0,0.47-0.81,0.94-0.81c0.47,0,0.47,0.81,0.94,0.81c0.47,0,0.47-0.81,0.94-0.81c0.36,0,0.45,0.49,0.68,0.71l-0.43-0.74
					c-1.36-2.36-4.77-2.36-6.14,0l-0.42,0.74C533.9,519.74,533.98,519.26,534.34,519.26z"/>
				<path class="st24" d="M540.67,520c-0.53,4.05-2.77,7.55-5.98,9.76h11.62L540.67,520z"/>
			</g>
			<path class="st21" d="M576.67,569.96h-10.82v-3.43c0-2.57-2.08-4.65-4.65-4.65h-33.61v-1.96c0-2.57-2.08-4.65-4.65-4.65h-26.92
				c-2.57,0-4.65,2.08-4.65,4.65v1.96h-8.81c-2.57,0-4.65,2.08-4.65,4.65v3.43h-6.12c-2.57,0-4.65,2.08-4.65,4.65
				s2.08,4.65,4.65,4.65h6.12v6.26c0,2.57,2.08,4.65,4.65,4.65h14.58c-0.08,0.35-0.14,0.71-0.14,1.08v3.43
				c0,2.57,2.08,4.65,4.65,4.65h13.95c2.57,0,4.65-2.08,4.65-4.65v-3.43c0-0.37-0.06-0.73-0.14-1.08h41.09
				c2.57,0,4.65-2.08,4.65-4.65v-6.26h10.82c2.57,0,4.65-2.08,4.65-4.65S579.24,569.96,576.67,569.96z"/>
			<g>
				<path class="st28" d="M536.77,552.98l-13.13,22.74h43.16l-13.13-22.74C549.91,546.48,540.52,546.48,536.77,552.98z"/>
				<path class="st29" d="M538.58,550.96c1.11,0,1.11,1.91,2.21,1.91c1.11,0,1.11-1.91,2.21-1.91c1.11,0,1.11,1.91,2.21,1.91
					s1.11-1.91,2.21-1.91c1.11,0,1.11,1.91,2.21,1.91c1.11,0,1.11-1.91,2.21-1.91c0.86,0,1.05,1.15,1.61,1.66l-1.01-1.75
					c-3.21-5.57-11.25-5.57-14.47,0l-1,1.73C537.53,552.09,537.73,550.96,538.58,550.96z"/>
				<path class="st24" d="M553.51,552.7c-1.24,9.54-6.54,17.81-14.1,23.02h27.39L553.51,552.7z"/>
			</g>
			<g>
				<path class="st28" d="M499.51,542.04l-19.45,33.68h63.92l-19.45-33.68C518.98,532.41,505.08,532.41,499.51,542.04z"/>
				<path class="st29" d="M502.2,539.05c1.64,0,1.64,2.83,3.28,2.83c1.64,0,1.64-2.83,3.27-2.83c1.64,0,1.64,2.83,3.27,2.83
					c1.64,0,1.64-2.83,3.27-2.83c1.64,0,1.64,2.83,3.27,2.83c1.64,0,1.64-2.83,3.28-2.83c1.27,0,1.56,1.7,2.39,2.46l-1.49-2.59
					c-4.76-8.25-16.66-8.25-21.43,0l-1.48,2.57C500.65,540.72,500.94,539.05,502.2,539.05z"/>
				<path class="st24" d="M524.3,541.63c-1.84,14.13-9.68,26.38-20.88,34.09h40.56L524.3,541.63z"/>
			</g>
		</g>
		<g>
			<rect x="340.73" y="697.71" class="st22" width="2.16" height="18.5"/>
			<circle class="st23" cx="341.81" cy="685.31" r="13.79"/>
			<path class="st24" d="M348.94,673.5c1.26,2.08,1.98,4.52,1.98,7.13c0,7.62-6.17,13.79-13.79,13.79c-2.61,0-5.05-0.72-7.13-1.98
				c2.42,3.99,6.8,6.67,11.81,6.67c7.62,0,13.79-6.17,13.79-13.79C355.6,680.3,352.93,675.92,348.94,673.5z"/>
		</g>
		<g>
			<rect x="461.72" y="660.69" class="st22" width="2.16" height="18.5"/>
			<circle class="st23" cx="462.8" cy="648.28" r="13.79"/>
			<path class="st24" d="M469.92,636.48c1.26,2.08,1.98,4.52,1.98,7.13c0,7.62-6.17,13.79-13.79,13.79c-2.61,0-5.05-0.72-7.13-1.98
				c2.42,3.99,6.8,6.67,11.81,6.67c7.62,0,13.79-6.17,13.79-13.79C476.59,643.28,473.92,638.89,469.92,636.48z"/>
		</g>
		<g>
			<rect x="358.27" y="703.56" class="st22" width="1.5" height="12.89"/>
			<circle class="st23" cx="359.03" cy="694.92" r="9.61"/>
			<path class="st24" d="M363.99,686.69c0.88,1.45,1.38,3.15,1.38,4.97c0,5.31-4.3,9.61-9.61,9.61c-1.82,0-3.52-0.5-4.97-1.38
				c1.68,2.78,4.74,4.64,8.23,4.64c5.31,0,9.61-4.3,9.61-9.61C368.63,691.43,366.77,688.37,363.99,686.69z"/>
		</g>
		<g>
			<rect x="447.93" y="556.88" class="st22" width="2.16" height="18.5"/>
			<path class="st23" d="M458.72,544.99c0,7.62-4.35,13.28-9.72,13.28c-5.37,0-9.72-5.66-9.72-13.28c0-7.62,9.72-28.67,9.72-28.67
				S458.72,537.37,458.72,544.99z"/>
			<path class="st24" d="M455.38,531.81c1.36,12.67-3.35,23.53-11.02,24.76c-0.05,0.01-0.11,0.01-0.16,0.02
				c1.42,1.07,3.06,1.68,4.8,1.68c5.37,0,9.72-5.66,9.72-13.28C458.72,541.98,457.21,536.88,455.38,531.81z"/>
		</g>
		<g>
			<rect x="471.85" y="545.85" class="st22" width="2.16" height="18.5"/>
			<path class="st23" d="M482.65,533.96c0,7.62-4.35,13.28-9.72,13.28c-5.37,0-9.72-5.66-9.72-13.28c0-7.62,9.72-28.67,9.72-28.67
				S482.65,526.34,482.65,533.96z"/>
			<path class="st24" d="M479.3,520.78c1.36,12.67-3.35,23.53-11.02,24.76c-0.05,0.01-0.11,0.01-0.16,0.02
				c1.42,1.07,3.06,1.68,4.8,1.68c5.37,0,9.72-5.66,9.72-13.28C482.65,530.95,481.13,525.85,479.3,520.78z"/>
		</g>
	</g>
</g>
<g id="designed_by_freepik">
</g>
</svg>
