<?xml version="1.0" encoding="UTF-8"?><svg id="_5222188_影像" xmlns="http://www.w3.org/2000/svg" viewBox="0 0 27.88 36"><defs><style>.cls-1,.cls-2{stroke-width:0px;}.cls-2{fill:#fff;}</style></defs><path class="cls-1" d="m27.68,5.56c.19.12.26.37.13.57l-17.98,29.67c-.11.19-.37.26-.56.14L.2,30.43c-.19-.11-.26-.37-.13-.56L18.04.2c.11-.19.37-.26.57-.13l9.07,5.5Zm-18.34,29.45L26.9,6.05,18.53.98.98,29.94l8.37,5.07Z"/><rect class="cls-1" x="-2.99" y="13.11" width="33.87" height="9.78" transform="translate(-8.68 20.59) rotate(-58.78)"/><path class="cls-2" d="m23.91,6.94l-2.39-1.45c-.2-.12-.26-.37-.14-.57s.37-.26.57-.14l2.39,1.45c.2.12.26.37.14.57s-.37.26-.57.14Z"/><path class="cls-2" d="m22.28,9.63l-1.2-.73c-.2-.12-.26-.37-.14-.57s.37-.26.57-.14l1.2.73c.2.12.26.37.14.57s-.37.26-.57.14Z"/><path class="cls-2" d="m20.54,12.5l-2.39-1.45c-.2-.12-.26-.37-.14-.57s.37-.26.57-.14l2.39,1.45c.2.12.26.37.14.57s-.37.26-.57.14Z"/><path class="cls-2" d="m18.91,15.19l-1.2-.73c-.2-.12-.26-.37-.14-.57s.37-.26.57-.14l1.2.73c.2.12.26.37.14.57s-.37.26-.57.14Z"/><path class="cls-2" d="m17.18,18.06l-2.39-1.45c-.2-.12-.26-.37-.14-.57s.37-.26.57-.14l2.39,1.45c.2.12.26.37.14.57s-.37.26-.57.14Z"/><path class="cls-2" d="m15.55,20.74l-1.2-.73c-.2-.12-.26-.37-.14-.57s.37-.26.57-.14l1.2.73c.2.12.26.37.14.57s-.37.26-.57.14Z"/><path class="cls-2" d="m13.81,23.61l-2.39-1.45c-.2-.12-.26-.37-.14-.57s.37-.26.57-.14l2.39,1.45c.2.12.26.37.14.57s-.37.26-.57.14Z"/><path class="cls-2" d="m12.18,26.3l-1.2-.73c-.2-.12-.26-.37-.14-.57s.37-.26.57-.14l1.2.73c.2.12.26.37.14.57s-.37.26-.57.14Z"/><path class="cls-2" d="m10.44,29.17l-2.39-1.45c-.2-.12-.26-.37-.14-.57s.37-.26.57-.14l2.39,1.45c.2.12.26.37.14.57s-.37.26-.57.14Z"/><path class="cls-2" d="m8.81,31.86l-1.2-.73c-.2-.12-.26-.37-.14-.57s.37-.26.57-.14l1.2.73c.2.12.26.37.14.57s-.37.26-.57.14Z"/></svg>