<?xml version="1.0" encoding="UTF-8"?><svg id="_5222188_影像" xmlns="http://www.w3.org/2000/svg" viewBox="0 0 20.74 34.47"><defs><style>.cls-1,.cls-2{stroke-width:0px;}.cls-2{fill:#fff;}</style></defs><path class="cls-1" d="m20.74,3.42c.02.4-.06.82-.27,1.2l-1.4,2.59h-.01c-.05.09-.14.14-.23.14h-.04l-.56.4-.15,1.06v.02s-.01.01-.01.01h-.01s-.01.06-.01.06l-.02.02v.02s-.04.04-.04.04l-.8.69-.05.86h-.01s0,.06,0,.06v.02L6.62,29.94h0s-.01.01-.01.01h0s-.07.09-.07.09l-4.21,3.05-.03.02h0l-.04.03-1.8,1.31H.18s-.02,0-.02,0c-.09-.05-.15-.15-.16-.25v-.03l.14-2.64v-.03l.25-4.81H.39s.01-.06.01-.06v-.04l.03-.03L10.92,7.25h.02s.04-.07.04-.07l.7-.51.14-1.05v-.02s.01-.01.01-.01v-.05l.04-.03h0s.02-.05.02-.05l.82-.71.03-.7-.05-.25,1.43-2.63C14.51.46,15.23.05,15.98,0c.4-.02.82.06,1.2.26h0s2.38,1.31,2.38,1.31c.72.38,1.14,1.1,1.18,1.85Zm-.8.91c.15-.28.21-.58.2-.88-.04-.55-.34-1.07-.86-1.35h-.01l-2.38-1.3c-.28-.15-.58-.21-.88-.2-.55.04-1.07.34-1.35.86l-1.26,2.32,2.23,1.22,3.05,1.65,1.26-2.32Zm-2.17,3l.39-.28-4.82-2.61-.02.49v.02s-.09.16-.09.16l-.59.52,4.9,2.66.11-.77v-.02s.11-.15.11-.15v-.02Zm-1.09,1.98l.57-.5-4.89-2.65-.1.75h-.01s-.1.17-.1.17h-.01s-.4.3-.4.3l1.65.9.06.03,2.26,1.23.85.46.03-.51v-.02s.09-.16.09-.16ZM2.15,32.47l3.65-2.64-.7-.37-1.3.14h0c-.14,0-.27-.07-.31-.22l-.5-1.88-1.12.15h-.02s-.13-.03-.13-.03l-.75-.41-.21,4.18,1.4,1.08Z"/><path class="cls-1" d="m20.14,3.45c.01.3-.05.6-.2.88l-1.26,2.32-3.05-1.65-2.23-1.22,1.26-2.32c.28-.52.8-.82,1.35-.86.3-.01.6.05.88.2l2.38,1.3h.01c.52.28.82.8.86,1.35Zm-.52.81c.14-.25.2-.53.18-.79-.03-.5-.31-.97-.78-1.22l-2.14-1.17c-.25-.13-.53-.19-.79-.17-.5.03-.97.3-1.22.77l-1.14,2.09,2.01,1.09,2.75,1.49,1.13-2.09Z"/><path class="cls-2" d="m19.8,3.47c.02.26-.04.54-.18.79l-1.13,2.09-2.75-1.49-2.01-1.09,1.14-2.09c.25-.47.72-.74,1.22-.77.26-.02.54.04.79.17l2.14,1.17c.47.25.75.72.78,1.22Z"/><polygon class="cls-1" points="18.16 7.05 17.77 7.33 17.76 7.35 17.66 7.5 17.65 7.52 17.54 8.29 12.64 5.63 13.23 5.11 13.31 4.95 13.32 4.93 13.34 4.44 18.16 7.05"/><path class="cls-1" d="m17.25,8.81l-.57.5-.08.16v.02s-.04.51-.04.51l-.85-.46-2.26-1.23-.06-.03-1.65-.9.4-.29h.01s.1-.17.1-.17h.01s.1-.76.1-.76l4.89,2.65Zm-.98.27l.46-.41-3.97-2.15-.08.61h-.01s-.07.14-.07.14h-.02s-.32.24-.32.24l1.34.74h.04s.01.02.01.02l1.83.99.69.38.02-.42h.01s.07-.14.07-.14Z"/><polygon class="cls-2" points="16.73 8.67 16.27 9.08 16.2 9.21 16.19 9.22 16.17 9.64 15.48 9.26 13.65 8.27 13.64 8.26 13.6 8.25 12.26 7.51 12.58 7.28 12.6 7.27 12.67 7.14 12.68 7.13 12.76 6.52 16.73 8.67"/><path class="cls-1" d="m5.8,29.83l-3.65,2.64-1.4-1.08.21-4.18.75.41.13.02h.02s1.12-.14,1.12-.14l.5,1.88c.04.15.17.23.31.22h0l1.3-.14.7.37Z"/></svg>