<?xml version="1.0" encoding="UTF-8"?><svg id="_5222188_影像" xmlns="http://www.w3.org/2000/svg" viewBox="0 0 23.63 42.45"><defs><style>.cls-1,.cls-2{stroke-width:0px;}.cls-2{fill:#fff;}</style></defs><path class="cls-1" d="m6.57,39.11c.09.88-.19,1.73-.75,2.35-.58.65-1.43.99-2.37.99-.43,0-.87-.13-1.31-.37-.87-.48-1.62-1.35-1.92-2.21-.88-2.55.96-4.58,2.44-6.21.19-.2.36-.4.53-.58.08-.09.2-.12.31-.09s.19.13.2.24c.16,1.35.42,1.84,1.13,3.05.19.31.43.59.68.88.47.56.98,1.13,1.06,1.95Zm-1.17,1.97c.45-.51.67-1.2.59-1.9-.07-.65-.48-1.13-.92-1.64-.26-.3-.53-.6-.74-.97-.6-1.02-.93-1.6-1.12-2.66-.04.04-.08.09-.12.12-1.44,1.6-3.09,3.43-2.32,5.63.37,1.08,1.69,2.18,2.68,2.2.78,0,1.47-.27,1.94-.79Z"/><path class="cls-1" d="m5.99,39.18c.08.7-.14,1.39-.59,1.9-.47.52-1.16.79-1.94.79-.99-.01-2.31-1.12-2.68-2.2-.77-2.21.88-4.03,2.32-5.63.04-.03.08-.08.12-.12.19,1.05.52,1.64,1.12,2.66.21.36.47.67.74.97.44.51.86.99.92,1.64Z"/><path class="cls-1" d="m21.3.56c2.18,1.21,2.98,3.97,1.77,6.16l-4.89,8.86-.51-.29,4.89-8.86c1.05-1.9.36-4.31-1.55-5.36-1.91-1.05-4.31-.36-5.37,1.55l-4.89,8.86-.51-.29L15.14,2.34c1.21-2.18,3.96-2.99,6.16-1.78Z"/><path class="cls-1" d="m21.01,1.08c1.91,1.04,2.6,3.46,1.55,5.36l-4.89,8.86-6.92-3.81L15.64,2.63c1.05-1.91,3.46-2.6,5.37-1.55Z"/><path class="cls-1" d="m18.52,15.77c.58.32.8,1.06.47,1.65-.32.59-1.06.8-1.65.48l-.96-.53.14-.26c.08-.13.02-.3-.11-.38l1.2.66c.31.18.69.05.87-.24.16-.31.05-.7-.25-.87l-.59-.33c.14.08.32.03.4-.11l.14-.25.34.19Z"/><path class="cls-1" d="m18.23,16.27c.31.16.42.56.25.87-.18.3-.56.42-.87.24l-1.2-.66-6.2-3.43-1.2-.66c-.31-.18-.43-.56-.25-.87.16-.31.55-.42.86-.24l.58.32,7.43,4.1.59.33Z"/><path class="cls-1" d="m18.18,15.58l-.14.25c-.08.14-.25.19-.4.11l-7.43-4.1c-.13-.09-.18-.25-.1-.4l.14-.25.51.29,6.92,3.81.51.29Z"/><path class="cls-1" d="m16.42,16.72c.13.09.19.25.11.38l-.14.26-6.7-3.7.14-.25c.08-.14.25-.2.38-.12l6.2,3.43Z"/><path class="cls-1" d="m16.39,17.37l-2.79,5.05c.05-.1.04-.22-.01-.31-.07-.09-.16-.14-.27-.13-.47.07-.93.13-1.38.2-1.84.29-3.58.56-4.98-.22-.36-.2-.68-.45-.98-.77-.07-.07-.15-.1-.24-.09-.1.01-.18.07-.22.14l4.18-7.58,6.7,3.7Zm-3.81,3.6l1.98-3.58-4.14-2.28-2.98,5.38c.19.19.38.34.6.45.51.27,1.06.37,1.66.37.63,0,1.3-.1,1.98-.21.3-.04.59-.09.9-.13Z"/><path class="cls-2" d="m14.56,17.39l-1.98,3.58c-.31.04-.6.09-.9.13-.68.11-1.35.21-1.98.21-.59,0-1.15-.1-1.66-.37-.22-.11-.42-.26-.6-.45l2.98-5.38,4.14,2.28Z"/><path class="cls-1" d="m13.59,22.11c.05.09.07.21.01.31-.04.08-.12.13-.22.14-.2.02-.38.05-.57.08-.03,0-.08.01-.11.02-.23.02-.45.07-.68.1-1.94.3-3.78.58-5.36-.3-.14-.08-.3-.18-.43-.27-.05-.03-.1-.07-.14-.11-.07-.04-.13-.1-.2-.16-.02-.01-.04-.02-.07-.04-.1-.1-.19-.19-.27-.29-.09-.09-.11-.23-.04-.34.04-.08.12-.13.22-.14.09-.01.18.02.24.09.3.32.61.57.98.77,1.41.78,3.14.51,4.98.22.45-.07.91-.13,1.38-.2.11-.01.21.04.27.13Z"/><path class="cls-1" d="m13.6,22.42l-3.34,6.05c-.78,1.41-2.37,2.17-3.94,1.93l-1.16,2.1c-.08.14-.25.19-.4.11l-1.78-.98c-.14-.08-.19-.25-.11-.4l1.15-2.1c-1.04-1.2-1.24-2.96-.46-4.37l1.94-3.52c-.07.11-.04.25.04.34.09.1.18.19.27.29l-1.76,3.18c-.69,1.24-.47,2.82.52,3.83.1.1.11.24.05.35l-1.12,2.02,1.27.7,1.12-2.02c.05-.11.19-.18.31-.14,1.39.3,2.84-.36,3.52-1.6l3.06-5.54h0c.19-.03.37-.07.57-.09.1-.01.18-.07.22-.14Z"/><path class="cls-1" d="m12.81,22.64h0s-.08.01-.11.02c.03-.01.08-.02.11-.02Z"/><path class="cls-1" d="m12.81,22.65l-3.06,5.54c-.68,1.24-2.13,1.9-3.52,1.6-.12-.03-.25.03-.31.14l-1.12,2.02-1.27-.7,1.12-2.02c.05-.11.04-.25-.05-.35-.99-1.01-1.21-2.59-.52-3.83l1.76-3.18s.04.03.07.04c.07.07.13.12.2.16.04.04.09.08.14.11.13.1.27.2.43.27,1.58.88,3.41.59,5.36.3.23-.03.45-.08.68-.1.03-.01.07-.01.11-.01Z"/><path class="cls-1" d="m10.25,11.2l-.14.25c-.08.14-.03.31.1.4l-.58-.32c-.31-.18-.69-.07-.86.24-.18.31-.05.69.25.87l1.2.66c-.13-.08-.31-.02-.38.12l-.14.25-.96-.53c-.59-.32-.8-1.06-.48-1.65.33-.59,1.06-.8,1.66-.48l.34.19Z"/><path class="cls-1" d="m6.23,22.19c.13.1.29.2.43.27-.15-.08-.3-.18-.43-.27Z"/><path class="cls-1" d="m5.89,21.92c.07.07.13.12.2.16-.07-.04-.13-.1-.2-.16Z"/></svg>